*
*
G04 PADS 9.3.1 Build Number: 456998 generated Gerber (RS-274-X) file*
G04 PC Version=2.1*
*
%IN "ExtentionBoard.pcb"*%
*
%MOIN*%
*
%FSLAX35Y35*%
*
*
*
*
G04 PC Standard Apertures*
*
*
G04 Thermal Relief Aperture macro.*
%AMTER*
1,1,$1,0,0*
1,0,$1-$2,0,0*
21,0,$3,$4,0,0,45*
21,0,$3,$4,0,0,135*
%
*
*
G04 Annular Aperture macro.*
%AMANN*
1,1,$1,0,0*
1,0,$2,0,0*
%
*
*
G04 Odd Aperture macro.*
%AMODD*
1,1,$1,0,0*
1,0,$1-0.005,0,0*
%
*
*
G04 PC Custom Aperture Macros*
*
*
*
*
*
*
G04 PC Aperture Table*
*
%ADD013C,0.06*%
%ADD018R,0.06X0.06*%
%ADD033C,0.01*%
%ADD035C,0.025*%
%ADD036C,0.015*%
%ADD038C,0.001*%
%ADD067C,0.03937*%
%ADD068C,0.01181*%
%ADD076R,0.065X0.065*%
%ADD077C,0.065*%
%ADD078C,0.15748*%
%ADD079C,0.01969*%
*
*
*
*
G04 PC Circuitry*
G04 Layer Name ExtentionBoard.pcb - circuitry*
%LPD*%
*
*
G04 PC Custom Flashes*
G04 Layer Name ExtentionBoard.pcb - flashes*
%LPD*%
*
*
G04 PC Circuitry*
G04 Layer Name ExtentionBoard.pcb - circuitry*
%LPD*%
*
G54D13*
G01X1905000Y1700315D03*
X1895000Y1690315D03*
X1905000D03*
X1895000Y1680315D03*
X1905000D03*
X1895000Y1670315D03*
X1905000D03*
X1895000Y1660315D03*
X1905000D03*
X1895000Y1650315D03*
X1905000D03*
X1895000Y1640315D03*
X1905000D03*
X1895000Y1630315D03*
X1905000D03*
X1895000Y1620315D03*
X1905000D03*
X1895000Y1610315D03*
X1905000D03*
X1895000Y1600315D03*
X1905000D03*
X1895000Y1590315D03*
X1905000D03*
X1895000Y1580315D03*
X1905000D03*
X1895000Y1570315D03*
X1905000D03*
X1895000Y1560315D03*
X1905000D03*
X1895000Y1550315D03*
X1905000D03*
X1895000Y1540315D03*
X1905000D03*
X1895000Y1530315D03*
X1905000D03*
X1895000Y1520315D03*
X1905000D03*
X1895000Y1510315D03*
X1905000D03*
X1895000Y1500315D03*
X1905000D03*
X1895000Y1490315D03*
X1905000D03*
X1895000Y1480315D03*
X1905000D03*
X1895000Y1470315D03*
X1905000D03*
X1895000Y1460315D03*
X1905000D03*
X1895000Y1450315D03*
X1905000D03*
X1895000Y1440315D03*
X1905000D03*
X1895000Y1430315D03*
X1905000D03*
X1895000Y1420315D03*
X1905000D03*
X1895000Y1410315D03*
X1905000D03*
X1895000Y1400315D03*
X1905000D03*
X1895000Y1390315D03*
X1905000D03*
X2105000Y1700315D03*
X2095000Y1690315D03*
X2105000D03*
X2095000Y1680315D03*
X2105000D03*
X2095000Y1670315D03*
X2105000D03*
X2095000Y1660315D03*
X2105000D03*
X2095000Y1650315D03*
X2105000D03*
X2095000Y1640315D03*
X2105000D03*
X2095000Y1630315D03*
X2105000D03*
X2095000Y1620315D03*
X2105000D03*
X2095000Y1610315D03*
X2105000D03*
X2095000Y1600315D03*
X2105000D03*
X2095000Y1590315D03*
X2105000D03*
X2095000Y1580315D03*
X2105000D03*
X2095000Y1570315D03*
X2105000D03*
X2095000Y1560315D03*
X2105000D03*
X2095000Y1550315D03*
X2105000D03*
X2095000Y1540315D03*
X2105000D03*
X2095000Y1530315D03*
X2105000D03*
X2095000Y1520315D03*
X2105000D03*
X2095000Y1510315D03*
X2105000D03*
X2095000Y1500315D03*
X2105000D03*
X2095000Y1490315D03*
X2105000D03*
X2095000Y1480315D03*
X2105000D03*
X2095000Y1470315D03*
X2105000D03*
X2095000Y1460315D03*
X2105000D03*
X2095000Y1450315D03*
X2105000D03*
X2095000Y1440315D03*
X2105000D03*
X2095000Y1430315D03*
X2105000D03*
X2095000Y1420315D03*
X2105000D03*
X2095000Y1410315D03*
X2105000D03*
X2095000Y1400315D03*
X2105000D03*
X2095000Y1390315D03*
X2105000D03*
G54D18*
X1895000Y1700315D03*
X2095000D03*
G54D33*
X1907471Y1629935D02*
G75*
G03X1908094Y1627221I2476J-860D01*
X1905380Y1627844I-1854J-1853*
G01X1907146Y1629033D02*
G03X1908094Y1627221I3365J606D01*
G01X1906768Y1628547*
X1908094Y1627221D02*
G03X1906282Y1628169I-2418J-2417D01*
G01X1943176Y1625984D02*
G03X1943883Y1626428I-0J787D01*
G01Y1625541D02*
G03X1943176Y1625984I-707J-343D01*
G01X1943738*
X1905000Y1630315D02*
X1909331Y1625984D01*
X1944488*
X1895380Y1632786D02*
G03X1898094Y1633409I860J2476D01*
X1897471Y1630695I1853J-1854*
G01X1896282Y1632461D02*
G03X1898094Y1633409I-606J3365D01*
G01X1896768Y1632083*
X1898094Y1633409D02*
G03X1897146Y1631597I2417J-2418D01*
G01X1936089Y1635039D02*
G03X1936797Y1635483I0J787D01*
G01Y1634596D02*
G03X1936089Y1635039I-708J-343D01*
G01X1936652*
X1895000Y1630315D02*
X1899724Y1635039D01*
X1937402*
X1907016Y1641793D02*
G03X1909375Y1640315I2359J1143D01*
X1907016Y1638837I0J-2621*
G01X1907424Y1640926D02*
G03X1909375Y1640315I1951J2808D01*
G01X1907500*
X1909375D02*
G03X1907424Y1639704I0J-3419D01*
G01X2026428Y1714749D02*
G03X2025984Y1714042I343J-707D01*
X2025541Y1714749I-786J-0*
G01X2025984Y1714042D02*
Y1714604D01*
X1905000Y1640315D02*
X2001969D01*
X2025984Y1664331*
Y1715354*
X1895380Y1642786D02*
G03X1898094Y1643409I860J2476D01*
X1897471Y1640695I1853J-1854*
G01X1896282Y1642461D02*
G03X1898094Y1643409I-606J3365D01*
G01X1896768Y1642083*
X1898094Y1643409D02*
G03X1897146Y1641597I2417J-2418D01*
G01X2020522Y1722624D02*
G03X2020079Y1721916I343J-708D01*
X2019635Y1722624I-787J-0*
G01X2020079Y1721916D02*
Y1722478D01*
X1895000Y1640315D02*
X1899961Y1645276D01*
X1998425*
X2020079Y1666929*
Y1723228*
X2030184Y1762598D02*
G03X2030891Y1763042I-0J787D01*
G01Y1762155D02*
G03X2030184Y1762598I-707J-343D01*
G01X2030746*
X1882677Y1657874D02*
Y1755118D01*
X1890157Y1762598*
X2031496*
X1901906Y1653409D02*
G03X1904620Y1652786I1854J1853D01*
G01X1902529Y1650695D02*
G03X1901906Y1653409I-2476J860D01*
X1903718Y1652461I2418J2417*
G01X1901906Y1653409D02*
X1903232Y1652083D01*
X1902854Y1651597D02*
G03X1901906Y1653409I-3365J-606D01*
G01X1882677Y1657874D02*
X1885433Y1655118D01*
X1900197*
X1905000Y1650315*
X1803150Y1375591D02*
X1814961Y1363780D01*
X2185039*
X2196850Y1375591*
Y1824409*
X2185039Y1836220*
X1814961*
X1803150Y1824409*
Y1375591*
G54D35*
X1850650Y1377530D03*
X1870650D03*
X1890650D03*
X1910650D03*
X1930650D03*
X1950650D03*
X1970650D03*
X1990650D03*
X2010650D03*
X2030650D03*
X2050650D03*
X2070650D03*
X2090650D03*
X2110650D03*
X2130650D03*
X1850650Y1397530D03*
X1870650D03*
X1910650D03*
X1930650D03*
X1950650D03*
X1970650D03*
X1990650D03*
X2010650D03*
X2030650D03*
X2050650D03*
X2070650D03*
X2110650D03*
X2130650D03*
X1830650Y1417530D03*
X1850650D03*
X1870650D03*
X1910650D03*
X1930650D03*
X1950650D03*
X1970650D03*
X1990650D03*
X2010650D03*
X2030650D03*
X2050650D03*
X2070650D03*
X2110650D03*
X2130650D03*
X1830650Y1437530D03*
X1850650D03*
X1870650D03*
X1910650D03*
X1930650D03*
X1950650D03*
X1970650D03*
X1990650D03*
X2010650D03*
X2030650D03*
X2050650D03*
X2070650D03*
X2110650D03*
X2130650D03*
X1830650Y1457530D03*
X1850650D03*
X1870650D03*
X1910650D03*
X1930650Y1461280D03*
X1950650D03*
X1970650D03*
X1990650D03*
X2010650D03*
X2030650D03*
X2050650D03*
X2110650Y1457530D03*
X2130650D03*
X1830650Y1477530D03*
X1850650D03*
X1870650D03*
X1910650D03*
X1970650Y1481280D03*
X1990650D03*
X2010650D03*
X2030650D03*
X2050650D03*
X2110650Y1477530D03*
X2130650D03*
X1830650Y1497530D03*
X1850650D03*
X1870650D03*
X1910650D03*
X1970650Y1501280D03*
X1990650D03*
X2010650D03*
X2030650D03*
X2050650D03*
X2110650Y1497530D03*
X2130650D03*
X1830650Y1517530D03*
X1850650D03*
X1870650D03*
X1910650D03*
X1970650Y1521280D03*
X1990650D03*
X2010650D03*
X2030650D03*
X2050650D03*
X2110650Y1517530D03*
X2130650D03*
X1830650Y1537530D03*
X1850650D03*
X1870650D03*
X1910650D03*
X1970650Y1541280D03*
X2010650D03*
X2110650Y1537530D03*
X2130650D03*
X1830650Y1557530D03*
X1850650D03*
X1870650D03*
X1910650D03*
X1970650Y1561280D03*
X1979528Y1572835D03*
X1998031D03*
X2010650Y1561280D03*
X2110650Y1557530D03*
X2130650D03*
X1830650Y1577530D03*
X1850650D03*
X1870650D03*
X1910650D03*
X1970650Y1581280D03*
X2010650D03*
X2030650D03*
X2050650D03*
X2110650Y1577530D03*
X2130650D03*
X1830650Y1597530D03*
X1850650D03*
X1870650D03*
X1910650D03*
X1990650Y1601280D03*
X2010650D03*
X2030650D03*
X2110650Y1597530D03*
X2130650D03*
X1830650Y1617530D03*
X1850650D03*
X1870650D03*
X1910650D03*
X1944488Y1625984D03*
X1937402Y1635039D03*
X1970650Y1621280D03*
X1990650D03*
X2010650D03*
X2030650D03*
X2110650Y1617530D03*
X2130650D03*
X1830650Y1637530D03*
X1850650D03*
X1870650D03*
X2010650Y1641280D03*
X2030650D03*
X2110650Y1637530D03*
X2130650D03*
X1830650Y1657530D03*
X1850650D03*
X1870650D03*
X1970650Y1661280D03*
X1990650D03*
X2050650D03*
X2110650Y1657530D03*
X2130650D03*
X1830650Y1677530D03*
X1850650D03*
X1870650D03*
X1970650Y1681280D03*
X2010650D03*
X2050650D03*
X2110650Y1677530D03*
X2130650D03*
X1830650Y1697530D03*
X1850650D03*
X1870650D03*
X1970650Y1701280D03*
X1990650D03*
X2025984Y1715354D03*
X2050650Y1701280D03*
X2110650Y1697530D03*
X2130650D03*
X1830650Y1717530D03*
X1850650D03*
X1870650D03*
X2010650Y1721280D03*
X2020079Y1723228D03*
X2030650Y1721280D03*
X2050650D03*
X2090650Y1717530D03*
X2110650D03*
X2130650D03*
X1830650Y1737530D03*
X1850650D03*
X1870650D03*
X1970650Y1741280D03*
X2030650D03*
X2050650D03*
X2090650Y1737530D03*
X2110650D03*
X2130650D03*
X1830650Y1757530D03*
X1850650D03*
X1870650D03*
X2031496Y1762598D03*
X2050650Y1761280D03*
X2090650Y1757530D03*
X2110650D03*
X2130650D03*
X1830650Y1781280D03*
X1850650D03*
X1870650D03*
X1890650D03*
X1910650D03*
X1930650D03*
X1950650D03*
X1970650D03*
X2010650D03*
X2030650D03*
X2050650D03*
X2070650D03*
X2090650D03*
X2110650D03*
X2130650D03*
X2150650D03*
X1990650Y1801280D03*
X2010650D03*
X2030650D03*
X2050650D03*
X2070650D03*
X2090650D03*
X2110650D03*
X2130650D03*
X2150650D03*
G54D36*
X1939250Y1474179D02*
X1938125Y1475303D01*
X1932404Y1474179D02*
X1933529Y1475303D01*
X2098246Y1647069D02*
X2097121Y1648194D01*
X2098246Y1653561D02*
X2097121Y1652436D01*
X2091754Y1653561D02*
X2092879Y1652436D01*
X2091754Y1647069D02*
X2092879Y1648194D01*
X1908246Y1387069D02*
X1907121Y1388194D01*
X1908246Y1393561D02*
X1907121Y1392436D01*
X1901754Y1393561D02*
X1902879Y1392436D01*
X1901754Y1387069D02*
X1902879Y1388194D01*
X2108246Y1387069D02*
X2107121Y1388194D01*
X2108246Y1393561D02*
X2107121Y1392436D01*
X2101754Y1393561D02*
X2102879Y1392436D01*
X2101754Y1387069D02*
X2102879Y1388194D01*
X2098246Y1387069D02*
X2097121Y1388194D01*
X2098246Y1393561D02*
X2097121Y1392436D01*
X2091754Y1393561D02*
X2092879Y1392436D01*
X2091754Y1387069D02*
X2092879Y1388194D01*
X2098246Y1557069D02*
X2097121Y1558194D01*
X2098246Y1563561D02*
X2097121Y1562436D01*
X2091754Y1563561D02*
X2092879Y1562436D01*
X2091754Y1557069D02*
X2092879Y1558194D01*
X1898246Y1387069D02*
X1897121Y1388194D01*
X1898246Y1393561D02*
X1897121Y1392436D01*
X1891754Y1393561D02*
X1892879Y1392436D01*
X1891754Y1387069D02*
X1892879Y1388194D01*
G54D38*
G54D67*
X1979528Y1572835D02*
X1998031D01*
G54D68*
X2109591Y1390315D02*
G03X2109591I-4591J0D01*
G01Y1400315D02*
G03X2109591I-4591J0D01*
G01Y1410315D02*
G03X2109591I-4591J0D01*
G01Y1420315D02*
G03X2109591I-4591J0D01*
G01Y1430315D02*
G03X2109591I-4591J0D01*
G01Y1440315D02*
G03X2109591I-4591J0D01*
G01Y1450315D02*
G03X2109591I-4591J0D01*
G01Y1460315D02*
G03X2109591I-4591J0D01*
G01Y1470315D02*
G03X2109591I-4591J0D01*
G01Y1480315D02*
G03X2109591I-4591J0D01*
G01Y1490315D02*
G03X2109591I-4591J0D01*
G01Y1500315D02*
G03X2109591I-4591J0D01*
G01Y1510315D02*
G03X2109591I-4591J0D01*
G01Y1520315D02*
G03X2109591I-4591J0D01*
G01Y1530315D02*
G03X2109591I-4591J0D01*
G01Y1540315D02*
G03X2109591I-4591J0D01*
G01Y1550315D02*
G03X2109591I-4591J0D01*
G01Y1560315D02*
G03X2109591I-4591J0D01*
G01Y1570315D02*
G03X2109591I-4591J0D01*
G01Y1580315D02*
G03X2109591I-4591J0D01*
G01Y1590315D02*
G03X2109591I-4591J0D01*
G01Y1600315D02*
G03X2109591I-4591J0D01*
G01Y1610315D02*
G03X2109591I-4591J0D01*
G01Y1620315D02*
G03X2109591I-4591J0D01*
G01Y1630315D02*
G03X2109591I-4591J0D01*
G01Y1640315D02*
G03X2109591I-4591J0D01*
G01Y1650315D02*
G03X2109591I-4591J0D01*
G01Y1660315D02*
G03X2109591I-4591J0D01*
G01Y1670315D02*
G03X2109591I-4591J0D01*
G01Y1680315D02*
G03X2109591I-4591J0D01*
G01Y1690315D02*
G03X2109591I-4591J0D01*
G01Y1700315D02*
G03X2109591I-4591J0D01*
G01X2099591Y1390315D02*
G03X2099591I-4591J0D01*
G01Y1400315D02*
G03X2099591I-4591J0D01*
G01Y1410315D02*
G03X2099591I-4591J0D01*
G01Y1420315D02*
G03X2099591I-4591J0D01*
G01Y1430315D02*
G03X2099591I-4591J0D01*
G01Y1440315D02*
G03X2099591I-4591J0D01*
G01Y1450315D02*
G03X2099591I-4591J0D01*
G01Y1460315D02*
G03X2099591I-4591J0D01*
G01Y1470315D02*
G03X2099591I-4591J0D01*
G01Y1480315D02*
G03X2099591I-4591J0D01*
G01Y1490315D02*
G03X2099591I-4591J0D01*
G01Y1500315D02*
G03X2099591I-4591J0D01*
G01Y1510315D02*
G03X2099591I-4591J0D01*
G01Y1520315D02*
G03X2099591I-4591J0D01*
G01Y1530315D02*
G03X2099591I-4591J0D01*
G01Y1540315D02*
G03X2099591I-4591J0D01*
G01Y1550315D02*
G03X2099591I-4591J0D01*
G01Y1560315D02*
G03X2099591I-4591J0D01*
G01Y1570315D02*
G03X2099591I-4591J0D01*
G01Y1580315D02*
G03X2099591I-4591J0D01*
G01Y1590315D02*
G03X2099591I-4591J0D01*
G01Y1600315D02*
G03X2099591I-4591J0D01*
G01Y1610315D02*
G03X2099591I-4591J0D01*
G01Y1620315D02*
G03X2099591I-4591J0D01*
G01Y1630315D02*
G03X2099591I-4591J0D01*
G01Y1640315D02*
G03X2099591I-4591J0D01*
G01Y1650315D02*
G03X2099591I-4591J0D01*
G01Y1660315D02*
G03X2099591I-4591J0D01*
G01Y1670315D02*
G03X2099591I-4591J0D01*
G01Y1680315D02*
G03X2099591I-4591J0D01*
G01Y1690315D02*
G03X2099591I-4591J0D01*
G01X1899591Y1390315D02*
G03X1899591I-4591J0D01*
G01Y1400315D02*
G03X1899591I-4591J0D01*
G01Y1410315D02*
G03X1899591I-4591J0D01*
G01Y1420315D02*
G03X1899591I-4591J0D01*
G01Y1430315D02*
G03X1899591I-4591J0D01*
G01Y1440315D02*
G03X1899591I-4591J0D01*
G01Y1450315D02*
G03X1899591I-4591J0D01*
G01Y1460315D02*
G03X1899591I-4591J0D01*
G01Y1470315D02*
G03X1899591I-4591J0D01*
G01Y1480315D02*
G03X1899591I-4591J0D01*
G01Y1490315D02*
G03X1899591I-4591J0D01*
G01Y1500315D02*
G03X1899591I-4591J0D01*
G01Y1510315D02*
G03X1899591I-4591J0D01*
G01Y1520315D02*
G03X1899591I-4591J0D01*
G01Y1530315D02*
G03X1899591I-4591J0D01*
G01Y1540315D02*
G03X1899591I-4591J0D01*
G01Y1550315D02*
G03X1899591I-4591J0D01*
G01Y1560315D02*
G03X1899591I-4591J0D01*
G01Y1570315D02*
G03X1899591I-4591J0D01*
G01Y1580315D02*
G03X1899591I-4591J0D01*
G01Y1590315D02*
G03X1899591I-4591J0D01*
G01Y1600315D02*
G03X1899591I-4591J0D01*
G01Y1610315D02*
G03X1899591I-4591J0D01*
G01Y1620315D02*
G03X1899591I-4591J0D01*
G01X1909591Y1390315D02*
G03X1909591I-4591J0D01*
G01Y1400315D02*
G03X1909591I-4591J0D01*
G01Y1410315D02*
G03X1909591I-4591J0D01*
G01Y1420315D02*
G03X1909591I-4591J0D01*
G01Y1430315D02*
G03X1909591I-4591J0D01*
G01Y1440315D02*
G03X1909591I-4591J0D01*
G01Y1450315D02*
G03X1909591I-4591J0D01*
G01Y1460315D02*
G03X1909591I-4591J0D01*
G01Y1470315D02*
G03X1909591I-4591J0D01*
G01Y1480315D02*
G03X1909591I-4591J0D01*
G01Y1490315D02*
G03X1909591I-4591J0D01*
G01Y1500315D02*
G03X1909591I-4591J0D01*
G01Y1510315D02*
G03X1909591I-4591J0D01*
G01Y1520315D02*
G03X1909591I-4591J0D01*
G01Y1530315D02*
G03X1909591I-4591J0D01*
G01Y1540315D02*
G03X1909591I-4591J0D01*
G01Y1550315D02*
G03X1909591I-4591J0D01*
G01Y1560315D02*
G03X1909591I-4591J0D01*
G01Y1570315D02*
G03X1909591I-4591J0D01*
G01Y1580315D02*
G03X1909591I-4591J0D01*
G01Y1590315D02*
G03X1909591I-4591J0D01*
G01Y1600315D02*
G03X1909591I-4591J0D01*
G01Y1610315D02*
G03X1909591I-4591J0D01*
G01X2137559Y1375915D02*
Y1767894D01*
G03X2137264Y1768189I-295J-0*
G01X2079035*
G03X2078740Y1767894I0J-295*
G01Y1454439*
X1917559*
Y1499370*
X1949764*
G03X1950059Y1499665I-0J295*
G01Y1637929*
G03X1949764Y1638224I-295J0*
G01X1938619*
G03X1938505Y1637657I0J-295*
G01X1935558Y1632878D02*
G03X1938505Y1637657I1844J2161D01*
G01X1935558Y1632878D02*
G03X1935367Y1632949I-191J-224D01*
G01X1909290*
G03X1909031Y1632512I-0J-295*
G01X1909430Y1629112D02*
G03X1909031Y1632512I-4430J1203D01*
G01X1909430Y1629112D02*
G03X1909424Y1628985I285J-77D01*
X1909572Y1628700I523J90*
G01X1910110Y1628161*
G03X1910319Y1628075I209J209*
G01X1942453*
G03X1942645Y1628145I0J295*
G01Y1623823D02*
G03Y1628145I1843J2161D01*
G01Y1623823D02*
G03X1942453Y1623894I-192J-225D01*
G01X1909331*
X1908570Y1624037D02*
G03X1909331Y1623894I761J1947D01*
G01X1908570Y1624037D02*
G03X1908253Y1623554I-107J-275D01*
G01X1907192Y1624348D02*
G03X1908253Y1623554I-2192J-4033D01*
G01X1907192Y1624348D02*
G03X1907542Y1624817I141J260D01*
G01X1906615Y1625743*
G03X1906330Y1625891I-375J-375*
X1906203Y1625885I-50J-291*
G01X1900967Y1632507D02*
G03X1906203Y1625885I4033J-2192D01*
G01X1900967Y1632507D02*
G03X1900498Y1632857I-260J141D01*
G01X1899572Y1631930*
G03X1899424Y1631645I375J-375*
X1899430Y1631518I291J-50*
G01X1896203Y1634745D02*
G03X1899430Y1631518I-1203J-4430D01*
G01X1896203Y1634745D02*
G03X1896330Y1634739I77J285D01*
X1896615Y1634887I-90J523*
G01X1897542Y1635813*
G03X1897192Y1636282I-209J209*
G01X1896203Y1644745D02*
G03X1897192Y1636282I-1203J-4430D01*
G01X1896203Y1644745D02*
G03X1896330Y1644739I77J285D01*
X1896615Y1644887I-90J523*
G01X1897542Y1645813*
G03X1897192Y1646282I-209J209*
G01X1891011Y1652586D02*
G03X1897192Y1646282I3989J-2271D01*
G01X1891011Y1652586D02*
G03X1890754Y1653028I-257J146D01*
G01X1885433*
X1883955Y1653640D02*
G03X1885433Y1653028I1478J1478D01*
G01X1883955Y1653640D02*
X1881199Y1656396D01*
X1880587Y1657874D02*
G03X1881199Y1656396I2090J0D01*
G01X1880587Y1657874D02*
Y1755118D01*
X1881199Y1756596D02*
G03X1880587Y1755118I1478J-1478D01*
G01X1881199Y1756596D02*
X1888679Y1764077D01*
X1890157Y1764689D02*
G03X1888679Y1764077I0J-2091D01*
G01X1890157Y1764689D02*
X1949764D01*
G03X1950059Y1764984I-0J295*
G01Y1770394*
G03X1949764Y1770689I-295J-0*
G01X1829035*
G03X1828740Y1770394I0J-295*
G01Y1391001*
G03X1828848Y1390773I295J0*
G01Y1376156D02*
G03Y1390773I-6013J7309D01*
G01Y1376156D02*
G03X1828740Y1375928I187J-228D01*
G01Y1375915*
G03X1829035Y1375620I295J0*
G01X2137264*
G03X2137559Y1375915I-0J295*
G01X2171309Y1778415D02*
Y1808958D01*
G03X2171200Y1809188I-295J0*
G01X2167793Y1817853D02*
G03X2171200Y1809188I9372J-1318D01*
G01X2167793Y1817853D02*
G03X2167500Y1818189I-293J41D01*
G01X2095909*
G03X2095613Y1817894I-0J-295*
G01Y1803765*
X2094023Y1802174D02*
G03X2095613Y1803765I-0J1591D01*
G01X2094023Y1802174D02*
X1907283D01*
X1905693Y1803765D02*
G03X1907283Y1802174I1590J-0D01*
G01X1905693Y1803765D02*
Y1817894D01*
G03X1905398Y1818189I-295J-0*
G01X1832500*
G03X1832207Y1817853I-0J-295*
G01X1828848Y1809227D02*
G03X1832207Y1817853I-6013J7308D01*
G01X1828848Y1809227D02*
G03X1828740Y1808999I187J-228D01*
G01Y1779665*
G03X1829035Y1779370I295J0*
G01X1958740*
Y1764984*
G03X1959035Y1764689I295J0*
G01X2029461*
G03X2029653Y1764760I0J295*
G01Y1760437D02*
G03Y1764760I1843J2161D01*
G01Y1760437D02*
G03X2029461Y1760508I-192J-224D01*
G01X1959035*
G03X1958740Y1760213I0J-295*
G01Y1647661*
G03X1959035Y1647366I295J0*
G01X1997437*
G03X1997646Y1647453I-0J295*
G01X2017902Y1667709*
G03X2017988Y1667917I-209J208*
G01Y1721193*
G03X2017918Y1721385I-295J0*
G01X2022240D02*
G03X2017918I-2161J1843D01*
G01X2022240D02*
G03X2022169Y1721193I225J-192D01*
G01Y1666929*
X2021557Y1665451D02*
G03X2022169Y1666929I-1478J1478D01*
G01X2021557Y1665451D02*
X1999903Y1643797D01*
X1998425Y1643185D02*
G03X1999903Y1643797I0J2091D01*
G01X1998425Y1643185D02*
X1959035D01*
G03X1958740Y1642890I0J-295*
G01Y1642701*
G03X1959035Y1642406I295J-0*
G01X2000980*
G03X2001189Y1642492I0J295*
G01X2023807Y1665110*
G03X2023894Y1665319I-209J209*
G01Y1713319*
G03X2023823Y1713511I-296J0*
G01X2028145D02*
G03X2023823I-2161J1843D01*
G01X2028145D02*
G03X2028075Y1713319I225J-192D01*
G01Y1664331*
X2027463Y1662852D02*
G03X2028075Y1664331I-1479J1479D01*
G01X2027463Y1662852D02*
X2003447Y1638837D01*
X2001969Y1638224D02*
G03X2003447Y1638837I-0J2091D01*
G01X2001969Y1638224D02*
X1959035D01*
G03X1958740Y1637929I0J-295*
G01Y1480689*
X1940137*
G03X1939890Y1480233I0J-295*
G01X1931764D02*
G03X1939890I4063J-2631D01*
G01X1931764D02*
G03X1931516Y1480689I-248J161D01*
G01X1922785*
G03X1922490Y1480394I0J-295*
G01Y1459665*
G03X1922785Y1459370I295J0*
G01X2069764*
G03X2070059Y1459665I-0J295*
G01Y1778120*
X2171014*
G03X2171309Y1778415I-0J295*
G01X2109591Y1390315D02*
G03X2109591I-4591J0D01*
G01Y1400315D02*
G03X2109591I-4591J0D01*
G01Y1410315D02*
G03X2109591I-4591J0D01*
G01Y1420315D02*
G03X2109591I-4591J0D01*
G01Y1430315D02*
G03X2109591I-4591J0D01*
G01Y1440315D02*
G03X2109591I-4591J0D01*
G01Y1450315D02*
G03X2109591I-4591J0D01*
G01Y1460315D02*
G03X2109591I-4591J0D01*
G01Y1470315D02*
G03X2109591I-4591J0D01*
G01Y1480315D02*
G03X2109591I-4591J0D01*
G01Y1490315D02*
G03X2109591I-4591J0D01*
G01Y1500315D02*
G03X2109591I-4591J0D01*
G01Y1510315D02*
G03X2109591I-4591J0D01*
G01Y1520315D02*
G03X2109591I-4591J0D01*
G01Y1530315D02*
G03X2109591I-4591J0D01*
G01Y1540315D02*
G03X2109591I-4591J0D01*
G01Y1550315D02*
G03X2109591I-4591J0D01*
G01Y1560315D02*
G03X2109591I-4591J0D01*
G01Y1570315D02*
G03X2109591I-4591J0D01*
G01Y1580315D02*
G03X2109591I-4591J0D01*
G01Y1590315D02*
G03X2109591I-4591J0D01*
G01Y1600315D02*
G03X2109591I-4591J0D01*
G01Y1610315D02*
G03X2109591I-4591J0D01*
G01Y1620315D02*
G03X2109591I-4591J0D01*
G01Y1630315D02*
G03X2109591I-4591J0D01*
G01Y1640315D02*
G03X2109591I-4591J0D01*
G01Y1650315D02*
G03X2109591I-4591J0D01*
G01Y1660315D02*
G03X2109591I-4591J0D01*
G01Y1670315D02*
G03X2109591I-4591J0D01*
G01Y1680315D02*
G03X2109591I-4591J0D01*
G01Y1690315D02*
G03X2109591I-4591J0D01*
G01Y1700315D02*
G03X2109591I-4591J0D01*
G01X2099591Y1390315D02*
G03X2099591I-4591J0D01*
G01Y1400315D02*
G03X2099591I-4591J0D01*
G01Y1410315D02*
G03X2099591I-4591J0D01*
G01Y1420315D02*
G03X2099591I-4591J0D01*
G01Y1430315D02*
G03X2099591I-4591J0D01*
G01Y1440315D02*
G03X2099591I-4591J0D01*
G01Y1450315D02*
G03X2099591I-4591J0D01*
G01Y1460315D02*
G03X2099591I-4591J0D01*
G01Y1470315D02*
G03X2099591I-4591J0D01*
G01Y1480315D02*
G03X2099591I-4591J0D01*
G01Y1490315D02*
G03X2099591I-4591J0D01*
G01Y1500315D02*
G03X2099591I-4591J0D01*
G01Y1510315D02*
G03X2099591I-4591J0D01*
G01Y1520315D02*
G03X2099591I-4591J0D01*
G01Y1530315D02*
G03X2099591I-4591J0D01*
G01Y1540315D02*
G03X2099591I-4591J0D01*
G01Y1550315D02*
G03X2099591I-4591J0D01*
G01Y1560315D02*
G03X2099591I-4591J0D01*
G01Y1570315D02*
G03X2099591I-4591J0D01*
G01Y1580315D02*
G03X2099591I-4591J0D01*
G01Y1590315D02*
G03X2099591I-4591J0D01*
G01Y1600315D02*
G03X2099591I-4591J0D01*
G01Y1610315D02*
G03X2099591I-4591J0D01*
G01Y1620315D02*
G03X2099591I-4591J0D01*
G01Y1630315D02*
G03X2099591I-4591J0D01*
G01Y1640315D02*
G03X2099591I-4591J0D01*
G01Y1650315D02*
G03X2099591I-4591J0D01*
G01Y1660315D02*
G03X2099591I-4591J0D01*
G01Y1670315D02*
G03X2099591I-4591J0D01*
G01Y1680315D02*
G03X2099591I-4591J0D01*
G01Y1690315D02*
G03X2099591I-4591J0D01*
G01Y1703315D02*
Y1697315D01*
X2098000Y1695724D02*
G03X2099591Y1697315I0J1591D01*
G01X2098000Y1695724D02*
X2092000D01*
X2090409Y1697315D02*
G03X2092000Y1695724I1591J-0D01*
G01X2090409Y1697315D02*
Y1703315D01*
X2092000Y1704906D02*
G03X2090409Y1703315I0J-1591D01*
G01X2092000Y1704906D02*
X2098000D01*
X2099591Y1703315D02*
G03X2098000Y1704906I-1591J-0D01*
G01X1899591Y1390315D02*
G03X1899591I-4591J0D01*
G01Y1400315D02*
G03X1899591I-4591J0D01*
G01Y1410315D02*
G03X1899591I-4591J0D01*
G01Y1420315D02*
G03X1899591I-4591J0D01*
G01Y1430315D02*
G03X1899591I-4591J0D01*
G01Y1440315D02*
G03X1899591I-4591J0D01*
G01Y1450315D02*
G03X1899591I-4591J0D01*
G01Y1460315D02*
G03X1899591I-4591J0D01*
G01Y1470315D02*
G03X1899591I-4591J0D01*
G01Y1480315D02*
G03X1899591I-4591J0D01*
G01Y1490315D02*
G03X1899591I-4591J0D01*
G01Y1500315D02*
G03X1899591I-4591J0D01*
G01Y1510315D02*
G03X1899591I-4591J0D01*
G01Y1520315D02*
G03X1899591I-4591J0D01*
G01Y1530315D02*
G03X1899591I-4591J0D01*
G01Y1540315D02*
G03X1899591I-4591J0D01*
G01Y1550315D02*
G03X1899591I-4591J0D01*
G01Y1560315D02*
G03X1899591I-4591J0D01*
G01Y1570315D02*
G03X1899591I-4591J0D01*
G01Y1580315D02*
G03X1899591I-4591J0D01*
G01Y1590315D02*
G03X1899591I-4591J0D01*
G01Y1600315D02*
G03X1899591I-4591J0D01*
G01Y1610315D02*
G03X1899591I-4591J0D01*
G01Y1620315D02*
G03X1899591I-4591J0D01*
G01X1909591Y1390315D02*
G03X1909591I-4591J0D01*
G01Y1400315D02*
G03X1909591I-4591J0D01*
G01Y1410315D02*
G03X1909591I-4591J0D01*
G01Y1420315D02*
G03X1909591I-4591J0D01*
G01Y1430315D02*
G03X1909591I-4591J0D01*
G01Y1440315D02*
G03X1909591I-4591J0D01*
G01Y1450315D02*
G03X1909591I-4591J0D01*
G01Y1460315D02*
G03X1909591I-4591J0D01*
G01Y1470315D02*
G03X1909591I-4591J0D01*
G01Y1480315D02*
G03X1909591I-4591J0D01*
G01Y1490315D02*
G03X1909591I-4591J0D01*
G01Y1500315D02*
G03X1909591I-4591J0D01*
G01Y1510315D02*
G03X1909591I-4591J0D01*
G01Y1520315D02*
G03X1909591I-4591J0D01*
G01Y1530315D02*
G03X1909591I-4591J0D01*
G01Y1540315D02*
G03X1909591I-4591J0D01*
G01Y1550315D02*
G03X1909591I-4591J0D01*
G01Y1560315D02*
G03X1909591I-4591J0D01*
G01Y1570315D02*
G03X1909591I-4591J0D01*
G01Y1580315D02*
G03X1909591I-4591J0D01*
G01Y1590315D02*
G03X1909591I-4591J0D01*
G01Y1600315D02*
G03X1909591I-4591J0D01*
G01Y1610315D02*
G03X1909591I-4591J0D01*
G01X2162321Y1809943D02*
Y1803443D01*
X2160730Y1801852D02*
G03X2162321Y1803443I0J1591D01*
G01X2160730Y1801852D02*
X2159630D01*
G03X2159507Y1801289I0J-295*
G01X2155454D02*
G03X2159507I2026J-4396D01*
G01X2155454D02*
G03X2155330Y1801852I-124J268D01*
G01X2154230*
X2152640Y1803443D02*
G03X2154230Y1801852I1590J-0D01*
G01X2152640Y1803443D02*
Y1809943D01*
X2154230Y1811533D02*
G03X2152640Y1809943I0J-1590D01*
G01X2154230Y1811533D02*
X2160730D01*
X2162321Y1809943D02*
G03X2160730Y1811533I-1591J-0D01*
G01X1998031Y1569276D02*
G03Y1576394I0J3559D01*
G01Y1569276D02*
X1979528D01*
Y1576394D02*
G03Y1569276I-0J-3559D01*
G01Y1576394D02*
X1998031D01*
X1844546Y1802254D02*
G03X1840493I-2026J4396D01*
G01X1844546D02*
G03X1844670Y1801691I124J-268D01*
G01X1845770*
X1847360Y1800100D02*
G03X1845770Y1801691I-1590J0D01*
G01X1847360Y1800100D02*
Y1793600D01*
X1845770Y1792010D02*
G03X1847360Y1793600I-0J1590D01*
G01X1845770Y1792010D02*
X1839270D01*
X1837679Y1793600D02*
G03X1839270Y1792010I1591J0D01*
G01X1837679Y1793600D02*
Y1800100D01*
X1839270Y1801691D02*
G03X1837679Y1800100I-0J-1591D01*
G01X1839270Y1801691D02*
X1840370D01*
G03X1840493Y1802254I-0J295*
G01X2078740Y1767863D02*
X2137559D01*
X2078740Y1766800D02*
X2137559D01*
X2078740Y1765737D02*
X2137559D01*
X2078740Y1764674D02*
X2137559D01*
X2078740Y1763611D02*
X2137559D01*
X2078740Y1762548D02*
X2137559D01*
X2078740Y1761485D02*
X2137559D01*
X2078740Y1760422D02*
X2137559D01*
X2078740Y1759359D02*
X2137559D01*
X2078740Y1758296D02*
X2137559D01*
X2078740Y1757233D02*
X2137559D01*
X2078740Y1756170D02*
X2137559D01*
X2078740Y1755107D02*
X2137559D01*
X2078740Y1754044D02*
X2137559D01*
X2078740Y1752981D02*
X2137559D01*
X2078740Y1751918D02*
X2137559D01*
X2078740Y1750855D02*
X2137559D01*
X2078740Y1749792D02*
X2137559D01*
X2078740Y1748729D02*
X2137559D01*
X2078740Y1747666D02*
X2137559D01*
X2078740Y1746603D02*
X2137559D01*
X2078740Y1745540D02*
X2137559D01*
X2078740Y1744477D02*
X2137559D01*
X2078740Y1743414D02*
X2137559D01*
X2078740Y1742351D02*
X2137559D01*
X2078740Y1741288D02*
X2137559D01*
X2078740Y1740225D02*
X2137559D01*
X2078740Y1739162D02*
X2137559D01*
X2078740Y1738099D02*
X2137559D01*
X2078740Y1737036D02*
X2137559D01*
X2078740Y1735973D02*
X2137559D01*
X2078740Y1734910D02*
X2137559D01*
X2078740Y1733847D02*
X2137559D01*
X2078740Y1732784D02*
X2137559D01*
X2078740Y1731721D02*
X2137559D01*
X2078740Y1730658D02*
X2137559D01*
X2078740Y1729595D02*
X2137559D01*
X2078740Y1728532D02*
X2137559D01*
X2078740Y1727469D02*
X2137559D01*
X2078740Y1726406D02*
X2137559D01*
X2078740Y1725343D02*
X2137559D01*
X2078740Y1724280D02*
X2137559D01*
X2078740Y1723217D02*
X2137559D01*
X2078740Y1722154D02*
X2137559D01*
X2078740Y1721091D02*
X2137559D01*
X2078740Y1720028D02*
X2137559D01*
X2078740Y1718965D02*
X2137559D01*
X2078740Y1717902D02*
X2137559D01*
X2078740Y1716839D02*
X2137559D01*
X2078740Y1715776D02*
X2137559D01*
X2078740Y1714713D02*
X2137559D01*
X2078740Y1713650D02*
X2137559D01*
X2078740Y1712587D02*
X2137559D01*
X2078740Y1711524D02*
X2137559D01*
X2078740Y1710461D02*
X2137559D01*
X2078740Y1709398D02*
X2137559D01*
X2078740Y1708335D02*
X2137559D01*
X2078740Y1707272D02*
X2137559D01*
X2078740Y1706209D02*
X2137559D01*
X2078740Y1705146D02*
X2137559D01*
X2107622Y1704083D02*
X2137559D01*
X2108709Y1703020D02*
X2137559D01*
X2109287Y1701957D02*
X2137559D01*
X2109554Y1700894D02*
X2137559D01*
X2109565Y1699831D02*
X2137559D01*
X2109322Y1698768D02*
X2137559D01*
X2108777Y1697705D02*
X2137559D01*
X2107754Y1696642D02*
X2137559D01*
X2078740Y1695579D02*
X2137559D01*
X2106850Y1694516D02*
X2137559D01*
X2108350Y1693453D02*
X2137559D01*
X2109095Y1692390D02*
X2137559D01*
X2109478Y1691327D02*
X2137559D01*
X2109590Y1690264D02*
X2137559D01*
X2109453Y1689201D02*
X2137559D01*
X2109042Y1688138D02*
X2137559D01*
X2108253Y1687075D02*
X2137559D01*
X2106601Y1686012D02*
X2137559D01*
X2078740Y1684949D02*
X2137559D01*
X2107884Y1683886D02*
X2137559D01*
X2108845Y1682823D02*
X2137559D01*
X2109357Y1681760D02*
X2137559D01*
X2109575Y1680698D02*
X2137559D01*
X2109540Y1679635D02*
X2137559D01*
X2109247Y1678572D02*
X2137559D01*
X2108633Y1677509D02*
X2137559D01*
X2107470Y1676446D02*
X2137559D01*
X2078740Y1675383D02*
X2137559D01*
X2107244Y1674320D02*
X2137559D01*
X2108524Y1673257D02*
X2137559D01*
X2109189Y1672194D02*
X2137559D01*
X2109518Y1671131D02*
X2137559D01*
X2109584Y1670068D02*
X2137559D01*
X2109400Y1669005D02*
X2137559D01*
X2108929Y1667942D02*
X2137559D01*
X2108044Y1666879D02*
X2137559D01*
X2105911Y1665816D02*
X2137559D01*
X2106175Y1664753D02*
X2137559D01*
X2108112Y1663690D02*
X2137559D01*
X2108966Y1662627D02*
X2137559D01*
X2109417Y1661564D02*
X2137559D01*
X2109587Y1660501D02*
X2137559D01*
X2109506Y1659438D02*
X2137559D01*
X2109160Y1658375D02*
X2137559D01*
X2108472Y1657312D02*
X2137559D01*
X2107130Y1656249D02*
X2137559D01*
X2078740Y1655186D02*
X2137559D01*
X2107564Y1654123D02*
X2137559D01*
X2108680Y1653060D02*
X2137559D01*
X2109271Y1651997D02*
X2137559D01*
X2109549Y1650934D02*
X2137559D01*
X2109569Y1649871D02*
X2137559D01*
X2109336Y1648808D02*
X2137559D01*
X2108804Y1647745D02*
X2137559D01*
X2107806Y1646682D02*
X2137559D01*
X2078740Y1645619D02*
X2137559D01*
X2106758Y1644556D02*
X2137559D01*
X2108313Y1643493D02*
X2137559D01*
X2109074Y1642430D02*
X2137559D01*
X2109468Y1641367D02*
X2137559D01*
X2109591Y1640304D02*
X2137559D01*
X2109463Y1639241D02*
X2137559D01*
X2109063Y1638178D02*
X2137559D01*
X2108291Y1637115D02*
X2137559D01*
X2106703Y1636052D02*
X2137559D01*
X2078740Y1634989D02*
X2137559D01*
X2107835Y1633926D02*
X2137559D01*
X2108819Y1632863D02*
X2137559D01*
X2109344Y1631800D02*
X2137559D01*
X2109571Y1630737D02*
X2137559D01*
X2109546Y1629674D02*
X2137559D01*
X2109263Y1628611D02*
X2137559D01*
X2108663Y1627548D02*
X2137559D01*
X2107531Y1626485D02*
X2137559D01*
X2078740Y1625422D02*
X2137559D01*
X2107172Y1624359D02*
X2137559D01*
X2108491Y1623296D02*
X2137559D01*
X2109171Y1622233D02*
X2137559D01*
X2109510Y1621170D02*
X2137559D01*
X2109586Y1620107D02*
X2137559D01*
X2109411Y1619044D02*
X2137559D01*
X2108953Y1617981D02*
X2137559D01*
X2108088Y1616918D02*
X2137559D01*
X2106087Y1615855D02*
X2137559D01*
X2106015Y1614792D02*
X2137559D01*
X2108069Y1613729D02*
X2137559D01*
X2108943Y1612666D02*
X2137559D01*
X2109406Y1611603D02*
X2137559D01*
X2109585Y1610540D02*
X2137559D01*
X2109513Y1609477D02*
X2137559D01*
X2109178Y1608414D02*
X2137559D01*
X2108506Y1607351D02*
X2137559D01*
X2107204Y1606288D02*
X2137559D01*
X2078740Y1605225D02*
X2137559D01*
X2107505Y1604162D02*
X2137559D01*
X2108650Y1603099D02*
X2137559D01*
X2109256Y1602036D02*
X2137559D01*
X2109543Y1600973D02*
X2137559D01*
X2109573Y1599910D02*
X2137559D01*
X2109350Y1598847D02*
X2137559D01*
X2108830Y1597784D02*
X2137559D01*
X2107856Y1596721D02*
X2137559D01*
X2078740Y1595658D02*
X2137559D01*
X2106659Y1594595D02*
X2137559D01*
X2108275Y1593532D02*
X2137559D01*
X2109054Y1592469D02*
X2137559D01*
X2109459Y1591406D02*
X2137559D01*
X2109590Y1590343D02*
X2137559D01*
X2109472Y1589280D02*
X2137559D01*
X2109083Y1588217D02*
X2137559D01*
X2108329Y1587154D02*
X2137559D01*
X2106798Y1586091D02*
X2137559D01*
X2078740Y1585028D02*
X2137559D01*
X2107784Y1583965D02*
X2137559D01*
X2108792Y1582902D02*
X2137559D01*
X2109330Y1581839D02*
X2137559D01*
X2109567Y1580776D02*
X2137559D01*
X2109551Y1579713D02*
X2137559D01*
X2109278Y1578650D02*
X2137559D01*
X2108692Y1577587D02*
X2137559D01*
X2107589Y1576524D02*
X2137559D01*
X2078740Y1575461D02*
X2137559D01*
X2107098Y1574398D02*
X2137559D01*
X2108457Y1573335D02*
X2137559D01*
X2109152Y1572272D02*
X2137559D01*
X2109503Y1571209D02*
X2137559D01*
X2109587Y1570146D02*
X2137559D01*
X2109422Y1569083D02*
X2137559D01*
X2108976Y1568020D02*
X2137559D01*
X2108130Y1566957D02*
X2137559D01*
X2106238Y1565894D02*
X2137559D01*
X2105822Y1564831D02*
X2137559D01*
X2108024Y1563768D02*
X2137559D01*
X2108919Y1562705D02*
X2137559D01*
X2109394Y1561642D02*
X2137559D01*
X2109583Y1560579D02*
X2137559D01*
X2109521Y1559516D02*
X2137559D01*
X2109196Y1558453D02*
X2137559D01*
X2108538Y1557390D02*
X2137559D01*
X2107274Y1556327D02*
X2137559D01*
X2078740Y1555264D02*
X2137559D01*
X2107443Y1554201D02*
X2137559D01*
X2108620Y1553138D02*
X2137559D01*
X2109240Y1552075D02*
X2137559D01*
X2109537Y1551012D02*
X2137559D01*
X2109576Y1549949D02*
X2137559D01*
X2109363Y1548886D02*
X2137559D01*
X2108856Y1547823D02*
X2137559D01*
X2107905Y1546760D02*
X2137559D01*
X2078740Y1545698D02*
X2137559D01*
X2106554Y1544635D02*
X2137559D01*
X2108235Y1543572D02*
X2137559D01*
X2109033Y1542509D02*
X2137559D01*
X2109449Y1541446D02*
X2137559D01*
X2109590Y1540383D02*
X2137559D01*
X2109481Y1539320D02*
X2137559D01*
X2109103Y1538257D02*
X2137559D01*
X2108366Y1537194D02*
X2137559D01*
X2106888Y1536131D02*
X2137559D01*
X2078740Y1535068D02*
X2137559D01*
X2107731Y1534005D02*
X2137559D01*
X2108765Y1532942D02*
X2137559D01*
X2109316Y1531879D02*
X2137559D01*
X2109563Y1530816D02*
X2137559D01*
X2109556Y1529753D02*
X2137559D01*
X2109293Y1528690D02*
X2137559D01*
X2108721Y1527627D02*
X2137559D01*
X2107646Y1526564D02*
X2137559D01*
X2078740Y1525501D02*
X2137559D01*
X2107019Y1524438D02*
X2137559D01*
X2108422Y1523375D02*
X2137559D01*
X2109134Y1522312D02*
X2137559D01*
X2109495Y1521249D02*
X2137559D01*
X2109589Y1520186D02*
X2137559D01*
X2109433Y1519123D02*
X2137559D01*
X2108998Y1518060D02*
X2137559D01*
X2108172Y1516997D02*
X2137559D01*
X2106370Y1515934D02*
X2137559D01*
X2105564Y1514871D02*
X2137559D01*
X2107979Y1513808D02*
X2137559D01*
X2108895Y1512745D02*
X2137559D01*
X2109382Y1511682D02*
X2137559D01*
X2109581Y1510619D02*
X2137559D01*
X2109527Y1509556D02*
X2137559D01*
X2109213Y1508493D02*
X2137559D01*
X2108571Y1507430D02*
X2137559D01*
X2107342Y1506367D02*
X2137559D01*
X2078740Y1505304D02*
X2137559D01*
X2107379Y1504241D02*
X2137559D01*
X2108589Y1503178D02*
X2137559D01*
X2109223Y1502115D02*
X2137559D01*
X2109531Y1501052D02*
X2137559D01*
X2109579Y1499989D02*
X2137559D01*
X2109375Y1498926D02*
X2137559D01*
X2108881Y1497863D02*
X2137559D01*
X2107953Y1496800D02*
X2137559D01*
X2105338Y1495737D02*
X2137559D01*
X2106440Y1494674D02*
X2137559D01*
X2108195Y1493611D02*
X2137559D01*
X2109011Y1492548D02*
X2137559D01*
X2109439Y1491485D02*
X2137559D01*
X2109589Y1490422D02*
X2137559D01*
X2109490Y1489359D02*
X2137559D01*
X2109123Y1488296D02*
X2137559D01*
X2108402Y1487233D02*
X2137559D01*
X2106973Y1486170D02*
X2137559D01*
X2078740Y1485107D02*
X2137559D01*
X2107677Y1484044D02*
X2137559D01*
X2108737Y1482981D02*
X2137559D01*
X2109302Y1481918D02*
X2137559D01*
X2109559Y1480855D02*
X2137559D01*
X2109561Y1479792D02*
X2137559D01*
X2109308Y1478729D02*
X2137559D01*
X2108749Y1477666D02*
X2137559D01*
X2107701Y1476603D02*
X2137559D01*
X2078740Y1475540D02*
X2137559D01*
X2106937Y1474477D02*
X2137559D01*
X2108387Y1473414D02*
X2137559D01*
X2109114Y1472351D02*
X2137559D01*
X2109486Y1471288D02*
X2137559D01*
X2109590Y1470225D02*
X2137559D01*
X2109443Y1469162D02*
X2137559D01*
X2109020Y1468099D02*
X2137559D01*
X2108213Y1467036D02*
X2137559D01*
X2106490Y1465973D02*
X2137559D01*
X2078740Y1464910D02*
X2137559D01*
X2107932Y1463847D02*
X2137559D01*
X2108870Y1462784D02*
X2137559D01*
X2109370Y1461721D02*
X2137559D01*
X2109578Y1460658D02*
X2137559D01*
X2109534Y1459595D02*
X2137559D01*
X2109230Y1458532D02*
X2137559D01*
X2108602Y1457469D02*
X2137559D01*
X2107407Y1456406D02*
X2137559D01*
X2078740Y1455343D02*
X2137559D01*
X2107313Y1454280D02*
X2137559D01*
X2108557Y1453217D02*
X2137559D01*
X2109206Y1452154D02*
X2137559D01*
X2109524Y1451091D02*
X2137559D01*
X2109582Y1450028D02*
X2137559D01*
X2109388Y1448965D02*
X2137559D01*
X2108905Y1447902D02*
X2137559D01*
X2107999Y1446839D02*
X2137559D01*
X2105688Y1445776D02*
X2137559D01*
X2106315Y1444713D02*
X2137559D01*
X2108154Y1443650D02*
X2137559D01*
X2108989Y1442587D02*
X2137559D01*
X2109428Y1441524D02*
X2137559D01*
X2109588Y1440461D02*
X2137559D01*
X2109498Y1439398D02*
X2137559D01*
X2109142Y1438335D02*
X2137559D01*
X2108437Y1437272D02*
X2137559D01*
X2107054Y1436209D02*
X2137559D01*
X1828740Y1435146D02*
X2137559D01*
X2107622Y1434083D02*
X2137559D01*
X2108709Y1433020D02*
X2137559D01*
X2109287Y1431957D02*
X2137559D01*
X2109554Y1430894D02*
X2137559D01*
X2109565Y1429831D02*
X2137559D01*
X2109322Y1428768D02*
X2137559D01*
X2108777Y1427705D02*
X2137559D01*
X2107754Y1426642D02*
X2137559D01*
X1828740Y1425579D02*
X2137559D01*
X2106850Y1424516D02*
X2137559D01*
X2108350Y1423453D02*
X2137559D01*
X2109095Y1422390D02*
X2137559D01*
X2109478Y1421327D02*
X2137559D01*
X2109590Y1420264D02*
X2137559D01*
X2109453Y1419201D02*
X2137559D01*
X2109042Y1418138D02*
X2137559D01*
X2108253Y1417075D02*
X2137559D01*
X2106601Y1416012D02*
X2137559D01*
X1828740Y1414949D02*
X2137559D01*
X2107884Y1413886D02*
X2137559D01*
X2108845Y1412823D02*
X2137559D01*
X2109357Y1411760D02*
X2137559D01*
X2109575Y1410698D02*
X2137559D01*
X2109540Y1409635D02*
X2137559D01*
X2109247Y1408572D02*
X2137559D01*
X2108633Y1407509D02*
X2137559D01*
X2107470Y1406446D02*
X2137559D01*
X1828740Y1405383D02*
X2137559D01*
X2107244Y1404320D02*
X2137559D01*
X2108524Y1403257D02*
X2137559D01*
X2109189Y1402194D02*
X2137559D01*
X2109518Y1401131D02*
X2137559D01*
X2109584Y1400068D02*
X2137559D01*
X2109400Y1399005D02*
X2137559D01*
X2108929Y1397942D02*
X2137559D01*
X2108044Y1396879D02*
X2137559D01*
X2105911Y1395816D02*
X2137559D01*
X2106175Y1394753D02*
X2137559D01*
X2108112Y1393690D02*
X2137559D01*
X2108966Y1392627D02*
X2137559D01*
X2109417Y1391564D02*
X2137559D01*
X2109587Y1390501D02*
X2137559D01*
X2109506Y1389438D02*
X2137559D01*
X2109160Y1388375D02*
X2137559D01*
X2108472Y1387312D02*
X2137559D01*
X2107130Y1386249D02*
X2137559D01*
X1832141Y1385186D02*
X2137559D01*
X1832276Y1384123D02*
X2137559D01*
X1832291Y1383060D02*
X2137559D01*
X1832185Y1381997D02*
X2137559D01*
X1831955Y1380934D02*
X2137559D01*
X1831590Y1379871D02*
X2137559D01*
X1831074Y1378808D02*
X2137559D01*
X1830375Y1377745D02*
X2137559D01*
X1829436Y1376682D02*
X2137559D01*
X2095338Y1495737D02*
X2104662D01*
X2095564Y1514871D02*
X2104436D01*
X2095688Y1445776D02*
X2104312D01*
X2095822Y1564831D02*
X2104178D01*
X2095911Y1665816D02*
X2104089D01*
X2095911Y1395816D02*
X2104089D01*
X2096015Y1614792D02*
X2103985D01*
X2096087Y1615855D02*
X2103913D01*
X2096175Y1664753D02*
X2103825D01*
X2096175Y1394753D02*
X2103825D01*
X2096238Y1565894D02*
X2103762D01*
X2096315Y1444713D02*
X2103685D01*
X2096370Y1515934D02*
X2103630D01*
X2096440Y1494674D02*
X2103560D01*
X2096490Y1465973D02*
X2103510D01*
X2096554Y1544635D02*
X2103446D01*
X2096601Y1686012D02*
X2103399D01*
X2096601Y1416012D02*
X2103399D01*
X2096659Y1594595D02*
X2103341D01*
X2096703Y1636052D02*
X2103297D01*
X2096758Y1644556D02*
X2103242D01*
X2096798Y1586091D02*
X2103202D01*
X2096850Y1694516D02*
X2103150D01*
X2096850Y1424516D02*
X2103150D01*
X2096888Y1536131D02*
X2103112D01*
X2096937Y1474477D02*
X2103063D01*
X2096973Y1486170D02*
X2103027D01*
X2097019Y1524438D02*
X2102981D01*
X2097054Y1436209D02*
X2102946D01*
X2097098Y1574398D02*
X2102902D01*
X2097130Y1656249D02*
X2102870D01*
X2097130Y1386249D02*
X2102870D01*
X2097172Y1624359D02*
X2102828D01*
X2097204Y1606288D02*
X2102796D01*
X2097244Y1674320D02*
X2102756D01*
X2097244Y1404320D02*
X2102756D01*
X2097274Y1556327D02*
X2102726D01*
X2097313Y1454280D02*
X2102687D01*
X2097342Y1506367D02*
X2102658D01*
X2097379Y1504241D02*
X2102621D01*
X2097407Y1456406D02*
X2102593D01*
X2097443Y1554201D02*
X2102557D01*
X2097470Y1676446D02*
X2102530D01*
X2097470Y1406446D02*
X2102530D01*
X2097505Y1604162D02*
X2102495D01*
X2097531Y1626485D02*
X2102469D01*
X2097564Y1654123D02*
X2102436D01*
X2097589Y1576524D02*
X2102411D01*
X2099393Y1704083D02*
X2102378D01*
X2097622Y1434083D02*
X2102378D01*
X2097646Y1526564D02*
X2102354D01*
X2097677Y1484044D02*
X2102323D01*
X2097701Y1476603D02*
X2102299D01*
X2097731Y1534005D02*
X2102269D01*
X2099441Y1696642D02*
X2102246D01*
X2097754Y1426642D02*
X2102246D01*
X2097784Y1583965D02*
X2102216D01*
X2097806Y1646682D02*
X2102194D01*
X2097835Y1633926D02*
X2102165D01*
X2097856Y1596721D02*
X2102144D01*
X2097884Y1683886D02*
X2102116D01*
X2097884Y1413886D02*
X2102116D01*
X2097905Y1546760D02*
X2102095D01*
X2097932Y1463847D02*
X2102068D01*
X2097953Y1496800D02*
X2102047D01*
X2097979Y1513808D02*
X2102021D01*
X2097999Y1446839D02*
X2102001D01*
X2098024Y1563768D02*
X2101976D01*
X2098044Y1666879D02*
X2101956D01*
X2098044Y1396879D02*
X2101956D01*
X2098069Y1613729D02*
X2101931D01*
X2098088Y1616918D02*
X2101912D01*
X2098112Y1663690D02*
X2101888D01*
X2098112Y1393690D02*
X2101888D01*
X2098130Y1566957D02*
X2101870D01*
X2098154Y1443650D02*
X2101846D01*
X2098172Y1516997D02*
X2101828D01*
X2098195Y1493611D02*
X2101805D01*
X2098213Y1467036D02*
X2101787D01*
X2098235Y1543572D02*
X2101765D01*
X2098253Y1687075D02*
X2101747D01*
X2098253Y1417075D02*
X2101747D01*
X2098275Y1593532D02*
X2101725D01*
X2098291Y1637115D02*
X2101709D01*
X2098313Y1643493D02*
X2101687D01*
X2098329Y1587154D02*
X2101671D01*
X2098350Y1693453D02*
X2101650D01*
X2098350Y1423453D02*
X2101650D01*
X2098366Y1537194D02*
X2101634D01*
X2098387Y1473414D02*
X2101613D01*
X2098402Y1487233D02*
X2101598D01*
X2098422Y1523375D02*
X2101578D01*
X2098437Y1437272D02*
X2101563D01*
X2098457Y1573335D02*
X2101543D01*
X2098472Y1657312D02*
X2101528D01*
X2098472Y1387312D02*
X2101528D01*
X2098491Y1623296D02*
X2101509D01*
X2098506Y1607351D02*
X2101494D01*
X2098524Y1673257D02*
X2101476D01*
X2098524Y1403257D02*
X2101476D01*
X2098538Y1557390D02*
X2101462D01*
X2098557Y1453217D02*
X2101443D01*
X2098571Y1507430D02*
X2101429D01*
X2098589Y1503178D02*
X2101411D01*
X2098602Y1457469D02*
X2101398D01*
X2098620Y1553138D02*
X2101380D01*
X2098633Y1677509D02*
X2101367D01*
X2098633Y1407509D02*
X2101367D01*
X2098650Y1603099D02*
X2101350D01*
X2098663Y1627548D02*
X2101337D01*
X2098680Y1653060D02*
X2101320D01*
X2098692Y1577587D02*
X2101308D01*
X2099591Y1703020D02*
X2101291D01*
X2098709Y1433020D02*
X2101291D01*
X2098721Y1527627D02*
X2101279D01*
X2098737Y1482981D02*
X2101263D01*
X2098749Y1477666D02*
X2101251D01*
X2098765Y1532942D02*
X2101235D01*
X2099591Y1697705D02*
X2101223D01*
X2098777Y1427705D02*
X2101223D01*
X2098792Y1582902D02*
X2101208D01*
X2098804Y1647745D02*
X2101196D01*
X2098819Y1632863D02*
X2101181D01*
X2098830Y1597784D02*
X2101170D01*
X2098845Y1682823D02*
X2101155D01*
X2098845Y1412823D02*
X2101155D01*
X2098856Y1547823D02*
X2101144D01*
X2098870Y1462784D02*
X2101130D01*
X2098881Y1497863D02*
X2101119D01*
X2098895Y1512745D02*
X2101105D01*
X2098905Y1447902D02*
X2101095D01*
X2098919Y1562705D02*
X2101081D01*
X2098929Y1667942D02*
X2101071D01*
X2098929Y1397942D02*
X2101071D01*
X2098943Y1612666D02*
X2101057D01*
X2098953Y1617981D02*
X2101047D01*
X2098966Y1662627D02*
X2101034D01*
X2098966Y1392627D02*
X2101034D01*
X2098976Y1568020D02*
X2101024D01*
X2098989Y1442587D02*
X2101011D01*
X2098998Y1518060D02*
X2101002D01*
X2099011Y1492548D02*
X2100989D01*
X2099020Y1468099D02*
X2100980D01*
X2099033Y1542509D02*
X2100967D01*
X2099042Y1688138D02*
X2100958D01*
X2099042Y1418138D02*
X2100958D01*
X2099054Y1592469D02*
X2100946D01*
X2099063Y1638178D02*
X2100937D01*
X2099074Y1642430D02*
X2100926D01*
X2099083Y1588217D02*
X2100917D01*
X2099095Y1692390D02*
X2100905D01*
X2099095Y1422390D02*
X2100905D01*
X2099103Y1538257D02*
X2100897D01*
X2099114Y1472351D02*
X2100886D01*
X2099123Y1488296D02*
X2100877D01*
X2099134Y1522312D02*
X2100866D01*
X2099142Y1438335D02*
X2100858D01*
X2099152Y1572272D02*
X2100848D01*
X2099160Y1658375D02*
X2100840D01*
X2099160Y1388375D02*
X2100840D01*
X2099171Y1622233D02*
X2100829D01*
X2099178Y1608414D02*
X2100822D01*
X2099189Y1672194D02*
X2100811D01*
X2099189Y1402194D02*
X2100811D01*
X2099196Y1558453D02*
X2100804D01*
X2099206Y1452154D02*
X2100794D01*
X2099213Y1508493D02*
X2100787D01*
X2099223Y1502115D02*
X2100777D01*
X2099230Y1458532D02*
X2100770D01*
X2099240Y1552075D02*
X2100760D01*
X2099247Y1678572D02*
X2100753D01*
X2099247Y1408572D02*
X2100753D01*
X2099256Y1602036D02*
X2100744D01*
X2099263Y1628611D02*
X2100737D01*
X2099271Y1651997D02*
X2100729D01*
X2099278Y1578650D02*
X2100722D01*
X2099591Y1701957D02*
X2100713D01*
X2099287Y1431957D02*
X2100713D01*
X2099293Y1528690D02*
X2100707D01*
X2099302Y1481918D02*
X2100698D01*
X2099308Y1478729D02*
X2100692D01*
X2099316Y1531879D02*
X2100684D01*
X2099591Y1698768D02*
X2100678D01*
X2099322Y1428768D02*
X2100678D01*
X2099330Y1581839D02*
X2100670D01*
X2099336Y1648808D02*
X2100664D01*
X2099344Y1631800D02*
X2100656D01*
X2099350Y1598847D02*
X2100650D01*
X2099357Y1681760D02*
X2100643D01*
X2099357Y1411760D02*
X2100643D01*
X2099363Y1548886D02*
X2100637D01*
X2099370Y1461721D02*
X2100630D01*
X2099375Y1498926D02*
X2100625D01*
X2099382Y1511682D02*
X2100618D01*
X2099388Y1448965D02*
X2100612D01*
X2099394Y1561642D02*
X2100606D01*
X2099400Y1669005D02*
X2100600D01*
X2099400Y1399005D02*
X2100600D01*
X2099406Y1611603D02*
X2100594D01*
X2099411Y1619044D02*
X2100589D01*
X2099417Y1661564D02*
X2100583D01*
X2099417Y1391564D02*
X2100583D01*
X2099422Y1569083D02*
X2100578D01*
X2099428Y1441524D02*
X2100572D01*
X2099433Y1519123D02*
X2100567D01*
X2099439Y1491485D02*
X2100561D01*
X2099443Y1469162D02*
X2100557D01*
X2099449Y1541446D02*
X2100551D01*
X2099453Y1689201D02*
X2100547D01*
X2099453Y1419201D02*
X2100547D01*
X2099459Y1591406D02*
X2100541D01*
X2099463Y1639241D02*
X2100537D01*
X2099468Y1641367D02*
X2100532D01*
X2099472Y1589280D02*
X2100528D01*
X2099478Y1691327D02*
X2100522D01*
X2099478Y1421327D02*
X2100522D01*
X2099481Y1539320D02*
X2100519D01*
X2099486Y1471288D02*
X2100514D01*
X2099490Y1489359D02*
X2100510D01*
X2099495Y1521249D02*
X2100505D01*
X2099498Y1439398D02*
X2100502D01*
X2099503Y1571209D02*
X2100497D01*
X2099506Y1659438D02*
X2100494D01*
X2099506Y1389438D02*
X2100494D01*
X2099510Y1621170D02*
X2100490D01*
X2099513Y1609477D02*
X2100487D01*
X2099518Y1671131D02*
X2100482D01*
X2099518Y1401131D02*
X2100482D01*
X2099521Y1559516D02*
X2100479D01*
X2099524Y1451091D02*
X2100476D01*
X2099527Y1509556D02*
X2100473D01*
X2099531Y1501052D02*
X2100469D01*
X2099534Y1459595D02*
X2100466D01*
X2099537Y1551012D02*
X2100463D01*
X2099540Y1679635D02*
X2100460D01*
X2099540Y1409635D02*
X2100460D01*
X2099543Y1600973D02*
X2100457D01*
X2099546Y1629674D02*
X2100454D01*
X2099549Y1650934D02*
X2100451D01*
X2099551Y1579713D02*
X2100449D01*
X2099591Y1700894D02*
X2100446D01*
X2099554Y1430894D02*
X2100446D01*
X2099556Y1529753D02*
X2100444D01*
X2099559Y1480855D02*
X2100441D01*
X2099561Y1479792D02*
X2100439D01*
X2099563Y1530816D02*
X2100437D01*
X2099591Y1699831D02*
X2100435D01*
X2099565Y1429831D02*
X2100435D01*
X2099567Y1580776D02*
X2100433D01*
X2099569Y1649871D02*
X2100431D01*
X2099571Y1630737D02*
X2100429D01*
X2099573Y1599910D02*
X2100427D01*
X2099575Y1680698D02*
X2100425D01*
X2099575Y1410698D02*
X2100425D01*
X2099576Y1549949D02*
X2100424D01*
X2099578Y1460658D02*
X2100422D01*
X2099579Y1499989D02*
X2100421D01*
X2099581Y1510619D02*
X2100419D01*
X2099582Y1450028D02*
X2100418D01*
X2099583Y1560579D02*
X2100417D01*
X2099584Y1670068D02*
X2100416D01*
X2099584Y1400068D02*
X2100416D01*
X2099585Y1610540D02*
X2100415D01*
X2099586Y1620107D02*
X2100414D01*
X2099587Y1660501D02*
X2100413D01*
X2099587Y1390501D02*
X2100413D01*
X2099587Y1570146D02*
X2100413D01*
X2099588Y1440461D02*
X2100412D01*
X2099589Y1520186D02*
X2100411D01*
X2099589Y1490422D02*
X2100411D01*
X2099590Y1470225D02*
X2100410D01*
X2099590Y1540383D02*
X2100410D01*
X2099590Y1690264D02*
X2100410D01*
X2099590Y1420264D02*
X2100410D01*
X2099590Y1590343D02*
X2100410D01*
X2099591Y1640304D02*
X2100409D01*
X2078740Y1495737D02*
X2094662D01*
X2078740Y1514871D02*
X2094436D01*
X1905688Y1445776D02*
X2094312D01*
X2078740Y1564831D02*
X2094178D01*
X2078740Y1665816D02*
X2094089D01*
X1905911Y1395816D02*
X2094089D01*
X2078740Y1614792D02*
X2093985D01*
X2078740Y1615855D02*
X2093913D01*
X2078740Y1664753D02*
X2093825D01*
X1906175Y1394753D02*
X2093825D01*
X2078740Y1565894D02*
X2093762D01*
X1906315Y1444713D02*
X2093685D01*
X2078740Y1515934D02*
X2093630D01*
X2078740Y1494674D02*
X2093560D01*
X2078740Y1465973D02*
X2093510D01*
X2078740Y1544635D02*
X2093446D01*
X2078740Y1686012D02*
X2093399D01*
X1906601Y1416012D02*
X2093399D01*
X2078740Y1594595D02*
X2093341D01*
X2078740Y1636052D02*
X2093297D01*
X2078740Y1644556D02*
X2093242D01*
X2078740Y1586091D02*
X2093202D01*
X2078740Y1694516D02*
X2093150D01*
X1906850Y1424516D02*
X2093150D01*
X2078740Y1536131D02*
X2093112D01*
X2078740Y1474477D02*
X2093063D01*
X2078740Y1486170D02*
X2093027D01*
X2078740Y1524438D02*
X2092981D01*
X1907054Y1436209D02*
X2092946D01*
X2078740Y1574398D02*
X2092902D01*
X2078740Y1656249D02*
X2092870D01*
X1907130Y1386249D02*
X2092870D01*
X2078740Y1624359D02*
X2092828D01*
X2078740Y1606288D02*
X2092796D01*
X2078740Y1674320D02*
X2092756D01*
X1907244Y1404320D02*
X2092756D01*
X2078740Y1556327D02*
X2092726D01*
X1907313Y1454280D02*
X2092687D01*
X2078740Y1506367D02*
X2092658D01*
X2078740Y1504241D02*
X2092621D01*
X2078740Y1456406D02*
X2092593D01*
X2078740Y1554201D02*
X2092557D01*
X2078740Y1676446D02*
X2092530D01*
X1907470Y1406446D02*
X2092530D01*
X2078740Y1604162D02*
X2092495D01*
X2078740Y1626485D02*
X2092469D01*
X2078740Y1654123D02*
X2092436D01*
X2078740Y1576524D02*
X2092411D01*
X1907622Y1434083D02*
X2092378D01*
X2078740Y1526564D02*
X2092354D01*
X2078740Y1484044D02*
X2092323D01*
X2078740Y1476603D02*
X2092299D01*
X2078740Y1534005D02*
X2092269D01*
X1907754Y1426642D02*
X2092246D01*
X2078740Y1583965D02*
X2092216D01*
X2078740Y1646682D02*
X2092194D01*
X2078740Y1633926D02*
X2092165D01*
X2078740Y1596721D02*
X2092144D01*
X2078740Y1683886D02*
X2092116D01*
X1907884Y1413886D02*
X2092116D01*
X2078740Y1546760D02*
X2092095D01*
X2078740Y1463847D02*
X2092068D01*
X2078740Y1496800D02*
X2092047D01*
X2078740Y1513808D02*
X2092021D01*
X1907999Y1446839D02*
X2092001D01*
X2078740Y1563768D02*
X2091976D01*
X2078740Y1666879D02*
X2091956D01*
X1908044Y1396879D02*
X2091956D01*
X2078740Y1613729D02*
X2091931D01*
X2078740Y1616918D02*
X2091912D01*
X2078740Y1663690D02*
X2091888D01*
X1908112Y1393690D02*
X2091888D01*
X2078740Y1566957D02*
X2091870D01*
X1908154Y1443650D02*
X2091846D01*
X2078740Y1516997D02*
X2091828D01*
X2078740Y1493611D02*
X2091805D01*
X2078740Y1467036D02*
X2091787D01*
X2078740Y1543572D02*
X2091765D01*
X2078740Y1687075D02*
X2091747D01*
X1908253Y1417075D02*
X2091747D01*
X2078740Y1593532D02*
X2091725D01*
X2078740Y1637115D02*
X2091709D01*
X2078740Y1643493D02*
X2091687D01*
X2078740Y1587154D02*
X2091671D01*
X2078740Y1693453D02*
X2091650D01*
X1908350Y1423453D02*
X2091650D01*
X2078740Y1537194D02*
X2091634D01*
X2078740Y1473414D02*
X2091613D01*
X2078740Y1487233D02*
X2091598D01*
X2078740Y1523375D02*
X2091578D01*
X1908437Y1437272D02*
X2091563D01*
X2078740Y1573335D02*
X2091543D01*
X2078740Y1657312D02*
X2091528D01*
X1908472Y1387312D02*
X2091528D01*
X2078740Y1623296D02*
X2091509D01*
X2078740Y1607351D02*
X2091494D01*
X2078740Y1673257D02*
X2091476D01*
X1908524Y1403257D02*
X2091476D01*
X2078740Y1557390D02*
X2091462D01*
X1908557Y1453217D02*
X2091443D01*
X2078740Y1507430D02*
X2091429D01*
X2078740Y1503178D02*
X2091411D01*
X2078740Y1457469D02*
X2091398D01*
X2078740Y1553138D02*
X2091380D01*
X2078740Y1677509D02*
X2091367D01*
X1908633Y1407509D02*
X2091367D01*
X2078740Y1603099D02*
X2091350D01*
X2078740Y1627548D02*
X2091337D01*
X2078740Y1653060D02*
X2091320D01*
X2078740Y1577587D02*
X2091308D01*
X1908709Y1433020D02*
X2091291D01*
X2078740Y1527627D02*
X2091279D01*
X2078740Y1482981D02*
X2091263D01*
X2078740Y1477666D02*
X2091251D01*
X2078740Y1532942D02*
X2091235D01*
X1908777Y1427705D02*
X2091223D01*
X2078740Y1582902D02*
X2091208D01*
X2078740Y1647745D02*
X2091196D01*
X2078740Y1632863D02*
X2091181D01*
X2078740Y1597784D02*
X2091170D01*
X2078740Y1682823D02*
X2091155D01*
X1908845Y1412823D02*
X2091155D01*
X2078740Y1547823D02*
X2091144D01*
X2078740Y1462784D02*
X2091130D01*
X2078740Y1497863D02*
X2091119D01*
X2078740Y1512745D02*
X2091105D01*
X1908905Y1447902D02*
X2091095D01*
X2078740Y1562705D02*
X2091081D01*
X2078740Y1667942D02*
X2091071D01*
X1908929Y1397942D02*
X2091071D01*
X2078740Y1612666D02*
X2091057D01*
X2078740Y1617981D02*
X2091047D01*
X2078740Y1662627D02*
X2091034D01*
X1908966Y1392627D02*
X2091034D01*
X2078740Y1568020D02*
X2091024D01*
X1908989Y1442587D02*
X2091011D01*
X2078740Y1518060D02*
X2091002D01*
X2078740Y1492548D02*
X2090989D01*
X2078740Y1468099D02*
X2090980D01*
X2078740Y1542509D02*
X2090967D01*
X2078740Y1688138D02*
X2090958D01*
X1909042Y1418138D02*
X2090958D01*
X2078740Y1592469D02*
X2090946D01*
X2078740Y1638178D02*
X2090937D01*
X2078740Y1642430D02*
X2090926D01*
X2078740Y1588217D02*
X2090917D01*
X2078740Y1692390D02*
X2090905D01*
X1909095Y1422390D02*
X2090905D01*
X2078740Y1538257D02*
X2090897D01*
X2078740Y1472351D02*
X2090886D01*
X2078740Y1488296D02*
X2090877D01*
X2078740Y1522312D02*
X2090866D01*
X1909142Y1438335D02*
X2090858D01*
X2078740Y1572272D02*
X2090848D01*
X2078740Y1658375D02*
X2090840D01*
X1909160Y1388375D02*
X2090840D01*
X2078740Y1622233D02*
X2090829D01*
X2078740Y1608414D02*
X2090822D01*
X2078740Y1672194D02*
X2090811D01*
X1909189Y1402194D02*
X2090811D01*
X2078740Y1558453D02*
X2090804D01*
X1909206Y1452154D02*
X2090794D01*
X2078740Y1508493D02*
X2090787D01*
X2078740Y1502115D02*
X2090777D01*
X2078740Y1458532D02*
X2090770D01*
X2078740Y1552075D02*
X2090760D01*
X2078740Y1678572D02*
X2090753D01*
X1909247Y1408572D02*
X2090753D01*
X2078740Y1602036D02*
X2090744D01*
X2078740Y1628611D02*
X2090737D01*
X2078740Y1651997D02*
X2090729D01*
X2078740Y1578650D02*
X2090722D01*
X1909287Y1431957D02*
X2090713D01*
X2078740Y1528690D02*
X2090707D01*
X2078740Y1481918D02*
X2090698D01*
X2078740Y1478729D02*
X2090692D01*
X2078740Y1531879D02*
X2090684D01*
X1909322Y1428768D02*
X2090678D01*
X2078740Y1581839D02*
X2090670D01*
X2078740Y1648808D02*
X2090664D01*
X2078740Y1631800D02*
X2090656D01*
X2078740Y1598847D02*
X2090650D01*
X2078740Y1681760D02*
X2090643D01*
X1909357Y1411760D02*
X2090643D01*
X2078740Y1548886D02*
X2090637D01*
X2078740Y1461721D02*
X2090630D01*
X2078740Y1498926D02*
X2090625D01*
X2078740Y1511682D02*
X2090618D01*
X1909388Y1448965D02*
X2090612D01*
X2078740Y1704083D02*
X2090607D01*
X2078740Y1561642D02*
X2090606D01*
X2078740Y1669005D02*
X2090600D01*
X1909400Y1399005D02*
X2090600D01*
X2078740Y1611603D02*
X2090594D01*
X2078740Y1619044D02*
X2090589D01*
X2078740Y1661564D02*
X2090583D01*
X1909417Y1391564D02*
X2090583D01*
X2078740Y1569083D02*
X2090578D01*
X1909428Y1441524D02*
X2090572D01*
X2078740Y1519123D02*
X2090567D01*
X2078740Y1491485D02*
X2090561D01*
X2078740Y1696642D02*
X2090559D01*
X2078740Y1469162D02*
X2090557D01*
X2078740Y1541446D02*
X2090551D01*
X2078740Y1689201D02*
X2090547D01*
X1909453Y1419201D02*
X2090547D01*
X2078740Y1591406D02*
X2090541D01*
X2078740Y1639241D02*
X2090537D01*
X2078740Y1641367D02*
X2090532D01*
X2078740Y1589280D02*
X2090528D01*
X2078740Y1691327D02*
X2090522D01*
X1909478Y1421327D02*
X2090522D01*
X2078740Y1539320D02*
X2090519D01*
X2078740Y1471288D02*
X2090514D01*
X2078740Y1489359D02*
X2090510D01*
X2078740Y1521249D02*
X2090505D01*
X1909498Y1439398D02*
X2090502D01*
X2078740Y1571209D02*
X2090497D01*
X2078740Y1659438D02*
X2090494D01*
X1909506Y1389438D02*
X2090494D01*
X2078740Y1621170D02*
X2090490D01*
X2078740Y1609477D02*
X2090487D01*
X2078740Y1671131D02*
X2090482D01*
X1909518Y1401131D02*
X2090482D01*
X2078740Y1559516D02*
X2090479D01*
X1909524Y1451091D02*
X2090476D01*
X2078740Y1509556D02*
X2090473D01*
X2078740Y1501052D02*
X2090469D01*
X2078740Y1459595D02*
X2090466D01*
X2078740Y1551012D02*
X2090463D01*
X2078740Y1679635D02*
X2090460D01*
X1909540Y1409635D02*
X2090460D01*
X2078740Y1600973D02*
X2090457D01*
X2078740Y1629674D02*
X2090454D01*
X2078740Y1650934D02*
X2090451D01*
X2078740Y1579713D02*
X2090449D01*
X1909554Y1430894D02*
X2090446D01*
X2078740Y1529753D02*
X2090444D01*
X2078740Y1480855D02*
X2090441D01*
X2078740Y1479792D02*
X2090439D01*
X2078740Y1530816D02*
X2090437D01*
X1909565Y1429831D02*
X2090435D01*
X2078740Y1580776D02*
X2090433D01*
X2078740Y1649871D02*
X2090431D01*
X2078740Y1630737D02*
X2090429D01*
X2078740Y1599910D02*
X2090427D01*
X2078740Y1680698D02*
X2090425D01*
X1909575Y1410698D02*
X2090425D01*
X2078740Y1549949D02*
X2090424D01*
X2078740Y1460658D02*
X2090422D01*
X2078740Y1499989D02*
X2090421D01*
X2078740Y1510619D02*
X2090419D01*
X1909582Y1450028D02*
X2090418D01*
X2078740Y1560579D02*
X2090417D01*
X2078740Y1670068D02*
X2090416D01*
X1909584Y1400068D02*
X2090416D01*
X2078740Y1610540D02*
X2090415D01*
X2078740Y1620107D02*
X2090414D01*
X2078740Y1660501D02*
X2090413D01*
X1909587Y1390501D02*
X2090413D01*
X2078740Y1570146D02*
X2090413D01*
X1909588Y1440461D02*
X2090412D01*
X2078740Y1520186D02*
X2090411D01*
X2078740Y1490422D02*
X2090411D01*
X2078740Y1470225D02*
X2090410D01*
X2078740Y1540383D02*
X2090410D01*
X2078740Y1690264D02*
X2090410D01*
X1909590Y1420264D02*
X2090410D01*
X2078740Y1590343D02*
X2090410D01*
X2078740Y1640304D02*
X2090409D01*
X2078740Y1703020D02*
X2090409D01*
X2078740Y1701957D02*
X2090409D01*
X2078740Y1700894D02*
X2090409D01*
X2078740Y1699831D02*
X2090409D01*
X2078740Y1698768D02*
X2090409D01*
X2078740Y1697705D02*
X2090409D01*
X1828740Y1769989D02*
X1950059D01*
X1828740Y1768926D02*
X1950059D01*
X1828740Y1767863D02*
X1950059D01*
X1828740Y1766800D02*
X1950059D01*
X1828740Y1765737D02*
X1950059D01*
X1939341Y1637115D02*
X1950059D01*
X1940056Y1636052D02*
X1950059D01*
X1940242Y1634989D02*
X1950059D01*
X1940015Y1633926D02*
X1950059D01*
X1939227Y1632863D02*
X1950059D01*
X1909344Y1631800D02*
X1950059D01*
X1909571Y1630737D02*
X1950059D01*
X1909546Y1629674D02*
X1950059D01*
X1945570Y1628611D02*
X1950059D01*
X1946860Y1627548D02*
X1950059D01*
X1947284Y1626485D02*
X1950059D01*
X1947273Y1625422D02*
X1950059D01*
X1946818Y1624359D02*
X1950059D01*
X1945406Y1623296D02*
X1950059D01*
X1909171Y1622233D02*
X1950059D01*
X1909510Y1621170D02*
X1950059D01*
X1909586Y1620107D02*
X1950059D01*
X1909411Y1619044D02*
X1950059D01*
X1908953Y1617981D02*
X1950059D01*
X1908088Y1616918D02*
X1950059D01*
X1906087Y1615855D02*
X1950059D01*
X1906015Y1614792D02*
X1950059D01*
X1908069Y1613729D02*
X1950059D01*
X1908943Y1612666D02*
X1950059D01*
X1909406Y1611603D02*
X1950059D01*
X1909585Y1610540D02*
X1950059D01*
X1909513Y1609477D02*
X1950059D01*
X1909178Y1608414D02*
X1950059D01*
X1908506Y1607351D02*
X1950059D01*
X1907204Y1606288D02*
X1950059D01*
X1828740Y1605225D02*
X1950059D01*
X1907505Y1604162D02*
X1950059D01*
X1908650Y1603099D02*
X1950059D01*
X1909256Y1602036D02*
X1950059D01*
X1909543Y1600973D02*
X1950059D01*
X1909573Y1599910D02*
X1950059D01*
X1909350Y1598847D02*
X1950059D01*
X1908830Y1597784D02*
X1950059D01*
X1907856Y1596721D02*
X1950059D01*
X1828740Y1595658D02*
X1950059D01*
X1906659Y1594595D02*
X1950059D01*
X1908275Y1593532D02*
X1950059D01*
X1909054Y1592469D02*
X1950059D01*
X1909459Y1591406D02*
X1950059D01*
X1909590Y1590343D02*
X1950059D01*
X1909472Y1589280D02*
X1950059D01*
X1909083Y1588217D02*
X1950059D01*
X1908329Y1587154D02*
X1950059D01*
X1906798Y1586091D02*
X1950059D01*
X1828740Y1585028D02*
X1950059D01*
X1907784Y1583965D02*
X1950059D01*
X1908792Y1582902D02*
X1950059D01*
X1909330Y1581839D02*
X1950059D01*
X1909567Y1580776D02*
X1950059D01*
X1909551Y1579713D02*
X1950059D01*
X1909278Y1578650D02*
X1950059D01*
X1908692Y1577587D02*
X1950059D01*
X1907589Y1576524D02*
X1950059D01*
X1828740Y1575461D02*
X1950059D01*
X1907098Y1574398D02*
X1950059D01*
X1908457Y1573335D02*
X1950059D01*
X1909152Y1572272D02*
X1950059D01*
X1909503Y1571209D02*
X1950059D01*
X1909587Y1570146D02*
X1950059D01*
X1909422Y1569083D02*
X1950059D01*
X1908976Y1568020D02*
X1950059D01*
X1908130Y1566957D02*
X1950059D01*
X1906238Y1565894D02*
X1950059D01*
X1905822Y1564831D02*
X1950059D01*
X1908024Y1563768D02*
X1950059D01*
X1908919Y1562705D02*
X1950059D01*
X1909394Y1561642D02*
X1950059D01*
X1909583Y1560579D02*
X1950059D01*
X1909521Y1559516D02*
X1950059D01*
X1909196Y1558453D02*
X1950059D01*
X1908538Y1557390D02*
X1950059D01*
X1907274Y1556327D02*
X1950059D01*
X1828740Y1555264D02*
X1950059D01*
X1907443Y1554201D02*
X1950059D01*
X1908620Y1553138D02*
X1950059D01*
X1909240Y1552075D02*
X1950059D01*
X1909537Y1551012D02*
X1950059D01*
X1909576Y1549949D02*
X1950059D01*
X1909363Y1548886D02*
X1950059D01*
X1908856Y1547823D02*
X1950059D01*
X1907905Y1546760D02*
X1950059D01*
X1828740Y1545698D02*
X1950059D01*
X1906554Y1544635D02*
X1950059D01*
X1908235Y1543572D02*
X1950059D01*
X1909033Y1542509D02*
X1950059D01*
X1909449Y1541446D02*
X1950059D01*
X1909590Y1540383D02*
X1950059D01*
X1909481Y1539320D02*
X1950059D01*
X1909103Y1538257D02*
X1950059D01*
X1908366Y1537194D02*
X1950059D01*
X1906888Y1536131D02*
X1950059D01*
X1828740Y1535068D02*
X1950059D01*
X1907731Y1534005D02*
X1950059D01*
X1908765Y1532942D02*
X1950059D01*
X1909316Y1531879D02*
X1950059D01*
X1909563Y1530816D02*
X1950059D01*
X1909556Y1529753D02*
X1950059D01*
X1909293Y1528690D02*
X1950059D01*
X1908721Y1527627D02*
X1950059D01*
X1907646Y1526564D02*
X1950059D01*
X1828740Y1525501D02*
X1950059D01*
X1907019Y1524438D02*
X1950059D01*
X1908422Y1523375D02*
X1950059D01*
X1909134Y1522312D02*
X1950059D01*
X1909495Y1521249D02*
X1950059D01*
X1909589Y1520186D02*
X1950059D01*
X1909433Y1519123D02*
X1950059D01*
X1908998Y1518060D02*
X1950059D01*
X1908172Y1516997D02*
X1950059D01*
X1906370Y1515934D02*
X1950059D01*
X1905564Y1514871D02*
X1950059D01*
X1907979Y1513808D02*
X1950059D01*
X1908895Y1512745D02*
X1950059D01*
X1909382Y1511682D02*
X1950059D01*
X1909581Y1510619D02*
X1950059D01*
X1909527Y1509556D02*
X1950059D01*
X1909213Y1508493D02*
X1950059D01*
X1908571Y1507430D02*
X1950059D01*
X1907342Y1506367D02*
X1950059D01*
X1828740Y1505304D02*
X1950059D01*
X1907379Y1504241D02*
X1950059D01*
X1908589Y1503178D02*
X1950059D01*
X1909223Y1502115D02*
X1950059D01*
X1909531Y1501052D02*
X1950059D01*
X1909579Y1499989D02*
X1950059D01*
X1938460Y1638178D02*
X1949923D01*
X1908491Y1623296D02*
X1943571D01*
X1909661Y1628611D02*
X1943407D01*
X1909082Y1632863D02*
X1935576D01*
X1909375Y1498926D02*
X1917559D01*
X1908881Y1497863D02*
X1917559D01*
X1907953Y1496800D02*
X1917559D01*
X1905338Y1495737D02*
X1917559D01*
X1906440Y1494674D02*
X1917559D01*
X1908195Y1493611D02*
X1917559D01*
X1909011Y1492548D02*
X1917559D01*
X1909439Y1491485D02*
X1917559D01*
X1909589Y1490422D02*
X1917559D01*
X1909490Y1489359D02*
X1917559D01*
X1909123Y1488296D02*
X1917559D01*
X1908402Y1487233D02*
X1917559D01*
X1906973Y1486170D02*
X1917559D01*
X1828740Y1485107D02*
X1917559D01*
X1907677Y1484044D02*
X1917559D01*
X1908737Y1482981D02*
X1917559D01*
X1909302Y1481918D02*
X1917559D01*
X1909559Y1480855D02*
X1917559D01*
X1909561Y1479792D02*
X1917559D01*
X1909308Y1478729D02*
X1917559D01*
X1908749Y1477666D02*
X1917559D01*
X1907701Y1476603D02*
X1917559D01*
X1828740Y1475540D02*
X1917559D01*
X1906937Y1474477D02*
X1917559D01*
X1908387Y1473414D02*
X1917559D01*
X1909114Y1472351D02*
X1917559D01*
X1909486Y1471288D02*
X1917559D01*
X1909590Y1470225D02*
X1917559D01*
X1909443Y1469162D02*
X1917559D01*
X1909020Y1468099D02*
X1917559D01*
X1908213Y1467036D02*
X1917559D01*
X1906490Y1465973D02*
X1917559D01*
X1828740Y1464910D02*
X1917559D01*
X1907932Y1463847D02*
X1917559D01*
X1908870Y1462784D02*
X1917559D01*
X1909370Y1461721D02*
X1917559D01*
X1909578Y1460658D02*
X1917559D01*
X1909534Y1459595D02*
X1917559D01*
X1909230Y1458532D02*
X1917559D01*
X1908602Y1457469D02*
X1917559D01*
X1907407Y1456406D02*
X1917559D01*
X1828740Y1455343D02*
X1917559D01*
X1907172Y1624359D02*
X1907492D01*
X1828740Y1625422D02*
X1906937D01*
X1895338Y1495737D02*
X1904662D01*
X1895564Y1514871D02*
X1904436D01*
X1895688Y1445776D02*
X1904312D01*
X1895822Y1564831D02*
X1904178D01*
X1895911Y1395816D02*
X1904089D01*
X1896015Y1614792D02*
X1903985D01*
X1896087Y1615855D02*
X1903913D01*
X1896175Y1394753D02*
X1903825D01*
X1896238Y1565894D02*
X1903762D01*
X1896315Y1444713D02*
X1903685D01*
X1896370Y1515934D02*
X1903630D01*
X1896440Y1494674D02*
X1903560D01*
X1896490Y1465973D02*
X1903510D01*
X1896554Y1544635D02*
X1903446D01*
X1896601Y1416012D02*
X1903399D01*
X1896659Y1594595D02*
X1903341D01*
X1896798Y1586091D02*
X1903202D01*
X1896850Y1424516D02*
X1903150D01*
X1896888Y1536131D02*
X1903112D01*
X1896937Y1474477D02*
X1903063D01*
X1896973Y1486170D02*
X1903027D01*
X1897019Y1524438D02*
X1902981D01*
X1897054Y1436209D02*
X1902946D01*
X1897098Y1574398D02*
X1902902D01*
X1897130Y1386249D02*
X1902870D01*
X1897172Y1624359D02*
X1902828D01*
X1897204Y1606288D02*
X1902796D01*
X1897244Y1404320D02*
X1902756D01*
X1897274Y1556327D02*
X1902726D01*
X1897313Y1454280D02*
X1902687D01*
X1897342Y1506367D02*
X1902658D01*
X1897379Y1504241D02*
X1902621D01*
X1897407Y1456406D02*
X1902593D01*
X1897443Y1554201D02*
X1902557D01*
X1897470Y1406446D02*
X1902530D01*
X1897505Y1604162D02*
X1902495D01*
X1897531Y1626485D02*
X1902469D01*
X1897589Y1576524D02*
X1902411D01*
X1897622Y1434083D02*
X1902378D01*
X1897646Y1526564D02*
X1902354D01*
X1897677Y1484044D02*
X1902323D01*
X1897701Y1476603D02*
X1902299D01*
X1897731Y1534005D02*
X1902269D01*
X1897754Y1426642D02*
X1902246D01*
X1897784Y1583965D02*
X1902216D01*
X1897856Y1596721D02*
X1902144D01*
X1897884Y1413886D02*
X1902116D01*
X1897905Y1546760D02*
X1902095D01*
X1897932Y1463847D02*
X1902068D01*
X1897953Y1496800D02*
X1902047D01*
X1897979Y1513808D02*
X1902021D01*
X1897999Y1446839D02*
X1902001D01*
X1898024Y1563768D02*
X1901976D01*
X1898044Y1396879D02*
X1901956D01*
X1898069Y1613729D02*
X1901931D01*
X1898088Y1616918D02*
X1901912D01*
X1898112Y1393690D02*
X1901888D01*
X1898130Y1566957D02*
X1901870D01*
X1898154Y1443650D02*
X1901846D01*
X1898172Y1516997D02*
X1901828D01*
X1898195Y1493611D02*
X1901805D01*
X1898213Y1467036D02*
X1901787D01*
X1898235Y1543572D02*
X1901765D01*
X1898253Y1417075D02*
X1901747D01*
X1898275Y1593532D02*
X1901725D01*
X1898329Y1587154D02*
X1901671D01*
X1898350Y1423453D02*
X1901650D01*
X1898366Y1537194D02*
X1901634D01*
X1898387Y1473414D02*
X1901613D01*
X1898402Y1487233D02*
X1901598D01*
X1898422Y1523375D02*
X1901578D01*
X1898437Y1437272D02*
X1901563D01*
X1898457Y1573335D02*
X1901543D01*
X1898472Y1387312D02*
X1901528D01*
X1898491Y1623296D02*
X1901509D01*
X1898506Y1607351D02*
X1901494D01*
X1898524Y1403257D02*
X1901476D01*
X1898538Y1557390D02*
X1901462D01*
X1898557Y1453217D02*
X1901443D01*
X1898571Y1507430D02*
X1901429D01*
X1898589Y1503178D02*
X1901411D01*
X1898602Y1457469D02*
X1901398D01*
X1898620Y1553138D02*
X1901380D01*
X1898633Y1407509D02*
X1901367D01*
X1898650Y1603099D02*
X1901350D01*
X1898663Y1627548D02*
X1901337D01*
X1898692Y1577587D02*
X1901308D01*
X1898709Y1433020D02*
X1901291D01*
X1898721Y1527627D02*
X1901279D01*
X1898737Y1482981D02*
X1901263D01*
X1898749Y1477666D02*
X1901251D01*
X1898765Y1532942D02*
X1901235D01*
X1898777Y1427705D02*
X1901223D01*
X1898792Y1582902D02*
X1901208D01*
X1898830Y1597784D02*
X1901170D01*
X1898845Y1412823D02*
X1901155D01*
X1898856Y1547823D02*
X1901144D01*
X1898870Y1462784D02*
X1901130D01*
X1898881Y1497863D02*
X1901119D01*
X1898895Y1512745D02*
X1901105D01*
X1898905Y1447902D02*
X1901095D01*
X1898919Y1562705D02*
X1901081D01*
X1898929Y1397942D02*
X1901071D01*
X1898943Y1612666D02*
X1901057D01*
X1898953Y1617981D02*
X1901047D01*
X1898966Y1392627D02*
X1901034D01*
X1898976Y1568020D02*
X1901024D01*
X1898989Y1442587D02*
X1901011D01*
X1898998Y1518060D02*
X1901002D01*
X1899011Y1492548D02*
X1900989D01*
X1899020Y1468099D02*
X1900980D01*
X1899033Y1542509D02*
X1900967D01*
X1899042Y1418138D02*
X1900958D01*
X1899054Y1592469D02*
X1900946D01*
X1899083Y1588217D02*
X1900917D01*
X1900505Y1632863D02*
X1900910D01*
X1899095Y1422390D02*
X1900905D01*
X1899103Y1538257D02*
X1900897D01*
X1899114Y1472351D02*
X1900886D01*
X1899123Y1488296D02*
X1900877D01*
X1899134Y1522312D02*
X1900866D01*
X1899142Y1438335D02*
X1900858D01*
X1899152Y1572272D02*
X1900848D01*
X1899160Y1388375D02*
X1900840D01*
X1899171Y1622233D02*
X1900829D01*
X1899178Y1608414D02*
X1900822D01*
X1899189Y1402194D02*
X1900811D01*
X1899196Y1558453D02*
X1900804D01*
X1899206Y1452154D02*
X1900794D01*
X1899213Y1508493D02*
X1900787D01*
X1899223Y1502115D02*
X1900777D01*
X1899230Y1458532D02*
X1900770D01*
X1899240Y1552075D02*
X1900760D01*
X1899247Y1408572D02*
X1900753D01*
X1899256Y1602036D02*
X1900744D01*
X1899263Y1628611D02*
X1900737D01*
X1899278Y1578650D02*
X1900722D01*
X1899287Y1431957D02*
X1900713D01*
X1899293Y1528690D02*
X1900707D01*
X1899302Y1481918D02*
X1900698D01*
X1899308Y1478729D02*
X1900692D01*
X1899316Y1531879D02*
X1900684D01*
X1899322Y1428768D02*
X1900678D01*
X1899330Y1581839D02*
X1900670D01*
X1899476Y1631800D02*
X1900656D01*
X1899350Y1598847D02*
X1900650D01*
X1899357Y1411760D02*
X1900643D01*
X1899363Y1548886D02*
X1900637D01*
X1899370Y1461721D02*
X1900630D01*
X1899375Y1498926D02*
X1900625D01*
X1899382Y1511682D02*
X1900618D01*
X1899388Y1448965D02*
X1900612D01*
X1899394Y1561642D02*
X1900606D01*
X1899400Y1399005D02*
X1900600D01*
X1899406Y1611603D02*
X1900594D01*
X1899411Y1619044D02*
X1900589D01*
X1899417Y1391564D02*
X1900583D01*
X1899422Y1569083D02*
X1900578D01*
X1899428Y1441524D02*
X1900572D01*
X1899433Y1519123D02*
X1900567D01*
X1899439Y1491485D02*
X1900561D01*
X1899443Y1469162D02*
X1900557D01*
X1899449Y1541446D02*
X1900551D01*
X1899453Y1419201D02*
X1900547D01*
X1899459Y1591406D02*
X1900541D01*
X1899472Y1589280D02*
X1900528D01*
X1899478Y1421327D02*
X1900522D01*
X1899481Y1539320D02*
X1900519D01*
X1899486Y1471288D02*
X1900514D01*
X1899490Y1489359D02*
X1900510D01*
X1899495Y1521249D02*
X1900505D01*
X1899498Y1439398D02*
X1900502D01*
X1899503Y1571209D02*
X1900497D01*
X1899506Y1389438D02*
X1900494D01*
X1899510Y1621170D02*
X1900490D01*
X1899513Y1609477D02*
X1900487D01*
X1899518Y1401131D02*
X1900482D01*
X1899521Y1559516D02*
X1900479D01*
X1899524Y1451091D02*
X1900476D01*
X1899527Y1509556D02*
X1900473D01*
X1899531Y1501052D02*
X1900469D01*
X1899534Y1459595D02*
X1900466D01*
X1899537Y1551012D02*
X1900463D01*
X1899540Y1409635D02*
X1900460D01*
X1899543Y1600973D02*
X1900457D01*
X1899546Y1629674D02*
X1900454D01*
X1899551Y1579713D02*
X1900449D01*
X1899554Y1430894D02*
X1900446D01*
X1899556Y1529753D02*
X1900444D01*
X1899559Y1480855D02*
X1900441D01*
X1899561Y1479792D02*
X1900439D01*
X1899563Y1530816D02*
X1900437D01*
X1899565Y1429831D02*
X1900435D01*
X1899567Y1580776D02*
X1900433D01*
X1899571Y1630737D02*
X1900429D01*
X1899573Y1599910D02*
X1900427D01*
X1899575Y1410698D02*
X1900425D01*
X1899576Y1549949D02*
X1900424D01*
X1899578Y1460658D02*
X1900422D01*
X1899579Y1499989D02*
X1900421D01*
X1899581Y1510619D02*
X1900419D01*
X1899582Y1450028D02*
X1900418D01*
X1899583Y1560579D02*
X1900417D01*
X1899584Y1400068D02*
X1900416D01*
X1899585Y1610540D02*
X1900415D01*
X1899586Y1620107D02*
X1900414D01*
X1899587Y1390501D02*
X1900413D01*
X1899587Y1570146D02*
X1900413D01*
X1899588Y1440461D02*
X1900412D01*
X1899589Y1520186D02*
X1900411D01*
X1899589Y1490422D02*
X1900411D01*
X1899590Y1470225D02*
X1900410D01*
X1899590Y1540383D02*
X1900410D01*
X1899590Y1420264D02*
X1900410D01*
X1899590Y1590343D02*
X1900410D01*
X1896703Y1636052D02*
X1897627D01*
X1828740Y1645619D02*
X1897347D01*
X1828740Y1634989D02*
X1896717D01*
X1828740Y1495737D02*
X1894662D01*
X1828740Y1514871D02*
X1894436D01*
X1828740Y1445776D02*
X1894312D01*
X1828740Y1564831D02*
X1894178D01*
X1828740Y1395816D02*
X1894089D01*
X1828740Y1614792D02*
X1893985D01*
X1828740Y1615855D02*
X1893913D01*
X1828740Y1394753D02*
X1893825D01*
X1828740Y1565894D02*
X1893762D01*
X1828740Y1444713D02*
X1893685D01*
X1828740Y1515934D02*
X1893630D01*
X1828740Y1494674D02*
X1893560D01*
X1828740Y1465973D02*
X1893510D01*
X1828740Y1544635D02*
X1893446D01*
X1828740Y1416012D02*
X1893399D01*
X1828740Y1594595D02*
X1893341D01*
X1828740Y1636052D02*
X1893297D01*
X1828740Y1644556D02*
X1893242D01*
X1828740Y1586091D02*
X1893202D01*
X1828740Y1424516D02*
X1893150D01*
X1828740Y1536131D02*
X1893112D01*
X1828740Y1474477D02*
X1893063D01*
X1828740Y1486170D02*
X1893027D01*
X1828740Y1524438D02*
X1892981D01*
X1828740Y1436209D02*
X1892946D01*
X1828740Y1574398D02*
X1892902D01*
X1831880Y1386249D02*
X1892870D01*
X1828740Y1624359D02*
X1892828D01*
X1828740Y1606288D02*
X1892796D01*
X1828740Y1404320D02*
X1892756D01*
X1828740Y1556327D02*
X1892726D01*
X1828740Y1454280D02*
X1892687D01*
X1828740Y1506367D02*
X1892658D01*
X1828740Y1504241D02*
X1892621D01*
X1828740Y1456406D02*
X1892593D01*
X1828740Y1554201D02*
X1892557D01*
X1828740Y1406446D02*
X1892530D01*
X1828740Y1604162D02*
X1892495D01*
X1828740Y1626485D02*
X1892469D01*
X1828740Y1576524D02*
X1892411D01*
X1828740Y1434083D02*
X1892378D01*
X1828740Y1526564D02*
X1892354D01*
X1828740Y1484044D02*
X1892323D01*
X1828740Y1476603D02*
X1892299D01*
X1828740Y1534005D02*
X1892269D01*
X1828740Y1426642D02*
X1892246D01*
X1828740Y1583965D02*
X1892216D01*
X1828740Y1646682D02*
X1892194D01*
X1828740Y1633926D02*
X1892165D01*
X1828740Y1596721D02*
X1892144D01*
X1828740Y1413886D02*
X1892116D01*
X1828740Y1546760D02*
X1892095D01*
X1828740Y1463847D02*
X1892068D01*
X1828740Y1496800D02*
X1892047D01*
X1828740Y1513808D02*
X1892021D01*
X1828740Y1446839D02*
X1892001D01*
X1828740Y1563768D02*
X1891976D01*
X1828740Y1396879D02*
X1891956D01*
X1828740Y1613729D02*
X1891931D01*
X1828740Y1616918D02*
X1891912D01*
X1828740Y1393690D02*
X1891888D01*
X1828740Y1566957D02*
X1891870D01*
X1828740Y1443650D02*
X1891846D01*
X1828740Y1516997D02*
X1891828D01*
X1828740Y1493611D02*
X1891805D01*
X1828740Y1467036D02*
X1891787D01*
X1828740Y1543572D02*
X1891765D01*
X1828740Y1417075D02*
X1891747D01*
X1828740Y1593532D02*
X1891725D01*
X1828740Y1637115D02*
X1891709D01*
X1828740Y1643493D02*
X1891687D01*
X1828740Y1587154D02*
X1891671D01*
X1828740Y1423453D02*
X1891650D01*
X1828740Y1537194D02*
X1891634D01*
X1828740Y1473414D02*
X1891613D01*
X1828740Y1487233D02*
X1891598D01*
X1828740Y1523375D02*
X1891578D01*
X1828740Y1437272D02*
X1891563D01*
X1828740Y1573335D02*
X1891543D01*
X1831482Y1387312D02*
X1891528D01*
X1828740Y1623296D02*
X1891509D01*
X1828740Y1607351D02*
X1891494D01*
X1828740Y1403257D02*
X1891476D01*
X1828740Y1557390D02*
X1891462D01*
X1828740Y1453217D02*
X1891443D01*
X1828740Y1507430D02*
X1891429D01*
X1828740Y1503178D02*
X1891411D01*
X1828740Y1457469D02*
X1891398D01*
X1828740Y1553138D02*
X1891380D01*
X1828740Y1407509D02*
X1891367D01*
X1828740Y1603099D02*
X1891350D01*
X1828740Y1627548D02*
X1891337D01*
X1828740Y1577587D02*
X1891308D01*
X1828740Y1433020D02*
X1891291D01*
X1828740Y1527627D02*
X1891279D01*
X1828740Y1482981D02*
X1891263D01*
X1828740Y1477666D02*
X1891251D01*
X1828740Y1532942D02*
X1891235D01*
X1828740Y1427705D02*
X1891223D01*
X1828740Y1582902D02*
X1891208D01*
X1828740Y1647745D02*
X1891196D01*
X1828740Y1632863D02*
X1891181D01*
X1828740Y1597784D02*
X1891170D01*
X1828740Y1412823D02*
X1891155D01*
X1828740Y1547823D02*
X1891144D01*
X1828740Y1462784D02*
X1891130D01*
X1828740Y1497863D02*
X1891119D01*
X1828740Y1512745D02*
X1891105D01*
X1828740Y1447902D02*
X1891095D01*
X1828740Y1562705D02*
X1891081D01*
X1828740Y1397942D02*
X1891071D01*
X1828740Y1612666D02*
X1891057D01*
X1828740Y1617981D02*
X1891047D01*
X1828740Y1392627D02*
X1891034D01*
X1828740Y1568020D02*
X1891024D01*
X1828740Y1442587D02*
X1891011D01*
X1828740Y1518060D02*
X1891002D01*
X1828740Y1492548D02*
X1890989D01*
X1828740Y1468099D02*
X1890980D01*
X1828740Y1542509D02*
X1890967D01*
X1828740Y1418138D02*
X1890958D01*
X1828740Y1592469D02*
X1890946D01*
X1828740Y1638178D02*
X1890937D01*
X1828740Y1642430D02*
X1890926D01*
X1828740Y1588217D02*
X1890917D01*
X1828740Y1422390D02*
X1890905D01*
X1828740Y1538257D02*
X1890897D01*
X1828740Y1472351D02*
X1890886D01*
X1828740Y1488296D02*
X1890877D01*
X1828740Y1522312D02*
X1890866D01*
X1828740Y1438335D02*
X1890858D01*
X1828740Y1572272D02*
X1890848D01*
X1830926Y1388375D02*
X1890840D01*
X1828740Y1622233D02*
X1890829D01*
X1828740Y1608414D02*
X1890822D01*
X1828740Y1402194D02*
X1890811D01*
X1828740Y1558453D02*
X1890804D01*
X1828740Y1452154D02*
X1890794D01*
X1828740Y1508493D02*
X1890787D01*
X1828740Y1502115D02*
X1890777D01*
X1828740Y1458532D02*
X1890770D01*
X1828740Y1552075D02*
X1890760D01*
X1828740Y1408572D02*
X1890753D01*
X1828740Y1602036D02*
X1890744D01*
X1828740Y1628611D02*
X1890737D01*
X1828740Y1651997D02*
X1890729D01*
X1828740Y1578650D02*
X1890722D01*
X1828740Y1431957D02*
X1890713D01*
X1828740Y1528690D02*
X1890707D01*
X1828740Y1481918D02*
X1890698D01*
X1828740Y1478729D02*
X1890692D01*
X1828740Y1531879D02*
X1890684D01*
X1828740Y1428768D02*
X1890678D01*
X1828740Y1581839D02*
X1890670D01*
X1828740Y1648808D02*
X1890664D01*
X1828740Y1631800D02*
X1890656D01*
X1828740Y1598847D02*
X1890650D01*
X1828740Y1411760D02*
X1890643D01*
X1828740Y1548886D02*
X1890637D01*
X1828740Y1461721D02*
X1890630D01*
X1828740Y1498926D02*
X1890625D01*
X1828740Y1511682D02*
X1890618D01*
X1828740Y1448965D02*
X1890612D01*
X1828740Y1561642D02*
X1890606D01*
X1828740Y1399005D02*
X1890600D01*
X1828740Y1611603D02*
X1890594D01*
X1828740Y1619044D02*
X1890589D01*
X1828740Y1391564D02*
X1890583D01*
X1828740Y1569083D02*
X1890578D01*
X1828740Y1441524D02*
X1890572D01*
X1828740Y1519123D02*
X1890567D01*
X1828740Y1491485D02*
X1890561D01*
X1828740Y1469162D02*
X1890557D01*
X1828740Y1541446D02*
X1890551D01*
X1828740Y1419201D02*
X1890547D01*
X1828740Y1591406D02*
X1890541D01*
X1828740Y1639241D02*
X1890537D01*
X1828740Y1641367D02*
X1890532D01*
X1828740Y1589280D02*
X1890528D01*
X1828740Y1421327D02*
X1890522D01*
X1828740Y1539320D02*
X1890519D01*
X1828740Y1471288D02*
X1890514D01*
X1828740Y1489359D02*
X1890510D01*
X1828740Y1521249D02*
X1890505D01*
X1828740Y1439398D02*
X1890502D01*
X1828740Y1571209D02*
X1890497D01*
X1830176Y1389438D02*
X1890494D01*
X1828740Y1621170D02*
X1890490D01*
X1828740Y1609477D02*
X1890487D01*
X1828740Y1401131D02*
X1890482D01*
X1828740Y1559516D02*
X1890479D01*
X1828740Y1451091D02*
X1890476D01*
X1828740Y1509556D02*
X1890473D01*
X1828740Y1501052D02*
X1890469D01*
X1828740Y1459595D02*
X1890466D01*
X1828740Y1551012D02*
X1890463D01*
X1828740Y1409635D02*
X1890460D01*
X1828740Y1600973D02*
X1890457D01*
X1828740Y1629674D02*
X1890454D01*
X1828740Y1650934D02*
X1890451D01*
X1828740Y1579713D02*
X1890449D01*
X1828740Y1430894D02*
X1890446D01*
X1828740Y1529753D02*
X1890444D01*
X1828740Y1480855D02*
X1890441D01*
X1828740Y1479792D02*
X1890439D01*
X1828740Y1530816D02*
X1890437D01*
X1828740Y1429831D02*
X1890435D01*
X1828740Y1580776D02*
X1890433D01*
X1828740Y1649871D02*
X1890431D01*
X1828740Y1630737D02*
X1890429D01*
X1828740Y1599910D02*
X1890427D01*
X1828740Y1410698D02*
X1890425D01*
X1828740Y1549949D02*
X1890424D01*
X1828740Y1460658D02*
X1890422D01*
X1828740Y1499989D02*
X1890421D01*
X1828740Y1510619D02*
X1890419D01*
X1828740Y1450028D02*
X1890418D01*
X1828740Y1560579D02*
X1890417D01*
X1828740Y1400068D02*
X1890416D01*
X1828740Y1610540D02*
X1890415D01*
X1828740Y1620107D02*
X1890414D01*
X1829165Y1390501D02*
X1890413D01*
X1828740Y1570146D02*
X1890413D01*
X1828740Y1440461D02*
X1890412D01*
X1828740Y1520186D02*
X1890411D01*
X1828740Y1490422D02*
X1890411D01*
X1828740Y1470225D02*
X1890410D01*
X1828740Y1540383D02*
X1890410D01*
X1828740Y1420264D02*
X1890410D01*
X1828740Y1590343D02*
X1890410D01*
X1828740Y1640304D02*
X1890409D01*
X1828740Y1764674D02*
X1889907D01*
X1828740Y1763611D02*
X1888213D01*
X1828740Y1762548D02*
X1887150D01*
X1828740Y1761485D02*
X1886087D01*
X1828740Y1653060D02*
X1885068D01*
X1828740Y1760422D02*
X1885024D01*
X1828740Y1759359D02*
X1883961D01*
X1828740Y1654123D02*
X1883472D01*
X1828740Y1758296D02*
X1882898D01*
X1828740Y1655186D02*
X1882409D01*
X1828740Y1757233D02*
X1881835D01*
X1828740Y1656249D02*
X1881346D01*
X1828740Y1756170D02*
X1880870D01*
X1828740Y1657312D02*
X1880664D01*
X1828740Y1755107D02*
X1880587D01*
X1828740Y1754044D02*
X1880587D01*
X1828740Y1752981D02*
X1880587D01*
X1828740Y1751918D02*
X1880587D01*
X1828740Y1750855D02*
X1880587D01*
X1828740Y1749792D02*
X1880587D01*
X1828740Y1748729D02*
X1880587D01*
X1828740Y1747666D02*
X1880587D01*
X1828740Y1746603D02*
X1880587D01*
X1828740Y1745540D02*
X1880587D01*
X1828740Y1744477D02*
X1880587D01*
X1828740Y1743414D02*
X1880587D01*
X1828740Y1742351D02*
X1880587D01*
X1828740Y1741288D02*
X1880587D01*
X1828740Y1740225D02*
X1880587D01*
X1828740Y1739162D02*
X1880587D01*
X1828740Y1738099D02*
X1880587D01*
X1828740Y1737036D02*
X1880587D01*
X1828740Y1735973D02*
X1880587D01*
X1828740Y1734910D02*
X1880587D01*
X1828740Y1733847D02*
X1880587D01*
X1828740Y1732784D02*
X1880587D01*
X1828740Y1731721D02*
X1880587D01*
X1828740Y1730658D02*
X1880587D01*
X1828740Y1729595D02*
X1880587D01*
X1828740Y1728532D02*
X1880587D01*
X1828740Y1727469D02*
X1880587D01*
X1828740Y1726406D02*
X1880587D01*
X1828740Y1725343D02*
X1880587D01*
X1828740Y1724280D02*
X1880587D01*
X1828740Y1723217D02*
X1880587D01*
X1828740Y1722154D02*
X1880587D01*
X1828740Y1721091D02*
X1880587D01*
X1828740Y1720028D02*
X1880587D01*
X1828740Y1718965D02*
X1880587D01*
X1828740Y1717902D02*
X1880587D01*
X1828740Y1716839D02*
X1880587D01*
X1828740Y1715776D02*
X1880587D01*
X1828740Y1714713D02*
X1880587D01*
X1828740Y1713650D02*
X1880587D01*
X1828740Y1712587D02*
X1880587D01*
X1828740Y1711524D02*
X1880587D01*
X1828740Y1710461D02*
X1880587D01*
X1828740Y1709398D02*
X1880587D01*
X1828740Y1708335D02*
X1880587D01*
X1828740Y1707272D02*
X1880587D01*
X1828740Y1706209D02*
X1880587D01*
X1828740Y1705146D02*
X1880587D01*
X1828740Y1704083D02*
X1880587D01*
X1828740Y1703020D02*
X1880587D01*
X1828740Y1701957D02*
X1880587D01*
X1828740Y1700894D02*
X1880587D01*
X1828740Y1699831D02*
X1880587D01*
X1828740Y1698768D02*
X1880587D01*
X1828740Y1697705D02*
X1880587D01*
X1828740Y1696642D02*
X1880587D01*
X1828740Y1695579D02*
X1880587D01*
X1828740Y1694516D02*
X1880587D01*
X1828740Y1693453D02*
X1880587D01*
X1828740Y1692390D02*
X1880587D01*
X1828740Y1691327D02*
X1880587D01*
X1828740Y1690264D02*
X1880587D01*
X1828740Y1689201D02*
X1880587D01*
X1828740Y1688138D02*
X1880587D01*
X1828740Y1687075D02*
X1880587D01*
X1828740Y1686012D02*
X1880587D01*
X1828740Y1684949D02*
X1880587D01*
X1828740Y1683886D02*
X1880587D01*
X1828740Y1682823D02*
X1880587D01*
X1828740Y1681760D02*
X1880587D01*
X1828740Y1680698D02*
X1880587D01*
X1828740Y1679635D02*
X1880587D01*
X1828740Y1678572D02*
X1880587D01*
X1828740Y1677509D02*
X1880587D01*
X1828740Y1676446D02*
X1880587D01*
X1828740Y1675383D02*
X1880587D01*
X1828740Y1674320D02*
X1880587D01*
X1828740Y1673257D02*
X1880587D01*
X1828740Y1672194D02*
X1880587D01*
X1828740Y1671131D02*
X1880587D01*
X1828740Y1670068D02*
X1880587D01*
X1828740Y1669005D02*
X1880587D01*
X1828740Y1667942D02*
X1880587D01*
X1828740Y1666879D02*
X1880587D01*
X1828740Y1665816D02*
X1880587D01*
X1828740Y1664753D02*
X1880587D01*
X1828740Y1663690D02*
X1880587D01*
X1828740Y1662627D02*
X1880587D01*
X1828740Y1661564D02*
X1880587D01*
X1828740Y1660501D02*
X1880587D01*
X1828740Y1659438D02*
X1880587D01*
X1828740Y1658375D02*
X1880587D01*
X2162321Y1808030D02*
X2171309D01*
X2162321Y1806967D02*
X2171309D01*
X2162321Y1805904D02*
X2171309D01*
X2162321Y1804841D02*
X2171309D01*
X2162321Y1803778D02*
X2171309D01*
X2162145Y1802715D02*
X2171309D01*
X2159351Y1801652D02*
X2171309D01*
X2160606Y1800589D02*
X2171309D01*
X2161542Y1799526D02*
X2171309D01*
X2162059Y1798463D02*
X2171309D01*
X2162294Y1797400D02*
X2171309D01*
X2162289Y1796337D02*
X2171309D01*
X2162042Y1795274D02*
X2171309D01*
X2161510Y1794211D02*
X2171309D01*
X2160548Y1793148D02*
X2171309D01*
X2158044Y1792085D02*
X2171309D01*
X1828740Y1791022D02*
X2171309D01*
X1828740Y1789959D02*
X2171309D01*
X1828740Y1788896D02*
X2171309D01*
X1828740Y1787833D02*
X2171309D01*
X1828740Y1786770D02*
X2171309D01*
X1828740Y1785707D02*
X2171309D01*
X1828740Y1784644D02*
X2171309D01*
X1828740Y1783581D02*
X2171309D01*
X1828740Y1782518D02*
X2171309D01*
X1828740Y1781455D02*
X2171309D01*
X1828740Y1780392D02*
X2171309D01*
X1958740Y1779329D02*
X2171309D01*
X2162321Y1809093D02*
X2171276D01*
X1958740Y1778266D02*
X2171269D01*
X2162307Y1810156D02*
X2170174D01*
X2161680Y1811219D02*
X2169335D01*
X2095613Y1812282D02*
X2168710D01*
X2095613Y1813345D02*
X2168255D01*
X2095613Y1814408D02*
X2167943D01*
X2095613Y1815471D02*
X2167761D01*
X2095613Y1817597D02*
X2167761D01*
X2095613Y1816534D02*
X2167701D01*
X1846254Y1792085D02*
X2156916D01*
X1846119Y1801652D02*
X2155610D01*
X1847295Y1793148D02*
X2154413D01*
X1847283Y1800589D02*
X2154355D01*
X1847360Y1794211D02*
X2153450D01*
X1847360Y1799526D02*
X2153419D01*
X2095613Y1811219D02*
X2153281D01*
X1847360Y1795274D02*
X2152918D01*
X1847360Y1798463D02*
X2152902D01*
X2095218Y1802715D02*
X2152816D01*
X1847360Y1796337D02*
X2152672D01*
X1847360Y1797400D02*
X2152666D01*
X2095613Y1810156D02*
X2152654D01*
X2095613Y1809093D02*
X2152640D01*
X2095613Y1808030D02*
X2152640D01*
X2095613Y1806967D02*
X2152640D01*
X2095613Y1805904D02*
X2152640D01*
X2095613Y1804841D02*
X2152640D01*
X2095613Y1803778D02*
X2152640D01*
X1958740Y1777203D02*
X2070059D01*
X1958740Y1776140D02*
X2070059D01*
X1958740Y1775077D02*
X2070059D01*
X1958740Y1774014D02*
X2070059D01*
X1958740Y1772951D02*
X2070059D01*
X1958740Y1771888D02*
X2070059D01*
X1958740Y1770825D02*
X2070059D01*
X1958740Y1769762D02*
X2070059D01*
X1958740Y1768699D02*
X2070059D01*
X1958740Y1767636D02*
X2070059D01*
X1958740Y1766573D02*
X2070059D01*
X1958740Y1765510D02*
X2070059D01*
X2033652Y1764448D02*
X2070059D01*
X2034226Y1763385D02*
X2070059D01*
X2034323Y1762322D02*
X2070059D01*
X2034001Y1761259D02*
X2070059D01*
X2033011Y1760196D02*
X2070059D01*
X1958740Y1759133D02*
X2070059D01*
X1958740Y1758070D02*
X2070059D01*
X1958740Y1757007D02*
X2070059D01*
X1958740Y1755944D02*
X2070059D01*
X1958740Y1754881D02*
X2070059D01*
X1958740Y1753818D02*
X2070059D01*
X1958740Y1752755D02*
X2070059D01*
X1958740Y1751692D02*
X2070059D01*
X1958740Y1750629D02*
X2070059D01*
X1958740Y1749566D02*
X2070059D01*
X1958740Y1748503D02*
X2070059D01*
X1958740Y1747440D02*
X2070059D01*
X1958740Y1746377D02*
X2070059D01*
X1958740Y1745314D02*
X2070059D01*
X1958740Y1744251D02*
X2070059D01*
X1958740Y1743188D02*
X2070059D01*
X1958740Y1742125D02*
X2070059D01*
X1958740Y1741062D02*
X2070059D01*
X1958740Y1739999D02*
X2070059D01*
X1958740Y1738936D02*
X2070059D01*
X1958740Y1737873D02*
X2070059D01*
X1958740Y1736810D02*
X2070059D01*
X1958740Y1735747D02*
X2070059D01*
X1958740Y1734684D02*
X2070059D01*
X1958740Y1733621D02*
X2070059D01*
X1958740Y1732558D02*
X2070059D01*
X1958740Y1731495D02*
X2070059D01*
X1958740Y1730432D02*
X2070059D01*
X1958740Y1729369D02*
X2070059D01*
X1958740Y1728306D02*
X2070059D01*
X1958740Y1727243D02*
X2070059D01*
X1958740Y1726180D02*
X2070059D01*
X2022201Y1725117D02*
X2070059D01*
X2022797Y1724054D02*
X2070059D01*
X2022909Y1722991D02*
X2070059D01*
X2022604Y1721928D02*
X2070059D01*
X2022169Y1720865D02*
X2070059D01*
X2022169Y1719802D02*
X2070059D01*
X2022169Y1718739D02*
X2070059D01*
X2027621Y1717676D02*
X2070059D01*
X2028531Y1716613D02*
X2070059D01*
X2028818Y1715550D02*
X2070059D01*
X2028689Y1714487D02*
X2070059D01*
X2028094Y1713424D02*
X2070059D01*
X2028075Y1712361D02*
X2070059D01*
X2028075Y1711298D02*
X2070059D01*
X2028075Y1710235D02*
X2070059D01*
X2028075Y1709172D02*
X2070059D01*
X2028075Y1708109D02*
X2070059D01*
X2028075Y1707046D02*
X2070059D01*
X2028075Y1705983D02*
X2070059D01*
X2028075Y1704920D02*
X2070059D01*
X2028075Y1703857D02*
X2070059D01*
X2028075Y1702794D02*
X2070059D01*
X2028075Y1701731D02*
X2070059D01*
X2028075Y1700668D02*
X2070059D01*
X2028075Y1699605D02*
X2070059D01*
X2028075Y1698542D02*
X2070059D01*
X2028075Y1697479D02*
X2070059D01*
X2028075Y1696416D02*
X2070059D01*
X2028075Y1695353D02*
X2070059D01*
X2028075Y1694290D02*
X2070059D01*
X2028075Y1693227D02*
X2070059D01*
X2028075Y1692164D02*
X2070059D01*
X2028075Y1691101D02*
X2070059D01*
X2028075Y1690038D02*
X2070059D01*
X2028075Y1688975D02*
X2070059D01*
X2028075Y1687912D02*
X2070059D01*
X2028075Y1686849D02*
X2070059D01*
X2028075Y1685786D02*
X2070059D01*
X2028075Y1684723D02*
X2070059D01*
X2028075Y1683660D02*
X2070059D01*
X2028075Y1682597D02*
X2070059D01*
X2028075Y1681534D02*
X2070059D01*
X2028075Y1680471D02*
X2070059D01*
X2028075Y1679408D02*
X2070059D01*
X2028075Y1678345D02*
X2070059D01*
X2028075Y1677282D02*
X2070059D01*
X2028075Y1676219D02*
X2070059D01*
X2028075Y1675156D02*
X2070059D01*
X2028075Y1674093D02*
X2070059D01*
X2028075Y1673030D02*
X2070059D01*
X2028075Y1671967D02*
X2070059D01*
X2028075Y1670904D02*
X2070059D01*
X2028075Y1669841D02*
X2070059D01*
X2028075Y1668778D02*
X2070059D01*
X2028075Y1667715D02*
X2070059D01*
X2028075Y1666652D02*
X2070059D01*
X2028075Y1665589D02*
X2070059D01*
X2028075Y1664526D02*
X2070059D01*
X2027886Y1663463D02*
X2070059D01*
X2027010Y1662400D02*
X2070059D01*
X2025947Y1661337D02*
X2070059D01*
X2024884Y1660274D02*
X2070059D01*
X2023821Y1659211D02*
X2070059D01*
X2022758Y1658148D02*
X2070059D01*
X2021695Y1657085D02*
X2070059D01*
X2020632Y1656022D02*
X2070059D01*
X2019569Y1654959D02*
X2070059D01*
X2018506Y1653896D02*
X2070059D01*
X2017443Y1652833D02*
X2070059D01*
X2016380Y1651770D02*
X2070059D01*
X2015317Y1650707D02*
X2070059D01*
X2014254Y1649644D02*
X2070059D01*
X2013191Y1648581D02*
X2070059D01*
X2012128Y1647518D02*
X2070059D01*
X2011065Y1646455D02*
X2070059D01*
X2010002Y1645392D02*
X2070059D01*
X2008939Y1644329D02*
X2070059D01*
X2007876Y1643266D02*
X2070059D01*
X2006813Y1642203D02*
X2070059D01*
X2005750Y1641140D02*
X2070059D01*
X2004687Y1640077D02*
X2070059D01*
X2003624Y1639014D02*
X2070059D01*
X1958741Y1637951D02*
X2070059D01*
X1958740Y1636888D02*
X2070059D01*
X1958740Y1635825D02*
X2070059D01*
X1958740Y1634762D02*
X2070059D01*
X1958740Y1633699D02*
X2070059D01*
X1958740Y1632636D02*
X2070059D01*
X1958740Y1631573D02*
X2070059D01*
X1958740Y1630510D02*
X2070059D01*
X1958740Y1629448D02*
X2070059D01*
X1958740Y1628385D02*
X2070059D01*
X1958740Y1627322D02*
X2070059D01*
X1958740Y1626259D02*
X2070059D01*
X1958740Y1625196D02*
X2070059D01*
X1958740Y1624133D02*
X2070059D01*
X1958740Y1623070D02*
X2070059D01*
X1958740Y1622007D02*
X2070059D01*
X1958740Y1620944D02*
X2070059D01*
X1958740Y1619881D02*
X2070059D01*
X1958740Y1618818D02*
X2070059D01*
X1958740Y1617755D02*
X2070059D01*
X1958740Y1616692D02*
X2070059D01*
X1958740Y1615629D02*
X2070059D01*
X1958740Y1614566D02*
X2070059D01*
X1958740Y1613503D02*
X2070059D01*
X1958740Y1612440D02*
X2070059D01*
X1958740Y1611377D02*
X2070059D01*
X1958740Y1610314D02*
X2070059D01*
X1958740Y1609251D02*
X2070059D01*
X1958740Y1608188D02*
X2070059D01*
X1958740Y1607125D02*
X2070059D01*
X1958740Y1606062D02*
X2070059D01*
X1958740Y1604999D02*
X2070059D01*
X1958740Y1603936D02*
X2070059D01*
X1958740Y1602873D02*
X2070059D01*
X1958740Y1601810D02*
X2070059D01*
X1958740Y1600747D02*
X2070059D01*
X1958740Y1599684D02*
X2070059D01*
X1958740Y1598621D02*
X2070059D01*
X1958740Y1597558D02*
X2070059D01*
X1958740Y1596495D02*
X2070059D01*
X1958740Y1595432D02*
X2070059D01*
X1958740Y1594369D02*
X2070059D01*
X1958740Y1593306D02*
X2070059D01*
X1958740Y1592243D02*
X2070059D01*
X1958740Y1591180D02*
X2070059D01*
X1958740Y1590117D02*
X2070059D01*
X1958740Y1589054D02*
X2070059D01*
X1958740Y1587991D02*
X2070059D01*
X1958740Y1586928D02*
X2070059D01*
X1958740Y1585865D02*
X2070059D01*
X1958740Y1584802D02*
X2070059D01*
X1958740Y1583739D02*
X2070059D01*
X1958740Y1582676D02*
X2070059D01*
X1958740Y1581613D02*
X2070059D01*
X1958740Y1580550D02*
X2070059D01*
X1958740Y1579487D02*
X2070059D01*
X1958740Y1578424D02*
X2070059D01*
X1958740Y1577361D02*
X2070059D01*
X1998852Y1576298D02*
X2070059D01*
X2000659Y1575235D02*
X2070059D01*
X2001330Y1574172D02*
X2070059D01*
X2001580Y1573109D02*
X2070059D01*
X2001502Y1572046D02*
X2070059D01*
X2001071Y1570983D02*
X2070059D01*
X2000074Y1569920D02*
X2070059D01*
X1958740Y1568857D02*
X2070059D01*
X1958740Y1567794D02*
X2070059D01*
X1958740Y1566731D02*
X2070059D01*
X1958740Y1565668D02*
X2070059D01*
X1958740Y1564605D02*
X2070059D01*
X1958740Y1563542D02*
X2070059D01*
X1958740Y1562479D02*
X2070059D01*
X1958740Y1561416D02*
X2070059D01*
X1958740Y1560353D02*
X2070059D01*
X1958740Y1559290D02*
X2070059D01*
X1958740Y1558227D02*
X2070059D01*
X1958740Y1557164D02*
X2070059D01*
X1958740Y1556101D02*
X2070059D01*
X1958740Y1555038D02*
X2070059D01*
X1958740Y1553975D02*
X2070059D01*
X1958740Y1552912D02*
X2070059D01*
X1958740Y1551849D02*
X2070059D01*
X1958740Y1550786D02*
X2070059D01*
X1958740Y1549723D02*
X2070059D01*
X1958740Y1548660D02*
X2070059D01*
X1958740Y1547597D02*
X2070059D01*
X1958740Y1546534D02*
X2070059D01*
X1958740Y1545471D02*
X2070059D01*
X1958740Y1544408D02*
X2070059D01*
X1958740Y1543345D02*
X2070059D01*
X1958740Y1542282D02*
X2070059D01*
X1958740Y1541219D02*
X2070059D01*
X1958740Y1540156D02*
X2070059D01*
X1958740Y1539093D02*
X2070059D01*
X1958740Y1538030D02*
X2070059D01*
X1958740Y1536967D02*
X2070059D01*
X1958740Y1535904D02*
X2070059D01*
X1958740Y1534841D02*
X2070059D01*
X1958740Y1533778D02*
X2070059D01*
X1958740Y1532715D02*
X2070059D01*
X1958740Y1531652D02*
X2070059D01*
X1958740Y1530589D02*
X2070059D01*
X1958740Y1529526D02*
X2070059D01*
X1958740Y1528463D02*
X2070059D01*
X1958740Y1527400D02*
X2070059D01*
X1958740Y1526337D02*
X2070059D01*
X1958740Y1525274D02*
X2070059D01*
X1958740Y1524211D02*
X2070059D01*
X1958740Y1523148D02*
X2070059D01*
X1958740Y1522085D02*
X2070059D01*
X1958740Y1521022D02*
X2070059D01*
X1958740Y1519959D02*
X2070059D01*
X1958740Y1518896D02*
X2070059D01*
X1958740Y1517833D02*
X2070059D01*
X1958740Y1516770D02*
X2070059D01*
X1958740Y1515707D02*
X2070059D01*
X1958740Y1514644D02*
X2070059D01*
X1958740Y1513581D02*
X2070059D01*
X1958740Y1512518D02*
X2070059D01*
X1958740Y1511455D02*
X2070059D01*
X1958740Y1510392D02*
X2070059D01*
X1958740Y1509329D02*
X2070059D01*
X1958740Y1508266D02*
X2070059D01*
X1958740Y1507203D02*
X2070059D01*
X1958740Y1506140D02*
X2070059D01*
X1958740Y1505077D02*
X2070059D01*
X1958740Y1504014D02*
X2070059D01*
X1958740Y1502951D02*
X2070059D01*
X1958740Y1501888D02*
X2070059D01*
X1958740Y1500825D02*
X2070059D01*
X1958740Y1499762D02*
X2070059D01*
X1958740Y1498699D02*
X2070059D01*
X1958740Y1497636D02*
X2070059D01*
X1958740Y1496573D02*
X2070059D01*
X1958740Y1495510D02*
X2070059D01*
X1958740Y1494448D02*
X2070059D01*
X1958740Y1493385D02*
X2070059D01*
X1958740Y1492322D02*
X2070059D01*
X1958740Y1491259D02*
X2070059D01*
X1958740Y1490196D02*
X2070059D01*
X1958740Y1489133D02*
X2070059D01*
X1958740Y1488070D02*
X2070059D01*
X1958740Y1487007D02*
X2070059D01*
X1958740Y1485944D02*
X2070059D01*
X1958740Y1484881D02*
X2070059D01*
X1958740Y1483818D02*
X2070059D01*
X1958740Y1482755D02*
X2070059D01*
X1958740Y1481692D02*
X2070059D01*
X1939958Y1480629D02*
X2070059D01*
X1940251Y1479566D02*
X2070059D01*
X1940583Y1478503D02*
X2070059D01*
X1940665Y1477440D02*
X2070059D01*
X1940510Y1476377D02*
X2070059D01*
X1940093Y1475314D02*
X2070059D01*
X1939320Y1474251D02*
X2070059D01*
X1937814Y1473188D02*
X2070059D01*
X1922490Y1472125D02*
X2070059D01*
X1922490Y1471062D02*
X2070059D01*
X1922490Y1469999D02*
X2070059D01*
X1922490Y1468936D02*
X2070059D01*
X1922490Y1467873D02*
X2070059D01*
X1922490Y1466810D02*
X2070059D01*
X1922490Y1465747D02*
X2070059D01*
X1922490Y1464684D02*
X2070059D01*
X1922490Y1463621D02*
X2070059D01*
X1922490Y1462558D02*
X2070059D01*
X1922490Y1461495D02*
X2070059D01*
X1922490Y1460432D02*
X2070059D01*
X1958740Y1760196D02*
X2029981D01*
X2022169Y1717676D02*
X2024347D01*
X2022169Y1712361D02*
X2023894D01*
X2022169Y1711298D02*
X2023894D01*
X2022169Y1710235D02*
X2023894D01*
X2022169Y1709172D02*
X2023894D01*
X2022169Y1708109D02*
X2023894D01*
X2022169Y1707046D02*
X2023894D01*
X2022169Y1705983D02*
X2023894D01*
X2022169Y1704920D02*
X2023894D01*
X2022169Y1703857D02*
X2023894D01*
X2022169Y1702794D02*
X2023894D01*
X2022169Y1701731D02*
X2023894D01*
X2022169Y1700668D02*
X2023894D01*
X2022169Y1699605D02*
X2023894D01*
X2022169Y1698542D02*
X2023894D01*
X2022169Y1697479D02*
X2023894D01*
X2022169Y1696416D02*
X2023894D01*
X2022169Y1695353D02*
X2023894D01*
X2022169Y1694290D02*
X2023894D01*
X2022169Y1693227D02*
X2023894D01*
X2022169Y1692164D02*
X2023894D01*
X2022169Y1691101D02*
X2023894D01*
X2022169Y1690038D02*
X2023894D01*
X2022169Y1688975D02*
X2023894D01*
X2022169Y1687912D02*
X2023894D01*
X2022169Y1686849D02*
X2023894D01*
X2022169Y1685786D02*
X2023894D01*
X2022169Y1684723D02*
X2023894D01*
X2022169Y1683660D02*
X2023894D01*
X2022169Y1682597D02*
X2023894D01*
X2022169Y1681534D02*
X2023894D01*
X2022169Y1680471D02*
X2023894D01*
X2022169Y1679408D02*
X2023894D01*
X2022169Y1678345D02*
X2023894D01*
X2022169Y1677282D02*
X2023894D01*
X2022169Y1676219D02*
X2023894D01*
X2022169Y1675156D02*
X2023894D01*
X2022169Y1674093D02*
X2023894D01*
X2022169Y1673030D02*
X2023894D01*
X2022169Y1671967D02*
X2023894D01*
X2022169Y1670904D02*
X2023894D01*
X2022169Y1669841D02*
X2023894D01*
X2022169Y1668778D02*
X2023894D01*
X2022169Y1667715D02*
X2023894D01*
X2022151Y1666652D02*
X2023894D01*
X2021683Y1665589D02*
X2023894D01*
X2022169Y1713424D02*
X2023875D01*
X2022169Y1716613D02*
X2023438D01*
X2022169Y1714487D02*
X2023279D01*
X2020632Y1664526D02*
X2023223D01*
X2022169Y1715550D02*
X2023150D01*
X2019569Y1663463D02*
X2022160D01*
X2018506Y1662400D02*
X2021097D01*
X2017443Y1661337D02*
X2020034D01*
X2016380Y1660274D02*
X2018971D01*
X1958740Y1720865D02*
X2017988D01*
X1958740Y1719802D02*
X2017988D01*
X1958740Y1718739D02*
X2017988D01*
X1958740Y1717676D02*
X2017988D01*
X1958740Y1716613D02*
X2017988D01*
X1958740Y1715550D02*
X2017988D01*
X1958740Y1714487D02*
X2017988D01*
X1958740Y1713424D02*
X2017988D01*
X1958740Y1712361D02*
X2017988D01*
X1958740Y1711298D02*
X2017988D01*
X1958740Y1710235D02*
X2017988D01*
X1958740Y1709172D02*
X2017988D01*
X1958740Y1708109D02*
X2017988D01*
X1958740Y1707046D02*
X2017988D01*
X1958740Y1705983D02*
X2017988D01*
X1958740Y1704920D02*
X2017988D01*
X1958740Y1703857D02*
X2017988D01*
X1958740Y1702794D02*
X2017988D01*
X1958740Y1701731D02*
X2017988D01*
X1958740Y1700668D02*
X2017988D01*
X1958740Y1699605D02*
X2017988D01*
X1958740Y1698542D02*
X2017988D01*
X1958740Y1697479D02*
X2017988D01*
X1958740Y1696416D02*
X2017988D01*
X1958740Y1695353D02*
X2017988D01*
X1958740Y1694290D02*
X2017988D01*
X1958740Y1693227D02*
X2017988D01*
X1958740Y1692164D02*
X2017988D01*
X1958740Y1691101D02*
X2017988D01*
X1958740Y1690038D02*
X2017988D01*
X1958740Y1688975D02*
X2017988D01*
X1958740Y1687912D02*
X2017988D01*
X1958740Y1686849D02*
X2017988D01*
X1958740Y1685786D02*
X2017988D01*
X1958740Y1684723D02*
X2017988D01*
X1958740Y1683660D02*
X2017988D01*
X1958740Y1682597D02*
X2017988D01*
X1958740Y1681534D02*
X2017988D01*
X1958740Y1680471D02*
X2017988D01*
X1958740Y1679408D02*
X2017988D01*
X1958740Y1678345D02*
X2017988D01*
X1958740Y1677282D02*
X2017988D01*
X1958740Y1676219D02*
X2017988D01*
X1958740Y1675156D02*
X2017988D01*
X1958740Y1674093D02*
X2017988D01*
X1958740Y1673030D02*
X2017988D01*
X1958740Y1671967D02*
X2017988D01*
X1958740Y1670904D02*
X2017988D01*
X1958740Y1669841D02*
X2017988D01*
X1958740Y1668778D02*
X2017988D01*
X1958740Y1725117D02*
X2017957D01*
X2015317Y1659211D02*
X2017908D01*
X1958740Y1667715D02*
X2017908D01*
X1958740Y1721928D02*
X2017553D01*
X1958740Y1724054D02*
X2017361D01*
X1958740Y1722991D02*
X2017248D01*
X1958740Y1666652D02*
X2016845D01*
X2014254Y1658148D02*
X2016845D01*
X1958740Y1665589D02*
X2015782D01*
X2013191Y1657085D02*
X2015782D01*
X1958740Y1664526D02*
X2014719D01*
X2012128Y1656022D02*
X2014719D01*
X1958740Y1663463D02*
X2013656D01*
X2011065Y1654959D02*
X2013656D01*
X1958740Y1662400D02*
X2012593D01*
X2010002Y1653896D02*
X2012593D01*
X1958740Y1661337D02*
X2011530D01*
X2008939Y1652833D02*
X2011530D01*
X1958740Y1660274D02*
X2010467D01*
X2007876Y1651770D02*
X2010467D01*
X1958740Y1659211D02*
X2009404D01*
X2006813Y1650707D02*
X2009404D01*
X1958740Y1658148D02*
X2008341D01*
X2005750Y1649644D02*
X2008341D01*
X1958740Y1657085D02*
X2007278D01*
X2004687Y1648581D02*
X2007278D01*
X1958740Y1656022D02*
X2006215D01*
X2003624Y1647518D02*
X2006215D01*
X1958740Y1654959D02*
X2005152D01*
X2002562Y1646455D02*
X2005152D01*
X1958740Y1653896D02*
X2004089D01*
X2001499Y1645392D02*
X2004089D01*
X1958740Y1652833D02*
X2003026D01*
X2000436Y1644329D02*
X2003026D01*
X1958740Y1651770D02*
X2001963D01*
X1999003Y1643266D02*
X2001963D01*
X1958740Y1650707D02*
X2000900D01*
X1958740Y1649644D02*
X1999837D01*
X1958740Y1648581D02*
X1998774D01*
X1958777Y1647518D02*
X1997711D01*
X1958740Y1576298D02*
X1978707D01*
X1958740Y1569920D02*
X1977485D01*
X1958740Y1575235D02*
X1976900D01*
X1958740Y1570983D02*
X1976488D01*
X1958740Y1574172D02*
X1976229D01*
X1958740Y1572046D02*
X1976057D01*
X1958740Y1573109D02*
X1975979D01*
X1922490Y1473188D02*
X1933840D01*
X1922490Y1474251D02*
X1932334D01*
X1922607Y1480629D02*
X1931695D01*
X1922490Y1475314D02*
X1931561D01*
X1922490Y1479566D02*
X1931403D01*
X1922490Y1476377D02*
X1931144D01*
X1922490Y1478503D02*
X1931071D01*
X1922490Y1477440D02*
X1930989D01*
X1845338Y1802715D02*
X1906088D01*
X1832239Y1817597D02*
X1905693D01*
X1832299Y1816534D02*
X1905693D01*
X1832239Y1815471D02*
X1905693D01*
X1832057Y1814408D02*
X1905693D01*
X1831745Y1813345D02*
X1905693D01*
X1831290Y1812282D02*
X1905693D01*
X1844119Y1811219D02*
X1905693D01*
X1845857Y1810156D02*
X1905693D01*
X1846699Y1809093D02*
X1905693D01*
X1847159Y1808030D02*
X1905693D01*
X1847350Y1806967D02*
X1905693D01*
X1847302Y1805904D02*
X1905693D01*
X1847009Y1804841D02*
X1905693D01*
X1846416Y1803778D02*
X1905693D01*
X1830665Y1811219D02*
X1840920D01*
X1828740Y1802715D02*
X1839701D01*
X1829826Y1810156D02*
X1839182D01*
X1828740Y1801652D02*
X1838921D01*
X1828740Y1792085D02*
X1838786D01*
X1828740Y1803778D02*
X1838623D01*
X1828756Y1809093D02*
X1838341D01*
X1828740Y1804841D02*
X1838030D01*
X1828740Y1808030D02*
X1837880D01*
X1828740Y1800589D02*
X1837756D01*
X1828740Y1793148D02*
X1837745D01*
X1828740Y1805904D02*
X1837737D01*
X1828740Y1806967D02*
X1837689D01*
X1828740Y1799526D02*
X1837679D01*
X1828740Y1798463D02*
X1837679D01*
X1828740Y1797400D02*
X1837679D01*
X1828740Y1796337D02*
X1837679D01*
X1828740Y1795274D02*
X1837679D01*
X1828740Y1794211D02*
X1837679D01*
G54D76*
X1935827Y1487402D03*
X1842520Y1796850D03*
X2157480Y1806693D03*
G54D77*
X1935827Y1477602D03*
X1842520Y1806650D03*
X2157480Y1796893D03*
G54D78*
X1822835Y1383465D03*
Y1816535D03*
X2177165D03*
Y1383465D03*
G54D79*
X1908268Y1821973D02*
Y1809055D01*
Y1821973D02*
X1914531Y1809055D01*
Y1821973D02*
Y1809055D01*
X1923926Y1817667D02*
Y1809055D01*
Y1815822D02*
X1923031Y1817052D01*
X1922137Y1817667*
X1920795*
X1919900Y1817052*
X1919005Y1815822*
X1918558Y1813976*
Y1812746*
X1919005Y1810901*
X1919900Y1809670*
X1920795Y1809055*
X1922137*
X1923031Y1809670*
X1923926Y1810901*
X1928400Y1817667D02*
X1931084Y1809055D01*
X1933769Y1817667D02*
X1931084Y1809055D01*
X1930190Y1806594*
X1929295Y1805364*
X1928400Y1804749*
X1927953*
X1937795Y1813976D02*
X1943164D01*
Y1815207*
X1942717Y1816437*
X1942269Y1817052*
X1941374Y1817667*
X1940032*
X1939137Y1817052*
X1938243Y1815822*
X1937795Y1813976*
Y1812746*
X1938243Y1810901*
X1939137Y1809670*
X1940032Y1809055*
X1941374*
X1942269Y1809670*
X1943164Y1810901*
X1949427Y1817667D02*
X1948533Y1817052D01*
X1947638Y1815822*
X1947190Y1813976*
Y1812746*
X1947638Y1810901*
X1948533Y1809670*
X1949427Y1809055*
X1950770*
X1951664Y1809670*
X1952559Y1810901*
X1953006Y1812746*
Y1813976*
X1952559Y1815822*
X1951664Y1817052*
X1950770Y1817667*
X1949427*
X1957033D02*
Y1809055D01*
Y1815207D02*
X1958375Y1817052D01*
X1959270Y1817667*
X1960612*
X1961507Y1817052*
X1961954Y1815207*
Y1809055*
X1976271Y1821973D02*
Y1809055D01*
Y1821973D02*
X1982087D01*
X1976271Y1815822D02*
X1979850D01*
X1976271Y1809055D02*
X1982087D01*
X1986113Y1817667D02*
X1991034Y1809055D01*
Y1817667D02*
X1986113Y1809055D01*
X1996403Y1821973D02*
Y1811516D01*
X1996850Y1809670*
X1997745Y1809055*
X1998640*
X1995061Y1817667D02*
X1998193D01*
X2002666Y1813976D02*
X2008035D01*
Y1815207*
X2007588Y1816437*
X2007140Y1817052*
X2006246Y1817667*
X2004903*
X2004009Y1817052*
X2003114Y1815822*
X2002666Y1813976*
Y1812746*
X2003114Y1810901*
X2004009Y1809670*
X2004903Y1809055*
X2006246*
X2007140Y1809670*
X2008035Y1810901*
X2012062Y1817667D02*
Y1809055D01*
Y1815207D02*
X2013404Y1817052D01*
X2014298Y1817667*
X2015641*
X2016535Y1817052*
X2016983Y1815207*
Y1809055*
X2022351Y1821973D02*
Y1811516D01*
X2022799Y1809670*
X2023694Y1809055*
X2024588*
X2021009Y1817667D02*
X2024141D01*
X2028615Y1821973D02*
X2029062Y1821358D01*
X2029510Y1821973*
X2029062Y1822589*
X2028615Y1821973*
X2029062Y1817667D02*
Y1809055D01*
X2035773Y1817667D02*
X2034878Y1817052D01*
X2033984Y1815822*
X2033536Y1813976*
Y1812746*
X2033984Y1810901*
X2034878Y1809670*
X2035773Y1809055*
X2037115*
X2038010Y1809670*
X2038905Y1810901*
X2039352Y1812746*
Y1813976*
X2038905Y1815822*
X2038010Y1817052*
X2037115Y1817667*
X2035773*
X2043379D02*
Y1809055D01*
Y1815207D02*
X2044721Y1817052D01*
X2045616Y1817667*
X2046958*
X2047853Y1817052*
X2048300Y1815207*
Y1809055*
X2062616Y1821973D02*
Y1809055D01*
Y1821973D02*
X2066643D01*
X2067985Y1821358*
X2068432Y1820743*
X2068880Y1819513*
Y1818282*
X2068432Y1817052*
X2067985Y1816437*
X2066643Y1815822*
X2062616D02*
X2066643D01*
X2067985Y1815207*
X2068432Y1814592*
X2068880Y1813361*
Y1811516*
X2068432Y1810285*
X2067985Y1809670*
X2066643Y1809055*
X2062616*
X2080959Y1824434D02*
X2072906Y1804749D01*
X2084986Y1821973D02*
Y1809055D01*
Y1821973D02*
X2088117D01*
X2089460Y1821358*
X2090354Y1820128*
X2090802Y1818898*
X2091249Y1817052*
Y1813976*
X2090802Y1812131*
X2090354Y1810901*
X2089460Y1809670*
X2088117Y1809055*
X2084986*
G74*
X0Y0D02*
M02*
