*
*
G04 PADS 9.3.1 Build Number: 456998 generated Gerber (RS-274-X) file*
G04 PC Version=2.1*
*
%IN "ExtentionBoard.pcb"*%
*
%MOIN*%
*
%FSLAX35Y35*%
*
*
*
*
G04 PC Standard Apertures*
*
*
G04 Thermal Relief Aperture macro.*
%AMTER*
1,1,$1,0,0*
1,0,$1-$2,0,0*
21,0,$3,$4,0,0,45*
21,0,$3,$4,0,0,135*
%
*
*
G04 Annular Aperture macro.*
%AMANN*
1,1,$1,0,0*
1,0,$2,0,0*
%
*
*
G04 Odd Aperture macro.*
%AMODD*
1,1,$1,0,0*
1,0,$1-0.005,0,0*
%
*
*
G04 PC Custom Aperture Macros*
*
*
*
*
*
*
G04 PC Aperture Table*
*
%ADD033C,0.01*%
%ADD037C,0.005*%
%ADD038C,0.001*%
*
*
*
*
G04 PC Circuitry*
G04 Layer Name ExtentionBoard.pcb - circuitry*
%LPD*%
*
*
G04 PC Custom Flashes*
G04 Layer Name ExtentionBoard.pcb - flashes*
%LPD*%
*
*
G04 PC Circuitry*
G04 Layer Name ExtentionBoard.pcb - circuitry*
%LPD*%
*
G54D33*
G01X1541924Y1375591D02*
X1553735Y1363780D01*
X1923814*
X1935625Y1375591*
Y1824409*
X1923814Y1836220*
X1553735*
X1541924Y1824409*
Y1375591*
G54D37*
X1674601Y1484402D02*
X1677601Y1487402D01*
X1674601Y1490402*
X1671601Y1487402*
X1674601Y1484402*
Y1487402D02*
Y1490402D01*
Y1474602D02*
X1677601Y1477602D01*
X1674601Y1480602*
X1671601Y1477602*
X1674601Y1474602*
Y1477602D02*
Y1480602D01*
X1581294Y1793850D02*
X1584294Y1796850D01*
X1581294Y1799850*
X1578294Y1796850*
X1581294Y1793850*
Y1796850D02*
Y1799850D01*
Y1803650D02*
X1584294Y1806650D01*
X1581294Y1809650*
X1578294Y1806650*
X1581294Y1803650*
Y1806650D02*
Y1809650D01*
X1896255Y1803693D02*
X1899255Y1806693D01*
X1896255Y1809693*
X1893255Y1806693*
X1896255Y1803693*
Y1806693D02*
Y1809693D01*
Y1793893D02*
X1899255Y1796893D01*
X1896255Y1799893*
X1893255Y1796893*
X1896255Y1793893*
Y1796893D02*
Y1799893D01*
X1630775Y1700315D02*
X1636775D01*
X1633775Y1697315D02*
Y1703315D01*
X1635275Y1705752D02*
Y1701815D01*
Y1705752D02*
X1637047D01*
X1635275Y1703877D02*
X1636366D01*
X1635275Y1701815D02*
X1637047D01*
X1640775Y1700315D02*
X1646775D01*
X1643775Y1697315D02*
Y1703315D01*
X1645275Y1705752D02*
Y1701815D01*
Y1705752D02*
X1647047D01*
X1645275Y1703877D02*
X1646366D01*
X1645275Y1701815D02*
X1647047D01*
X1630775Y1690315D02*
X1636775D01*
X1633775Y1687315D02*
Y1693315D01*
X1635275Y1695752D02*
Y1691815D01*
Y1695752D02*
X1637047D01*
X1635275Y1693877D02*
X1636366D01*
X1635275Y1691815D02*
X1637047D01*
X1640775Y1690315D02*
X1646775D01*
X1643775Y1687315D02*
Y1693315D01*
X1645275Y1695752D02*
Y1691815D01*
Y1695752D02*
X1647047D01*
X1645275Y1693877D02*
X1646366D01*
X1645275Y1691815D02*
X1647047D01*
X1630775Y1680315D02*
X1636775D01*
X1633775Y1677315D02*
Y1683315D01*
X1635275Y1685752D02*
Y1681815D01*
Y1685752D02*
X1637047D01*
X1635275Y1683877D02*
X1636366D01*
X1635275Y1681815D02*
X1637047D01*
X1640775Y1680315D02*
X1646775D01*
X1643775Y1677315D02*
Y1683315D01*
X1645275Y1685752D02*
Y1681815D01*
Y1685752D02*
X1647047D01*
X1645275Y1683877D02*
X1646366D01*
X1645275Y1681815D02*
X1647047D01*
X1630775Y1670315D02*
X1636775D01*
X1633775Y1667315D02*
Y1673315D01*
X1635275Y1675752D02*
Y1671815D01*
Y1675752D02*
X1637047D01*
X1635275Y1673877D02*
X1636366D01*
X1635275Y1671815D02*
X1637047D01*
X1640775Y1670315D02*
X1646775D01*
X1643775Y1667315D02*
Y1673315D01*
X1645275Y1675752D02*
Y1671815D01*
Y1675752D02*
X1647047D01*
X1645275Y1673877D02*
X1646366D01*
X1645275Y1671815D02*
X1647047D01*
X1630775Y1660315D02*
X1636775D01*
X1633775Y1657315D02*
Y1663315D01*
X1635275Y1665752D02*
Y1661815D01*
Y1665752D02*
X1637047D01*
X1635275Y1663877D02*
X1636366D01*
X1635275Y1661815D02*
X1637047D01*
X1640775Y1660315D02*
X1646775D01*
X1643775Y1657315D02*
Y1663315D01*
X1645275Y1665752D02*
Y1661815D01*
Y1665752D02*
X1647047D01*
X1645275Y1663877D02*
X1646366D01*
X1645275Y1661815D02*
X1647047D01*
X1630775Y1650315D02*
X1636775D01*
X1633775Y1647315D02*
Y1653315D01*
X1635275Y1655752D02*
Y1651815D01*
Y1655752D02*
X1637047D01*
X1635275Y1653877D02*
X1636366D01*
X1635275Y1651815D02*
X1637047D01*
X1640775Y1650315D02*
X1646775D01*
X1643775Y1647315D02*
Y1653315D01*
X1645275Y1655752D02*
Y1651815D01*
Y1655752D02*
X1647047D01*
X1645275Y1653877D02*
X1646366D01*
X1645275Y1651815D02*
X1647047D01*
X1630775Y1640315D02*
X1636775D01*
X1633775Y1637315D02*
Y1643315D01*
X1635275Y1645752D02*
Y1641815D01*
Y1645752D02*
X1637047D01*
X1635275Y1643877D02*
X1636366D01*
X1635275Y1641815D02*
X1637047D01*
X1640775Y1640315D02*
X1646775D01*
X1643775Y1637315D02*
Y1643315D01*
X1645275Y1645752D02*
Y1641815D01*
Y1645752D02*
X1647047D01*
X1645275Y1643877D02*
X1646366D01*
X1645275Y1641815D02*
X1647047D01*
X1630775Y1630315D02*
X1636775D01*
X1633775Y1627315D02*
Y1633315D01*
X1635275Y1635752D02*
Y1631815D01*
Y1635752D02*
X1637047D01*
X1635275Y1633877D02*
X1636366D01*
X1635275Y1631815D02*
X1637047D01*
X1640775Y1630315D02*
X1646775D01*
X1643775Y1627315D02*
Y1633315D01*
X1645275Y1635752D02*
Y1631815D01*
Y1635752D02*
X1647047D01*
X1645275Y1633877D02*
X1646366D01*
X1645275Y1631815D02*
X1647047D01*
X1630775Y1620315D02*
X1636775D01*
X1633775Y1617315D02*
Y1623315D01*
X1635275Y1625752D02*
Y1621815D01*
Y1625752D02*
X1637047D01*
X1635275Y1623877D02*
X1636366D01*
X1635275Y1621815D02*
X1637047D01*
X1640775Y1620315D02*
X1646775D01*
X1643775Y1617315D02*
Y1623315D01*
X1645275Y1625752D02*
Y1621815D01*
Y1625752D02*
X1647047D01*
X1645275Y1623877D02*
X1646366D01*
X1645275Y1621815D02*
X1647047D01*
X1630775Y1610315D02*
X1636775D01*
X1633775Y1607315D02*
Y1613315D01*
X1635275Y1615752D02*
Y1611815D01*
Y1615752D02*
X1637047D01*
X1635275Y1613877D02*
X1636366D01*
X1635275Y1611815D02*
X1637047D01*
X1640775Y1610315D02*
X1646775D01*
X1643775Y1607315D02*
Y1613315D01*
X1645275Y1615752D02*
Y1611815D01*
Y1615752D02*
X1647047D01*
X1645275Y1613877D02*
X1646366D01*
X1645275Y1611815D02*
X1647047D01*
X1630775Y1600315D02*
X1636775D01*
X1633775Y1597315D02*
Y1603315D01*
X1635275Y1605752D02*
Y1601815D01*
Y1605752D02*
X1637047D01*
X1635275Y1603877D02*
X1636366D01*
X1635275Y1601815D02*
X1637047D01*
X1640775Y1600315D02*
X1646775D01*
X1643775Y1597315D02*
Y1603315D01*
X1645275Y1605752D02*
Y1601815D01*
Y1605752D02*
X1647047D01*
X1645275Y1603877D02*
X1646366D01*
X1645275Y1601815D02*
X1647047D01*
X1630775Y1590315D02*
X1636775D01*
X1633775Y1587315D02*
Y1593315D01*
X1635275Y1595752D02*
Y1591815D01*
Y1595752D02*
X1637047D01*
X1635275Y1593877D02*
X1636366D01*
X1635275Y1591815D02*
X1637047D01*
X1640775Y1590315D02*
X1646775D01*
X1643775Y1587315D02*
Y1593315D01*
X1645275Y1595752D02*
Y1591815D01*
Y1595752D02*
X1647047D01*
X1645275Y1593877D02*
X1646366D01*
X1645275Y1591815D02*
X1647047D01*
X1630775Y1580315D02*
X1636775D01*
X1633775Y1577315D02*
Y1583315D01*
X1635275Y1585752D02*
Y1581815D01*
Y1585752D02*
X1637047D01*
X1635275Y1583877D02*
X1636366D01*
X1635275Y1581815D02*
X1637047D01*
X1640775Y1580315D02*
X1646775D01*
X1643775Y1577315D02*
Y1583315D01*
X1645275Y1585752D02*
Y1581815D01*
Y1585752D02*
X1647047D01*
X1645275Y1583877D02*
X1646366D01*
X1645275Y1581815D02*
X1647047D01*
X1630775Y1570315D02*
X1636775D01*
X1633775Y1567315D02*
Y1573315D01*
X1635275Y1575752D02*
Y1571815D01*
Y1575752D02*
X1637047D01*
X1635275Y1573877D02*
X1636366D01*
X1635275Y1571815D02*
X1637047D01*
X1640775Y1570315D02*
X1646775D01*
X1643775Y1567315D02*
Y1573315D01*
X1645275Y1575752D02*
Y1571815D01*
Y1575752D02*
X1647047D01*
X1645275Y1573877D02*
X1646366D01*
X1645275Y1571815D02*
X1647047D01*
X1630775Y1560315D02*
X1636775D01*
X1633775Y1557315D02*
Y1563315D01*
X1635275Y1565752D02*
Y1561815D01*
Y1565752D02*
X1637047D01*
X1635275Y1563877D02*
X1636366D01*
X1635275Y1561815D02*
X1637047D01*
X1640775Y1560315D02*
X1646775D01*
X1643775Y1557315D02*
Y1563315D01*
X1645275Y1565752D02*
Y1561815D01*
Y1565752D02*
X1647047D01*
X1645275Y1563877D02*
X1646366D01*
X1645275Y1561815D02*
X1647047D01*
X1630775Y1550315D02*
X1636775D01*
X1633775Y1547315D02*
Y1553315D01*
X1635275Y1555752D02*
Y1551815D01*
Y1555752D02*
X1637047D01*
X1635275Y1553877D02*
X1636366D01*
X1635275Y1551815D02*
X1637047D01*
X1640775Y1550315D02*
X1646775D01*
X1643775Y1547315D02*
Y1553315D01*
X1645275Y1555752D02*
Y1551815D01*
Y1555752D02*
X1647047D01*
X1645275Y1553877D02*
X1646366D01*
X1645275Y1551815D02*
X1647047D01*
X1630775Y1540315D02*
X1636775D01*
X1633775Y1537315D02*
Y1543315D01*
X1635275Y1545752D02*
Y1541815D01*
Y1545752D02*
X1637047D01*
X1635275Y1543877D02*
X1636366D01*
X1635275Y1541815D02*
X1637047D01*
X1640775Y1540315D02*
X1646775D01*
X1643775Y1537315D02*
Y1543315D01*
X1645275Y1545752D02*
Y1541815D01*
Y1545752D02*
X1647047D01*
X1645275Y1543877D02*
X1646366D01*
X1645275Y1541815D02*
X1647047D01*
X1630775Y1530315D02*
X1636775D01*
X1633775Y1527315D02*
Y1533315D01*
X1635275Y1535752D02*
Y1531815D01*
Y1535752D02*
X1637047D01*
X1635275Y1533877D02*
X1636366D01*
X1635275Y1531815D02*
X1637047D01*
X1640775Y1530315D02*
X1646775D01*
X1643775Y1527315D02*
Y1533315D01*
X1645275Y1535752D02*
Y1531815D01*
Y1535752D02*
X1647047D01*
X1645275Y1533877D02*
X1646366D01*
X1645275Y1531815D02*
X1647047D01*
X1630775Y1520315D02*
X1636775D01*
X1633775Y1517315D02*
Y1523315D01*
X1635275Y1525752D02*
Y1521815D01*
Y1525752D02*
X1637047D01*
X1635275Y1523877D02*
X1636366D01*
X1635275Y1521815D02*
X1637047D01*
X1640775Y1520315D02*
X1646775D01*
X1643775Y1517315D02*
Y1523315D01*
X1645275Y1525752D02*
Y1521815D01*
Y1525752D02*
X1647047D01*
X1645275Y1523877D02*
X1646366D01*
X1645275Y1521815D02*
X1647047D01*
X1630775Y1510315D02*
X1636775D01*
X1633775Y1507315D02*
Y1513315D01*
X1635275Y1515752D02*
Y1511815D01*
Y1515752D02*
X1637047D01*
X1635275Y1513877D02*
X1636366D01*
X1635275Y1511815D02*
X1637047D01*
X1640775Y1510315D02*
X1646775D01*
X1643775Y1507315D02*
Y1513315D01*
X1645275Y1515752D02*
Y1511815D01*
Y1515752D02*
X1647047D01*
X1645275Y1513877D02*
X1646366D01*
X1645275Y1511815D02*
X1647047D01*
X1630775Y1500315D02*
X1636775D01*
X1633775Y1497315D02*
Y1503315D01*
X1635275Y1505752D02*
Y1501815D01*
Y1505752D02*
X1637047D01*
X1635275Y1503877D02*
X1636366D01*
X1635275Y1501815D02*
X1637047D01*
X1640775Y1500315D02*
X1646775D01*
X1643775Y1497315D02*
Y1503315D01*
X1645275Y1505752D02*
Y1501815D01*
Y1505752D02*
X1647047D01*
X1645275Y1503877D02*
X1646366D01*
X1645275Y1501815D02*
X1647047D01*
X1630775Y1490315D02*
X1636775D01*
X1633775Y1487315D02*
Y1493315D01*
X1635275Y1495752D02*
Y1491815D01*
Y1495752D02*
X1637047D01*
X1635275Y1493877D02*
X1636366D01*
X1635275Y1491815D02*
X1637047D01*
X1640775Y1490315D02*
X1646775D01*
X1643775Y1487315D02*
Y1493315D01*
X1645275Y1495752D02*
Y1491815D01*
Y1495752D02*
X1647047D01*
X1645275Y1493877D02*
X1646366D01*
X1645275Y1491815D02*
X1647047D01*
X1630775Y1480315D02*
X1636775D01*
X1633775Y1477315D02*
Y1483315D01*
X1635275Y1485752D02*
Y1481815D01*
Y1485752D02*
X1637047D01*
X1635275Y1483877D02*
X1636366D01*
X1635275Y1481815D02*
X1637047D01*
X1640775Y1480315D02*
X1646775D01*
X1643775Y1477315D02*
Y1483315D01*
X1645275Y1485752D02*
Y1481815D01*
Y1485752D02*
X1647047D01*
X1645275Y1483877D02*
X1646366D01*
X1645275Y1481815D02*
X1647047D01*
X1630775Y1470315D02*
X1636775D01*
X1633775Y1467315D02*
Y1473315D01*
X1635275Y1475752D02*
Y1471815D01*
Y1475752D02*
X1637047D01*
X1635275Y1473877D02*
X1636366D01*
X1635275Y1471815D02*
X1637047D01*
X1640775Y1470315D02*
X1646775D01*
X1643775Y1467315D02*
Y1473315D01*
X1645275Y1475752D02*
Y1471815D01*
Y1475752D02*
X1647047D01*
X1645275Y1473877D02*
X1646366D01*
X1645275Y1471815D02*
X1647047D01*
X1630775Y1460315D02*
X1636775D01*
X1633775Y1457315D02*
Y1463315D01*
X1635275Y1465752D02*
Y1461815D01*
Y1465752D02*
X1637047D01*
X1635275Y1463877D02*
X1636366D01*
X1635275Y1461815D02*
X1637047D01*
X1640775Y1460315D02*
X1646775D01*
X1643775Y1457315D02*
Y1463315D01*
X1645275Y1465752D02*
Y1461815D01*
Y1465752D02*
X1647047D01*
X1645275Y1463877D02*
X1646366D01*
X1645275Y1461815D02*
X1647047D01*
X1630775Y1450315D02*
X1636775D01*
X1633775Y1447315D02*
Y1453315D01*
X1635275Y1455752D02*
Y1451815D01*
Y1455752D02*
X1637047D01*
X1635275Y1453877D02*
X1636366D01*
X1635275Y1451815D02*
X1637047D01*
X1640775Y1450315D02*
X1646775D01*
X1643775Y1447315D02*
Y1453315D01*
X1645275Y1455752D02*
Y1451815D01*
Y1455752D02*
X1647047D01*
X1645275Y1453877D02*
X1646366D01*
X1645275Y1451815D02*
X1647047D01*
X1630775Y1440315D02*
X1636775D01*
X1633775Y1437315D02*
Y1443315D01*
X1635275Y1445752D02*
Y1441815D01*
Y1445752D02*
X1637047D01*
X1635275Y1443877D02*
X1636366D01*
X1635275Y1441815D02*
X1637047D01*
X1640775Y1440315D02*
X1646775D01*
X1643775Y1437315D02*
Y1443315D01*
X1645275Y1445752D02*
Y1441815D01*
Y1445752D02*
X1647047D01*
X1645275Y1443877D02*
X1646366D01*
X1645275Y1441815D02*
X1647047D01*
X1630775Y1430315D02*
X1636775D01*
X1633775Y1427315D02*
Y1433315D01*
X1635275Y1435752D02*
Y1431815D01*
Y1435752D02*
X1637047D01*
X1635275Y1433877D02*
X1636366D01*
X1635275Y1431815D02*
X1637047D01*
X1640775Y1430315D02*
X1646775D01*
X1643775Y1427315D02*
Y1433315D01*
X1645275Y1435752D02*
Y1431815D01*
Y1435752D02*
X1647047D01*
X1645275Y1433877D02*
X1646366D01*
X1645275Y1431815D02*
X1647047D01*
X1630775Y1420315D02*
X1636775D01*
X1633775Y1417315D02*
Y1423315D01*
X1635275Y1425752D02*
Y1421815D01*
Y1425752D02*
X1637047D01*
X1635275Y1423877D02*
X1636366D01*
X1635275Y1421815D02*
X1637047D01*
X1640775Y1420315D02*
X1646775D01*
X1643775Y1417315D02*
Y1423315D01*
X1645275Y1425752D02*
Y1421815D01*
Y1425752D02*
X1647047D01*
X1645275Y1423877D02*
X1646366D01*
X1645275Y1421815D02*
X1647047D01*
X1630775Y1410315D02*
X1636775D01*
X1633775Y1407315D02*
Y1413315D01*
X1635275Y1415752D02*
Y1411815D01*
Y1415752D02*
X1637047D01*
X1635275Y1413877D02*
X1636366D01*
X1635275Y1411815D02*
X1637047D01*
X1640775Y1410315D02*
X1646775D01*
X1643775Y1407315D02*
Y1413315D01*
X1645275Y1415752D02*
Y1411815D01*
Y1415752D02*
X1647047D01*
X1645275Y1413877D02*
X1646366D01*
X1645275Y1411815D02*
X1647047D01*
X1630775Y1400315D02*
X1636775D01*
X1633775Y1397315D02*
Y1403315D01*
X1635275Y1405752D02*
Y1401815D01*
Y1405752D02*
X1637047D01*
X1635275Y1403877D02*
X1636366D01*
X1635275Y1401815D02*
X1637047D01*
X1640775Y1400315D02*
X1646775D01*
X1643775Y1397315D02*
Y1403315D01*
X1645275Y1405752D02*
Y1401815D01*
Y1405752D02*
X1647047D01*
X1645275Y1403877D02*
X1646366D01*
X1645275Y1401815D02*
X1647047D01*
X1630775Y1390315D02*
X1636775D01*
X1633775Y1387315D02*
Y1393315D01*
X1635275Y1395752D02*
Y1391815D01*
Y1395752D02*
X1637047D01*
X1635275Y1393877D02*
X1636366D01*
X1635275Y1391815D02*
X1637047D01*
X1640775Y1390315D02*
X1646775D01*
X1643775Y1387315D02*
Y1393315D01*
X1645275Y1395752D02*
Y1391815D01*
Y1395752D02*
X1647047D01*
X1645275Y1393877D02*
X1646366D01*
X1645275Y1391815D02*
X1647047D01*
X1830775Y1700315D02*
X1836775D01*
X1833775Y1697315D02*
Y1703315D01*
X1835275Y1705752D02*
Y1701815D01*
Y1705752D02*
X1837047D01*
X1835275Y1703877D02*
X1836366D01*
X1835275Y1701815D02*
X1837047D01*
X1840775Y1700315D02*
X1846775D01*
X1843775Y1697315D02*
Y1703315D01*
X1845275Y1705752D02*
Y1701815D01*
Y1705752D02*
X1847047D01*
X1845275Y1703877D02*
X1846366D01*
X1845275Y1701815D02*
X1847047D01*
X1830775Y1690315D02*
X1836775D01*
X1833775Y1687315D02*
Y1693315D01*
X1835275Y1695752D02*
Y1691815D01*
Y1695752D02*
X1837047D01*
X1835275Y1693877D02*
X1836366D01*
X1835275Y1691815D02*
X1837047D01*
X1840775Y1690315D02*
X1846775D01*
X1843775Y1687315D02*
Y1693315D01*
X1845275Y1695752D02*
Y1691815D01*
Y1695752D02*
X1847047D01*
X1845275Y1693877D02*
X1846366D01*
X1845275Y1691815D02*
X1847047D01*
X1830775Y1680315D02*
X1836775D01*
X1833775Y1677315D02*
Y1683315D01*
X1835275Y1685752D02*
Y1681815D01*
Y1685752D02*
X1837047D01*
X1835275Y1683877D02*
X1836366D01*
X1835275Y1681815D02*
X1837047D01*
X1840775Y1680315D02*
X1846775D01*
X1843775Y1677315D02*
Y1683315D01*
X1845275Y1685752D02*
Y1681815D01*
Y1685752D02*
X1847047D01*
X1845275Y1683877D02*
X1846366D01*
X1845275Y1681815D02*
X1847047D01*
X1830775Y1670315D02*
X1836775D01*
X1833775Y1667315D02*
Y1673315D01*
X1835275Y1675752D02*
Y1671815D01*
Y1675752D02*
X1837047D01*
X1835275Y1673877D02*
X1836366D01*
X1835275Y1671815D02*
X1837047D01*
X1840775Y1670315D02*
X1846775D01*
X1843775Y1667315D02*
Y1673315D01*
X1845275Y1675752D02*
Y1671815D01*
Y1675752D02*
X1847047D01*
X1845275Y1673877D02*
X1846366D01*
X1845275Y1671815D02*
X1847047D01*
X1830775Y1660315D02*
X1836775D01*
X1833775Y1657315D02*
Y1663315D01*
X1835275Y1665752D02*
Y1661815D01*
Y1665752D02*
X1837047D01*
X1835275Y1663877D02*
X1836366D01*
X1835275Y1661815D02*
X1837047D01*
X1840775Y1660315D02*
X1846775D01*
X1843775Y1657315D02*
Y1663315D01*
X1845275Y1665752D02*
Y1661815D01*
Y1665752D02*
X1847047D01*
X1845275Y1663877D02*
X1846366D01*
X1845275Y1661815D02*
X1847047D01*
X1830775Y1650315D02*
X1836775D01*
X1833775Y1647315D02*
Y1653315D01*
X1835275Y1655752D02*
Y1651815D01*
Y1655752D02*
X1837047D01*
X1835275Y1653877D02*
X1836366D01*
X1835275Y1651815D02*
X1837047D01*
X1840775Y1650315D02*
X1846775D01*
X1843775Y1647315D02*
Y1653315D01*
X1845275Y1655752D02*
Y1651815D01*
Y1655752D02*
X1847047D01*
X1845275Y1653877D02*
X1846366D01*
X1845275Y1651815D02*
X1847047D01*
X1830775Y1640315D02*
X1836775D01*
X1833775Y1637315D02*
Y1643315D01*
X1835275Y1645752D02*
Y1641815D01*
Y1645752D02*
X1837047D01*
X1835275Y1643877D02*
X1836366D01*
X1835275Y1641815D02*
X1837047D01*
X1840775Y1640315D02*
X1846775D01*
X1843775Y1637315D02*
Y1643315D01*
X1845275Y1645752D02*
Y1641815D01*
Y1645752D02*
X1847047D01*
X1845275Y1643877D02*
X1846366D01*
X1845275Y1641815D02*
X1847047D01*
X1830775Y1630315D02*
X1836775D01*
X1833775Y1627315D02*
Y1633315D01*
X1835275Y1635752D02*
Y1631815D01*
Y1635752D02*
X1837047D01*
X1835275Y1633877D02*
X1836366D01*
X1835275Y1631815D02*
X1837047D01*
X1840775Y1630315D02*
X1846775D01*
X1843775Y1627315D02*
Y1633315D01*
X1845275Y1635752D02*
Y1631815D01*
Y1635752D02*
X1847047D01*
X1845275Y1633877D02*
X1846366D01*
X1845275Y1631815D02*
X1847047D01*
X1830775Y1620315D02*
X1836775D01*
X1833775Y1617315D02*
Y1623315D01*
X1835275Y1625752D02*
Y1621815D01*
Y1625752D02*
X1837047D01*
X1835275Y1623877D02*
X1836366D01*
X1835275Y1621815D02*
X1837047D01*
X1840775Y1620315D02*
X1846775D01*
X1843775Y1617315D02*
Y1623315D01*
X1845275Y1625752D02*
Y1621815D01*
Y1625752D02*
X1847047D01*
X1845275Y1623877D02*
X1846366D01*
X1845275Y1621815D02*
X1847047D01*
X1830775Y1610315D02*
X1836775D01*
X1833775Y1607315D02*
Y1613315D01*
X1835275Y1615752D02*
Y1611815D01*
Y1615752D02*
X1837047D01*
X1835275Y1613877D02*
X1836366D01*
X1835275Y1611815D02*
X1837047D01*
X1840775Y1610315D02*
X1846775D01*
X1843775Y1607315D02*
Y1613315D01*
X1845275Y1615752D02*
Y1611815D01*
Y1615752D02*
X1847047D01*
X1845275Y1613877D02*
X1846366D01*
X1845275Y1611815D02*
X1847047D01*
X1830775Y1600315D02*
X1836775D01*
X1833775Y1597315D02*
Y1603315D01*
X1835275Y1605752D02*
Y1601815D01*
Y1605752D02*
X1837047D01*
X1835275Y1603877D02*
X1836366D01*
X1835275Y1601815D02*
X1837047D01*
X1840775Y1600315D02*
X1846775D01*
X1843775Y1597315D02*
Y1603315D01*
X1845275Y1605752D02*
Y1601815D01*
Y1605752D02*
X1847047D01*
X1845275Y1603877D02*
X1846366D01*
X1845275Y1601815D02*
X1847047D01*
X1830775Y1590315D02*
X1836775D01*
X1833775Y1587315D02*
Y1593315D01*
X1835275Y1595752D02*
Y1591815D01*
Y1595752D02*
X1837047D01*
X1835275Y1593877D02*
X1836366D01*
X1835275Y1591815D02*
X1837047D01*
X1840775Y1590315D02*
X1846775D01*
X1843775Y1587315D02*
Y1593315D01*
X1845275Y1595752D02*
Y1591815D01*
Y1595752D02*
X1847047D01*
X1845275Y1593877D02*
X1846366D01*
X1845275Y1591815D02*
X1847047D01*
X1830775Y1580315D02*
X1836775D01*
X1833775Y1577315D02*
Y1583315D01*
X1835275Y1585752D02*
Y1581815D01*
Y1585752D02*
X1837047D01*
X1835275Y1583877D02*
X1836366D01*
X1835275Y1581815D02*
X1837047D01*
X1840775Y1580315D02*
X1846775D01*
X1843775Y1577315D02*
Y1583315D01*
X1845275Y1585752D02*
Y1581815D01*
Y1585752D02*
X1847047D01*
X1845275Y1583877D02*
X1846366D01*
X1845275Y1581815D02*
X1847047D01*
X1830775Y1570315D02*
X1836775D01*
X1833775Y1567315D02*
Y1573315D01*
X1835275Y1575752D02*
Y1571815D01*
Y1575752D02*
X1837047D01*
X1835275Y1573877D02*
X1836366D01*
X1835275Y1571815D02*
X1837047D01*
X1840775Y1570315D02*
X1846775D01*
X1843775Y1567315D02*
Y1573315D01*
X1845275Y1575752D02*
Y1571815D01*
Y1575752D02*
X1847047D01*
X1845275Y1573877D02*
X1846366D01*
X1845275Y1571815D02*
X1847047D01*
X1830775Y1560315D02*
X1836775D01*
X1833775Y1557315D02*
Y1563315D01*
X1835275Y1565752D02*
Y1561815D01*
Y1565752D02*
X1837047D01*
X1835275Y1563877D02*
X1836366D01*
X1835275Y1561815D02*
X1837047D01*
X1840775Y1560315D02*
X1846775D01*
X1843775Y1557315D02*
Y1563315D01*
X1845275Y1565752D02*
Y1561815D01*
Y1565752D02*
X1847047D01*
X1845275Y1563877D02*
X1846366D01*
X1845275Y1561815D02*
X1847047D01*
X1830775Y1550315D02*
X1836775D01*
X1833775Y1547315D02*
Y1553315D01*
X1835275Y1555752D02*
Y1551815D01*
Y1555752D02*
X1837047D01*
X1835275Y1553877D02*
X1836366D01*
X1835275Y1551815D02*
X1837047D01*
X1840775Y1550315D02*
X1846775D01*
X1843775Y1547315D02*
Y1553315D01*
X1845275Y1555752D02*
Y1551815D01*
Y1555752D02*
X1847047D01*
X1845275Y1553877D02*
X1846366D01*
X1845275Y1551815D02*
X1847047D01*
X1830775Y1540315D02*
X1836775D01*
X1833775Y1537315D02*
Y1543315D01*
X1835275Y1545752D02*
Y1541815D01*
Y1545752D02*
X1837047D01*
X1835275Y1543877D02*
X1836366D01*
X1835275Y1541815D02*
X1837047D01*
X1840775Y1540315D02*
X1846775D01*
X1843775Y1537315D02*
Y1543315D01*
X1845275Y1545752D02*
Y1541815D01*
Y1545752D02*
X1847047D01*
X1845275Y1543877D02*
X1846366D01*
X1845275Y1541815D02*
X1847047D01*
X1830775Y1530315D02*
X1836775D01*
X1833775Y1527315D02*
Y1533315D01*
X1835275Y1535752D02*
Y1531815D01*
Y1535752D02*
X1837047D01*
X1835275Y1533877D02*
X1836366D01*
X1835275Y1531815D02*
X1837047D01*
X1840775Y1530315D02*
X1846775D01*
X1843775Y1527315D02*
Y1533315D01*
X1845275Y1535752D02*
Y1531815D01*
Y1535752D02*
X1847047D01*
X1845275Y1533877D02*
X1846366D01*
X1845275Y1531815D02*
X1847047D01*
X1830775Y1520315D02*
X1836775D01*
X1833775Y1517315D02*
Y1523315D01*
X1835275Y1525752D02*
Y1521815D01*
Y1525752D02*
X1837047D01*
X1835275Y1523877D02*
X1836366D01*
X1835275Y1521815D02*
X1837047D01*
X1840775Y1520315D02*
X1846775D01*
X1843775Y1517315D02*
Y1523315D01*
X1845275Y1525752D02*
Y1521815D01*
Y1525752D02*
X1847047D01*
X1845275Y1523877D02*
X1846366D01*
X1845275Y1521815D02*
X1847047D01*
X1830775Y1510315D02*
X1836775D01*
X1833775Y1507315D02*
Y1513315D01*
X1835275Y1515752D02*
Y1511815D01*
Y1515752D02*
X1837047D01*
X1835275Y1513877D02*
X1836366D01*
X1835275Y1511815D02*
X1837047D01*
X1840775Y1510315D02*
X1846775D01*
X1843775Y1507315D02*
Y1513315D01*
X1845275Y1515752D02*
Y1511815D01*
Y1515752D02*
X1847047D01*
X1845275Y1513877D02*
X1846366D01*
X1845275Y1511815D02*
X1847047D01*
X1830775Y1500315D02*
X1836775D01*
X1833775Y1497315D02*
Y1503315D01*
X1835275Y1505752D02*
Y1501815D01*
Y1505752D02*
X1837047D01*
X1835275Y1503877D02*
X1836366D01*
X1835275Y1501815D02*
X1837047D01*
X1840775Y1500315D02*
X1846775D01*
X1843775Y1497315D02*
Y1503315D01*
X1845275Y1505752D02*
Y1501815D01*
Y1505752D02*
X1847047D01*
X1845275Y1503877D02*
X1846366D01*
X1845275Y1501815D02*
X1847047D01*
X1830775Y1490315D02*
X1836775D01*
X1833775Y1487315D02*
Y1493315D01*
X1835275Y1495752D02*
Y1491815D01*
Y1495752D02*
X1837047D01*
X1835275Y1493877D02*
X1836366D01*
X1835275Y1491815D02*
X1837047D01*
X1840775Y1490315D02*
X1846775D01*
X1843775Y1487315D02*
Y1493315D01*
X1845275Y1495752D02*
Y1491815D01*
Y1495752D02*
X1847047D01*
X1845275Y1493877D02*
X1846366D01*
X1845275Y1491815D02*
X1847047D01*
X1830775Y1480315D02*
X1836775D01*
X1833775Y1477315D02*
Y1483315D01*
X1835275Y1485752D02*
Y1481815D01*
Y1485752D02*
X1837047D01*
X1835275Y1483877D02*
X1836366D01*
X1835275Y1481815D02*
X1837047D01*
X1840775Y1480315D02*
X1846775D01*
X1843775Y1477315D02*
Y1483315D01*
X1845275Y1485752D02*
Y1481815D01*
Y1485752D02*
X1847047D01*
X1845275Y1483877D02*
X1846366D01*
X1845275Y1481815D02*
X1847047D01*
X1830775Y1470315D02*
X1836775D01*
X1833775Y1467315D02*
Y1473315D01*
X1835275Y1475752D02*
Y1471815D01*
Y1475752D02*
X1837047D01*
X1835275Y1473877D02*
X1836366D01*
X1835275Y1471815D02*
X1837047D01*
X1840775Y1470315D02*
X1846775D01*
X1843775Y1467315D02*
Y1473315D01*
X1845275Y1475752D02*
Y1471815D01*
Y1475752D02*
X1847047D01*
X1845275Y1473877D02*
X1846366D01*
X1845275Y1471815D02*
X1847047D01*
X1830775Y1460315D02*
X1836775D01*
X1833775Y1457315D02*
Y1463315D01*
X1835275Y1465752D02*
Y1461815D01*
Y1465752D02*
X1837047D01*
X1835275Y1463877D02*
X1836366D01*
X1835275Y1461815D02*
X1837047D01*
X1840775Y1460315D02*
X1846775D01*
X1843775Y1457315D02*
Y1463315D01*
X1845275Y1465752D02*
Y1461815D01*
Y1465752D02*
X1847047D01*
X1845275Y1463877D02*
X1846366D01*
X1845275Y1461815D02*
X1847047D01*
X1830775Y1450315D02*
X1836775D01*
X1833775Y1447315D02*
Y1453315D01*
X1835275Y1455752D02*
Y1451815D01*
Y1455752D02*
X1837047D01*
X1835275Y1453877D02*
X1836366D01*
X1835275Y1451815D02*
X1837047D01*
X1840775Y1450315D02*
X1846775D01*
X1843775Y1447315D02*
Y1453315D01*
X1845275Y1455752D02*
Y1451815D01*
Y1455752D02*
X1847047D01*
X1845275Y1453877D02*
X1846366D01*
X1845275Y1451815D02*
X1847047D01*
X1830775Y1440315D02*
X1836775D01*
X1833775Y1437315D02*
Y1443315D01*
X1835275Y1445752D02*
Y1441815D01*
Y1445752D02*
X1837047D01*
X1835275Y1443877D02*
X1836366D01*
X1835275Y1441815D02*
X1837047D01*
X1840775Y1440315D02*
X1846775D01*
X1843775Y1437315D02*
Y1443315D01*
X1845275Y1445752D02*
Y1441815D01*
Y1445752D02*
X1847047D01*
X1845275Y1443877D02*
X1846366D01*
X1845275Y1441815D02*
X1847047D01*
X1830775Y1430315D02*
X1836775D01*
X1833775Y1427315D02*
Y1433315D01*
X1835275Y1435752D02*
Y1431815D01*
Y1435752D02*
X1837047D01*
X1835275Y1433877D02*
X1836366D01*
X1835275Y1431815D02*
X1837047D01*
X1840775Y1430315D02*
X1846775D01*
X1843775Y1427315D02*
Y1433315D01*
X1845275Y1435752D02*
Y1431815D01*
Y1435752D02*
X1847047D01*
X1845275Y1433877D02*
X1846366D01*
X1845275Y1431815D02*
X1847047D01*
X1830775Y1420315D02*
X1836775D01*
X1833775Y1417315D02*
Y1423315D01*
X1835275Y1425752D02*
Y1421815D01*
Y1425752D02*
X1837047D01*
X1835275Y1423877D02*
X1836366D01*
X1835275Y1421815D02*
X1837047D01*
X1840775Y1420315D02*
X1846775D01*
X1843775Y1417315D02*
Y1423315D01*
X1845275Y1425752D02*
Y1421815D01*
Y1425752D02*
X1847047D01*
X1845275Y1423877D02*
X1846366D01*
X1845275Y1421815D02*
X1847047D01*
X1830775Y1410315D02*
X1836775D01*
X1833775Y1407315D02*
Y1413315D01*
X1835275Y1415752D02*
Y1411815D01*
Y1415752D02*
X1837047D01*
X1835275Y1413877D02*
X1836366D01*
X1835275Y1411815D02*
X1837047D01*
X1840775Y1410315D02*
X1846775D01*
X1843775Y1407315D02*
Y1413315D01*
X1845275Y1415752D02*
Y1411815D01*
Y1415752D02*
X1847047D01*
X1845275Y1413877D02*
X1846366D01*
X1845275Y1411815D02*
X1847047D01*
X1830775Y1400315D02*
X1836775D01*
X1833775Y1397315D02*
Y1403315D01*
X1835275Y1405752D02*
Y1401815D01*
Y1405752D02*
X1837047D01*
X1835275Y1403877D02*
X1836366D01*
X1835275Y1401815D02*
X1837047D01*
X1840775Y1400315D02*
X1846775D01*
X1843775Y1397315D02*
Y1403315D01*
X1845275Y1405752D02*
Y1401815D01*
Y1405752D02*
X1847047D01*
X1845275Y1403877D02*
X1846366D01*
X1845275Y1401815D02*
X1847047D01*
X1830775Y1390315D02*
X1836775D01*
X1833775Y1387315D02*
Y1393315D01*
X1835275Y1395752D02*
Y1391815D01*
Y1395752D02*
X1837047D01*
X1835275Y1393877D02*
X1836366D01*
X1835275Y1391815D02*
X1837047D01*
X1840775Y1390315D02*
X1846775D01*
X1843775Y1387315D02*
Y1393315D01*
X1845275Y1395752D02*
Y1391815D01*
Y1395752D02*
X1847047D01*
X1845275Y1393877D02*
X1846366D01*
X1845275Y1391815D02*
X1847047D01*
X1558609Y1383465D02*
X1564609D01*
X1561609Y1380465D02*
Y1386465D01*
X1563109Y1388902D02*
Y1384965D01*
Y1388902D02*
X1564882D01*
X1563109Y1387027D02*
X1564200D01*
X1558609Y1816535D02*
X1564609D01*
X1561609Y1813535D02*
Y1819535D01*
X1563109Y1821973D02*
Y1818035D01*
Y1821973D02*
X1564882D01*
X1563109Y1820098D02*
X1564200D01*
X1912940Y1816535D02*
X1918940D01*
X1915940Y1813535D02*
Y1819535D01*
X1917440Y1821973D02*
Y1818035D01*
Y1821973D02*
X1919213D01*
X1917440Y1820098D02*
X1918531D01*
X1912940Y1383465D02*
X1918940D01*
X1915940Y1380465D02*
Y1386465D01*
X1917440Y1388902D02*
Y1384965D01*
Y1388902D02*
X1919213D01*
X1917440Y1387027D02*
X1918531D01*
X1586424Y1377530D02*
X1592424D01*
X1589424Y1374530D02*
Y1380530D01*
X1606424Y1377530D02*
X1612424D01*
X1609424Y1374530D02*
Y1380530D01*
X1626424Y1377530D02*
X1632424D01*
X1629424Y1374530D02*
Y1380530D01*
X1646424Y1377530D02*
X1652424D01*
X1649424Y1374530D02*
Y1380530D01*
X1666424Y1377530D02*
X1672424D01*
X1669424Y1374530D02*
Y1380530D01*
X1686424Y1377530D02*
X1692424D01*
X1689424Y1374530D02*
Y1380530D01*
X1706424Y1377530D02*
X1712424D01*
X1709424Y1374530D02*
Y1380530D01*
X1726424Y1377530D02*
X1732424D01*
X1729424Y1374530D02*
Y1380530D01*
X1746424Y1377530D02*
X1752424D01*
X1749424Y1374530D02*
Y1380530D01*
X1766424Y1377530D02*
X1772424D01*
X1769424Y1374530D02*
Y1380530D01*
X1786424Y1377530D02*
X1792424D01*
X1789424Y1374530D02*
Y1380530D01*
X1806424Y1377530D02*
X1812424D01*
X1809424Y1374530D02*
Y1380530D01*
X1826424Y1377530D02*
X1832424D01*
X1829424Y1374530D02*
Y1380530D01*
X1846424Y1377530D02*
X1852424D01*
X1849424Y1374530D02*
Y1380530D01*
X1866424Y1377530D02*
X1872424D01*
X1869424Y1374530D02*
Y1380530D01*
X1586424Y1397530D02*
X1592424D01*
X1589424Y1394530D02*
Y1400530D01*
X1606424Y1397530D02*
X1612424D01*
X1609424Y1394530D02*
Y1400530D01*
X1646424Y1397530D02*
X1652424D01*
X1649424Y1394530D02*
Y1400530D01*
X1666424Y1397530D02*
X1672424D01*
X1669424Y1394530D02*
Y1400530D01*
X1686424Y1397530D02*
X1692424D01*
X1689424Y1394530D02*
Y1400530D01*
X1706424Y1397530D02*
X1712424D01*
X1709424Y1394530D02*
Y1400530D01*
X1726424Y1397530D02*
X1732424D01*
X1729424Y1394530D02*
Y1400530D01*
X1746424Y1397530D02*
X1752424D01*
X1749424Y1394530D02*
Y1400530D01*
X1766424Y1397530D02*
X1772424D01*
X1769424Y1394530D02*
Y1400530D01*
X1786424Y1397530D02*
X1792424D01*
X1789424Y1394530D02*
Y1400530D01*
X1806424Y1397530D02*
X1812424D01*
X1809424Y1394530D02*
Y1400530D01*
X1846424Y1397530D02*
X1852424D01*
X1849424Y1394530D02*
Y1400530D01*
X1866424Y1397530D02*
X1872424D01*
X1869424Y1394530D02*
Y1400530D01*
X1566424Y1417530D02*
X1572424D01*
X1569424Y1414530D02*
Y1420530D01*
X1586424Y1417530D02*
X1592424D01*
X1589424Y1414530D02*
Y1420530D01*
X1606424Y1417530D02*
X1612424D01*
X1609424Y1414530D02*
Y1420530D01*
X1646424Y1417530D02*
X1652424D01*
X1649424Y1414530D02*
Y1420530D01*
X1666424Y1417530D02*
X1672424D01*
X1669424Y1414530D02*
Y1420530D01*
X1686424Y1417530D02*
X1692424D01*
X1689424Y1414530D02*
Y1420530D01*
X1706424Y1417530D02*
X1712424D01*
X1709424Y1414530D02*
Y1420530D01*
X1726424Y1417530D02*
X1732424D01*
X1729424Y1414530D02*
Y1420530D01*
X1746424Y1417530D02*
X1752424D01*
X1749424Y1414530D02*
Y1420530D01*
X1766424Y1417530D02*
X1772424D01*
X1769424Y1414530D02*
Y1420530D01*
X1786424Y1417530D02*
X1792424D01*
X1789424Y1414530D02*
Y1420530D01*
X1806424Y1417530D02*
X1812424D01*
X1809424Y1414530D02*
Y1420530D01*
X1846424Y1417530D02*
X1852424D01*
X1849424Y1414530D02*
Y1420530D01*
X1866424Y1417530D02*
X1872424D01*
X1869424Y1414530D02*
Y1420530D01*
X1566424Y1437530D02*
X1572424D01*
X1569424Y1434530D02*
Y1440530D01*
X1586424Y1437530D02*
X1592424D01*
X1589424Y1434530D02*
Y1440530D01*
X1606424Y1437530D02*
X1612424D01*
X1609424Y1434530D02*
Y1440530D01*
X1646424Y1437530D02*
X1652424D01*
X1649424Y1434530D02*
Y1440530D01*
X1666424Y1437530D02*
X1672424D01*
X1669424Y1434530D02*
Y1440530D01*
X1686424Y1437530D02*
X1692424D01*
X1689424Y1434530D02*
Y1440530D01*
X1706424Y1437530D02*
X1712424D01*
X1709424Y1434530D02*
Y1440530D01*
X1726424Y1437530D02*
X1732424D01*
X1729424Y1434530D02*
Y1440530D01*
X1746424Y1437530D02*
X1752424D01*
X1749424Y1434530D02*
Y1440530D01*
X1766424Y1437530D02*
X1772424D01*
X1769424Y1434530D02*
Y1440530D01*
X1786424Y1437530D02*
X1792424D01*
X1789424Y1434530D02*
Y1440530D01*
X1806424Y1437530D02*
X1812424D01*
X1809424Y1434530D02*
Y1440530D01*
X1846424Y1437530D02*
X1852424D01*
X1849424Y1434530D02*
Y1440530D01*
X1866424Y1437530D02*
X1872424D01*
X1869424Y1434530D02*
Y1440530D01*
X1566424Y1457530D02*
X1572424D01*
X1569424Y1454530D02*
Y1460530D01*
X1586424Y1457530D02*
X1592424D01*
X1589424Y1454530D02*
Y1460530D01*
X1606424Y1457530D02*
X1612424D01*
X1609424Y1454530D02*
Y1460530D01*
X1646424Y1457530D02*
X1652424D01*
X1649424Y1454530D02*
Y1460530D01*
X1666424Y1461280D02*
X1672424D01*
X1669424Y1458280D02*
Y1464280D01*
X1686424Y1461280D02*
X1692424D01*
X1689424Y1458280D02*
Y1464280D01*
X1706424Y1461280D02*
X1712424D01*
X1709424Y1458280D02*
Y1464280D01*
X1726424Y1461280D02*
X1732424D01*
X1729424Y1458280D02*
Y1464280D01*
X1746424Y1461280D02*
X1752424D01*
X1749424Y1458280D02*
Y1464280D01*
X1766424Y1461280D02*
X1772424D01*
X1769424Y1458280D02*
Y1464280D01*
X1786424Y1461280D02*
X1792424D01*
X1789424Y1458280D02*
Y1464280D01*
X1846424Y1457530D02*
X1852424D01*
X1849424Y1454530D02*
Y1460530D01*
X1866424Y1457530D02*
X1872424D01*
X1869424Y1454530D02*
Y1460530D01*
X1566424Y1477530D02*
X1572424D01*
X1569424Y1474530D02*
Y1480530D01*
X1586424Y1477530D02*
X1592424D01*
X1589424Y1474530D02*
Y1480530D01*
X1606424Y1477530D02*
X1612424D01*
X1609424Y1474530D02*
Y1480530D01*
X1646424Y1477530D02*
X1652424D01*
X1649424Y1474530D02*
Y1480530D01*
X1706424Y1481280D02*
X1712424D01*
X1709424Y1478280D02*
Y1484280D01*
X1726424Y1481280D02*
X1732424D01*
X1729424Y1478280D02*
Y1484280D01*
X1746424Y1481280D02*
X1752424D01*
X1749424Y1478280D02*
Y1484280D01*
X1766424Y1481280D02*
X1772424D01*
X1769424Y1478280D02*
Y1484280D01*
X1786424Y1481280D02*
X1792424D01*
X1789424Y1478280D02*
Y1484280D01*
X1846424Y1477530D02*
X1852424D01*
X1849424Y1474530D02*
Y1480530D01*
X1866424Y1477530D02*
X1872424D01*
X1869424Y1474530D02*
Y1480530D01*
X1566424Y1497530D02*
X1572424D01*
X1569424Y1494530D02*
Y1500530D01*
X1586424Y1497530D02*
X1592424D01*
X1589424Y1494530D02*
Y1500530D01*
X1606424Y1497530D02*
X1612424D01*
X1609424Y1494530D02*
Y1500530D01*
X1646424Y1497530D02*
X1652424D01*
X1649424Y1494530D02*
Y1500530D01*
X1706424Y1501280D02*
X1712424D01*
X1709424Y1498280D02*
Y1504280D01*
X1726424Y1501280D02*
X1732424D01*
X1729424Y1498280D02*
Y1504280D01*
X1746424Y1501280D02*
X1752424D01*
X1749424Y1498280D02*
Y1504280D01*
X1766424Y1501280D02*
X1772424D01*
X1769424Y1498280D02*
Y1504280D01*
X1786424Y1501280D02*
X1792424D01*
X1789424Y1498280D02*
Y1504280D01*
X1846424Y1497530D02*
X1852424D01*
X1849424Y1494530D02*
Y1500530D01*
X1866424Y1497530D02*
X1872424D01*
X1869424Y1494530D02*
Y1500530D01*
X1566424Y1517530D02*
X1572424D01*
X1569424Y1514530D02*
Y1520530D01*
X1586424Y1517530D02*
X1592424D01*
X1589424Y1514530D02*
Y1520530D01*
X1606424Y1517530D02*
X1612424D01*
X1609424Y1514530D02*
Y1520530D01*
X1646424Y1517530D02*
X1652424D01*
X1649424Y1514530D02*
Y1520530D01*
X1706424Y1521280D02*
X1712424D01*
X1709424Y1518280D02*
Y1524280D01*
X1726424Y1521280D02*
X1732424D01*
X1729424Y1518280D02*
Y1524280D01*
X1746424Y1521280D02*
X1752424D01*
X1749424Y1518280D02*
Y1524280D01*
X1766424Y1521280D02*
X1772424D01*
X1769424Y1518280D02*
Y1524280D01*
X1786424Y1521280D02*
X1792424D01*
X1789424Y1518280D02*
Y1524280D01*
X1846424Y1517530D02*
X1852424D01*
X1849424Y1514530D02*
Y1520530D01*
X1866424Y1517530D02*
X1872424D01*
X1869424Y1514530D02*
Y1520530D01*
X1566424Y1537530D02*
X1572424D01*
X1569424Y1534530D02*
Y1540530D01*
X1586424Y1537530D02*
X1592424D01*
X1589424Y1534530D02*
Y1540530D01*
X1606424Y1537530D02*
X1612424D01*
X1609424Y1534530D02*
Y1540530D01*
X1646424Y1537530D02*
X1652424D01*
X1649424Y1534530D02*
Y1540530D01*
X1706424Y1541280D02*
X1712424D01*
X1709424Y1538280D02*
Y1544280D01*
X1746424Y1541280D02*
X1752424D01*
X1749424Y1538280D02*
Y1544280D01*
X1846424Y1537530D02*
X1852424D01*
X1849424Y1534530D02*
Y1540530D01*
X1866424Y1537530D02*
X1872424D01*
X1869424Y1534530D02*
Y1540530D01*
X1566424Y1557530D02*
X1572424D01*
X1569424Y1554530D02*
Y1560530D01*
X1586424Y1557530D02*
X1592424D01*
X1589424Y1554530D02*
Y1560530D01*
X1606424Y1557530D02*
X1612424D01*
X1609424Y1554530D02*
Y1560530D01*
X1646424Y1557530D02*
X1652424D01*
X1649424Y1554530D02*
Y1560530D01*
X1706424Y1561280D02*
X1712424D01*
X1709424Y1558280D02*
Y1564280D01*
X1715302Y1572835D02*
X1721302D01*
X1718302Y1569835D02*
Y1575835D01*
X1733806Y1572835D02*
X1739806D01*
X1736806Y1569835D02*
Y1575835D01*
X1746424Y1561280D02*
X1752424D01*
X1749424Y1558280D02*
Y1564280D01*
X1846424Y1557530D02*
X1852424D01*
X1849424Y1554530D02*
Y1560530D01*
X1866424Y1557530D02*
X1872424D01*
X1869424Y1554530D02*
Y1560530D01*
X1566424Y1577530D02*
X1572424D01*
X1569424Y1574530D02*
Y1580530D01*
X1586424Y1577530D02*
X1592424D01*
X1589424Y1574530D02*
Y1580530D01*
X1606424Y1577530D02*
X1612424D01*
X1609424Y1574530D02*
Y1580530D01*
X1646424Y1577530D02*
X1652424D01*
X1649424Y1574530D02*
Y1580530D01*
X1706424Y1581280D02*
X1712424D01*
X1709424Y1578280D02*
Y1584280D01*
X1746424Y1581280D02*
X1752424D01*
X1749424Y1578280D02*
Y1584280D01*
X1766424Y1581280D02*
X1772424D01*
X1769424Y1578280D02*
Y1584280D01*
X1786424Y1581280D02*
X1792424D01*
X1789424Y1578280D02*
Y1584280D01*
X1846424Y1577530D02*
X1852424D01*
X1849424Y1574530D02*
Y1580530D01*
X1866424Y1577530D02*
X1872424D01*
X1869424Y1574530D02*
Y1580530D01*
X1566424Y1597530D02*
X1572424D01*
X1569424Y1594530D02*
Y1600530D01*
X1586424Y1597530D02*
X1592424D01*
X1589424Y1594530D02*
Y1600530D01*
X1606424Y1597530D02*
X1612424D01*
X1609424Y1594530D02*
Y1600530D01*
X1646424Y1597530D02*
X1652424D01*
X1649424Y1594530D02*
Y1600530D01*
X1726424Y1601280D02*
X1732424D01*
X1729424Y1598280D02*
Y1604280D01*
X1746424Y1601280D02*
X1752424D01*
X1749424Y1598280D02*
Y1604280D01*
X1766424Y1601280D02*
X1772424D01*
X1769424Y1598280D02*
Y1604280D01*
X1846424Y1597530D02*
X1852424D01*
X1849424Y1594530D02*
Y1600530D01*
X1866424Y1597530D02*
X1872424D01*
X1869424Y1594530D02*
Y1600530D01*
X1566424Y1617530D02*
X1572424D01*
X1569424Y1614530D02*
Y1620530D01*
X1586424Y1617530D02*
X1592424D01*
X1589424Y1614530D02*
Y1620530D01*
X1606424Y1617530D02*
X1612424D01*
X1609424Y1614530D02*
Y1620530D01*
X1646424Y1617530D02*
X1652424D01*
X1649424Y1614530D02*
Y1620530D01*
X1680263Y1625984D02*
X1686263D01*
X1683263Y1622984D02*
Y1628984D01*
X1673176Y1635039D02*
X1679176D01*
X1676176Y1632039D02*
Y1638039D01*
X1706424Y1621280D02*
X1712424D01*
X1709424Y1618280D02*
Y1624280D01*
X1726424Y1621280D02*
X1732424D01*
X1729424Y1618280D02*
Y1624280D01*
X1746424Y1621280D02*
X1752424D01*
X1749424Y1618280D02*
Y1624280D01*
X1766424Y1621280D02*
X1772424D01*
X1769424Y1618280D02*
Y1624280D01*
X1846424Y1617530D02*
X1852424D01*
X1849424Y1614530D02*
Y1620530D01*
X1866424Y1617530D02*
X1872424D01*
X1869424Y1614530D02*
Y1620530D01*
X1566424Y1637530D02*
X1572424D01*
X1569424Y1634530D02*
Y1640530D01*
X1586424Y1637530D02*
X1592424D01*
X1589424Y1634530D02*
Y1640530D01*
X1606424Y1637530D02*
X1612424D01*
X1609424Y1634530D02*
Y1640530D01*
X1746424Y1641280D02*
X1752424D01*
X1749424Y1638280D02*
Y1644280D01*
X1766424Y1641280D02*
X1772424D01*
X1769424Y1638280D02*
Y1644280D01*
X1846424Y1637530D02*
X1852424D01*
X1849424Y1634530D02*
Y1640530D01*
X1866424Y1637530D02*
X1872424D01*
X1869424Y1634530D02*
Y1640530D01*
X1566424Y1657530D02*
X1572424D01*
X1569424Y1654530D02*
Y1660530D01*
X1586424Y1657530D02*
X1592424D01*
X1589424Y1654530D02*
Y1660530D01*
X1606424Y1657530D02*
X1612424D01*
X1609424Y1654530D02*
Y1660530D01*
X1706424Y1661280D02*
X1712424D01*
X1709424Y1658280D02*
Y1664280D01*
X1726424Y1661280D02*
X1732424D01*
X1729424Y1658280D02*
Y1664280D01*
X1786424Y1661280D02*
X1792424D01*
X1789424Y1658280D02*
Y1664280D01*
X1846424Y1657530D02*
X1852424D01*
X1849424Y1654530D02*
Y1660530D01*
X1866424Y1657530D02*
X1872424D01*
X1869424Y1654530D02*
Y1660530D01*
X1566424Y1677530D02*
X1572424D01*
X1569424Y1674530D02*
Y1680530D01*
X1586424Y1677530D02*
X1592424D01*
X1589424Y1674530D02*
Y1680530D01*
X1606424Y1677530D02*
X1612424D01*
X1609424Y1674530D02*
Y1680530D01*
X1706424Y1681280D02*
X1712424D01*
X1709424Y1678280D02*
Y1684280D01*
X1746424Y1681280D02*
X1752424D01*
X1749424Y1678280D02*
Y1684280D01*
X1786424Y1681280D02*
X1792424D01*
X1789424Y1678280D02*
Y1684280D01*
X1846424Y1677530D02*
X1852424D01*
X1849424Y1674530D02*
Y1680530D01*
X1866424Y1677530D02*
X1872424D01*
X1869424Y1674530D02*
Y1680530D01*
X1566424Y1697530D02*
X1572424D01*
X1569424Y1694530D02*
Y1700530D01*
X1586424Y1697530D02*
X1592424D01*
X1589424Y1694530D02*
Y1700530D01*
X1606424Y1697530D02*
X1612424D01*
X1609424Y1694530D02*
Y1700530D01*
X1706424Y1701280D02*
X1712424D01*
X1709424Y1698280D02*
Y1704280D01*
X1726424Y1701280D02*
X1732424D01*
X1729424Y1698280D02*
Y1704280D01*
X1761759Y1715354D02*
X1767759D01*
X1764759Y1712354D02*
Y1718354D01*
X1786424Y1701280D02*
X1792424D01*
X1789424Y1698280D02*
Y1704280D01*
X1846424Y1697530D02*
X1852424D01*
X1849424Y1694530D02*
Y1700530D01*
X1866424Y1697530D02*
X1872424D01*
X1869424Y1694530D02*
Y1700530D01*
X1566424Y1717530D02*
X1572424D01*
X1569424Y1714530D02*
Y1720530D01*
X1586424Y1717530D02*
X1592424D01*
X1589424Y1714530D02*
Y1720530D01*
X1606424Y1717530D02*
X1612424D01*
X1609424Y1714530D02*
Y1720530D01*
X1746424Y1721280D02*
X1752424D01*
X1749424Y1718280D02*
Y1724280D01*
X1755853Y1723228D02*
X1761853D01*
X1758853Y1720228D02*
Y1726228D01*
X1766424Y1721280D02*
X1772424D01*
X1769424Y1718280D02*
Y1724280D01*
X1786424Y1721280D02*
X1792424D01*
X1789424Y1718280D02*
Y1724280D01*
X1826424Y1717530D02*
X1832424D01*
X1829424Y1714530D02*
Y1720530D01*
X1846424Y1717530D02*
X1852424D01*
X1849424Y1714530D02*
Y1720530D01*
X1866424Y1717530D02*
X1872424D01*
X1869424Y1714530D02*
Y1720530D01*
X1566424Y1737530D02*
X1572424D01*
X1569424Y1734530D02*
Y1740530D01*
X1586424Y1737530D02*
X1592424D01*
X1589424Y1734530D02*
Y1740530D01*
X1606424Y1737530D02*
X1612424D01*
X1609424Y1734530D02*
Y1740530D01*
X1706424Y1741280D02*
X1712424D01*
X1709424Y1738280D02*
Y1744280D01*
X1766424Y1741280D02*
X1772424D01*
X1769424Y1738280D02*
Y1744280D01*
X1786424Y1741280D02*
X1792424D01*
X1789424Y1738280D02*
Y1744280D01*
X1826424Y1737530D02*
X1832424D01*
X1829424Y1734530D02*
Y1740530D01*
X1846424Y1737530D02*
X1852424D01*
X1849424Y1734530D02*
Y1740530D01*
X1866424Y1737530D02*
X1872424D01*
X1869424Y1734530D02*
Y1740530D01*
X1566424Y1757530D02*
X1572424D01*
X1569424Y1754530D02*
Y1760530D01*
X1586424Y1757530D02*
X1592424D01*
X1589424Y1754530D02*
Y1760530D01*
X1606424Y1757530D02*
X1612424D01*
X1609424Y1754530D02*
Y1760530D01*
X1767271Y1762598D02*
X1773271D01*
X1770271Y1759598D02*
Y1765598D01*
X1786424Y1761280D02*
X1792424D01*
X1789424Y1758280D02*
Y1764280D01*
X1826424Y1757530D02*
X1832424D01*
X1829424Y1754530D02*
Y1760530D01*
X1846424Y1757530D02*
X1852424D01*
X1849424Y1754530D02*
Y1760530D01*
X1866424Y1757530D02*
X1872424D01*
X1869424Y1754530D02*
Y1760530D01*
X1566424Y1781280D02*
X1572424D01*
X1569424Y1778280D02*
Y1784280D01*
X1586424Y1781280D02*
X1592424D01*
X1589424Y1778280D02*
Y1784280D01*
X1606424Y1781280D02*
X1612424D01*
X1609424Y1778280D02*
Y1784280D01*
X1626424Y1781280D02*
X1632424D01*
X1629424Y1778280D02*
Y1784280D01*
X1646424Y1781280D02*
X1652424D01*
X1649424Y1778280D02*
Y1784280D01*
X1666424Y1781280D02*
X1672424D01*
X1669424Y1778280D02*
Y1784280D01*
X1686424Y1781280D02*
X1692424D01*
X1689424Y1778280D02*
Y1784280D01*
X1706424Y1781280D02*
X1712424D01*
X1709424Y1778280D02*
Y1784280D01*
X1746424Y1781280D02*
X1752424D01*
X1749424Y1778280D02*
Y1784280D01*
X1766424Y1781280D02*
X1772424D01*
X1769424Y1778280D02*
Y1784280D01*
X1786424Y1781280D02*
X1792424D01*
X1789424Y1778280D02*
Y1784280D01*
X1806424Y1781280D02*
X1812424D01*
X1809424Y1778280D02*
Y1784280D01*
X1826424Y1781280D02*
X1832424D01*
X1829424Y1778280D02*
Y1784280D01*
X1846424Y1781280D02*
X1852424D01*
X1849424Y1778280D02*
Y1784280D01*
X1866424Y1781280D02*
X1872424D01*
X1869424Y1778280D02*
Y1784280D01*
X1886424Y1781280D02*
X1892424D01*
X1889424Y1778280D02*
Y1784280D01*
X1726424Y1801280D02*
X1732424D01*
X1729424Y1798280D02*
Y1804280D01*
X1746424Y1801280D02*
X1752424D01*
X1749424Y1798280D02*
Y1804280D01*
X1766424Y1801280D02*
X1772424D01*
X1769424Y1798280D02*
Y1804280D01*
X1786424Y1801280D02*
X1792424D01*
X1789424Y1798280D02*
Y1804280D01*
X1806424Y1801280D02*
X1812424D01*
X1809424Y1798280D02*
Y1804280D01*
X1826424Y1801280D02*
X1832424D01*
X1829424Y1798280D02*
Y1804280D01*
X1846424Y1801280D02*
X1852424D01*
X1849424Y1798280D02*
Y1804280D01*
X1866424Y1801280D02*
X1872424D01*
X1869424Y1798280D02*
Y1804280D01*
X1886424Y1801280D02*
X1892424D01*
X1889424Y1798280D02*
Y1804280D01*
X2014365Y1363780D02*
Y1594750D01*
X2012365Y1369780D02*
X2014365Y1363780D01*
X2016365Y1369780*
X2016365*
X2014365Y1836220D02*
Y1605250D01*
X2016365Y1830220D02*
X2014365Y1836220D01*
X2012365Y1830220*
X2012365*
X1861885Y1363780D02*
X2019365D01*
X1861885Y1836220D02*
X2019365D01*
X2000933Y1600938D02*
X2001206Y1601125D01*
X2001615Y1601688*
X2001615D02*
Y1597750D01*
X2002979Y1600750D02*
Y1600938D01*
X2002979D02*
X2003115Y1601313D01*
X2003115D02*
X2003252Y1601500D01*
X2003524Y1601688*
X2003524D02*
X2004070D01*
X2004070D02*
X2004342Y1601500D01*
X2004479Y1601313*
X2004479D02*
X2004615Y1600938D01*
X2004615D02*
Y1600563D01*
X2004615D02*
X2004479Y1600188D01*
X2004479D02*
X2004206Y1599625D01*
X2002842Y1597750*
X2004752*
X2006797Y1601688D02*
X2006388Y1601500D01*
X2006115Y1600938*
X2006115D02*
X2005979Y1600000D01*
Y1599438*
X2005979D02*
X2006115Y1598500D01*
X2006388Y1597938*
X2006388D02*
X2006797Y1597750D01*
X2007070*
X2007479Y1597938*
X2007479D02*
X2007752Y1598500D01*
X2007888Y1599438*
X2007888D02*
Y1600000D01*
X2007752Y1600938*
X2007752D02*
X2007479Y1601500D01*
X2007070Y1601688*
X2007070D02*
X2006797D01*
X2009252Y1598125D02*
X2009115Y1597938D01*
X2009115D02*
X2009252Y1597750D01*
X2009388Y1597938*
X2009388D02*
X2009252Y1598125D01*
X2011433Y1601688D02*
X2011024Y1601500D01*
X2010752Y1600938*
X2010752D02*
X2010615Y1600000D01*
Y1599438*
X2010615D02*
X2010752Y1598500D01*
X2011024Y1597938*
X2011024D02*
X2011433Y1597750D01*
X2011706*
X2012115Y1597938*
X2012115D02*
X2012388Y1598500D01*
X2012524Y1599438*
X2012524D02*
Y1600000D01*
X2012388Y1600938*
X2012388D02*
X2012115Y1601500D01*
X2011706Y1601688*
X2011706D02*
X2011433D01*
X2014570D02*
X2014161Y1601500D01*
X2013888Y1600938*
X2013888D02*
X2013752Y1600000D01*
Y1599438*
X2013752D02*
X2013888Y1598500D01*
X2014161Y1597938*
X2014161D02*
X2014570Y1597750D01*
X2014842*
X2015252Y1597938*
X2015252D02*
X2015524Y1598500D01*
X2015661Y1599438*
X2015661D02*
Y1600000D01*
X2015524Y1600938*
X2015524D02*
X2015252Y1601500D01*
X2014842Y1601688*
X2014842D02*
X2014570D01*
X2017706D02*
X2017297Y1601500D01*
X2017024Y1600938*
X2017024D02*
X2016888Y1600000D01*
Y1599438*
X2016888D02*
X2017024Y1598500D01*
X2017297Y1597938*
X2017297D02*
X2017706Y1597750D01*
X2017979*
X2018388Y1597938*
X2018388D02*
X2018661Y1598500D01*
X2018797Y1599438*
X2018797D02*
Y1600000D01*
X2018661Y1600938*
X2018661D02*
X2018388Y1601500D01*
X2017979Y1601688*
X2017979D02*
X2017706D01*
X2020024Y1600375D02*
Y1597750D01*
Y1599625D02*
X2020433Y1600188D01*
X2020433D02*
X2020706Y1600375D01*
X2021115*
X2021388Y1600188*
X2021388D02*
X2021524Y1599625D01*
Y1597750*
Y1599625D02*
X2021933Y1600188D01*
X2021933D02*
X2022206Y1600375D01*
X2022615*
X2022888Y1600188*
X2022888D02*
X2023024Y1599625D01*
Y1597750*
X2024252Y1600375D02*
Y1597750D01*
Y1599625D02*
X2024661Y1600188D01*
X2024661D02*
X2024933Y1600375D01*
X2025342*
X2025615Y1600188*
X2025615D02*
X2025752Y1599625D01*
Y1597750*
Y1599625D02*
X2026161Y1600188D01*
X2026161D02*
X2026433Y1600375D01*
X2026842*
X2027115Y1600188*
X2027115D02*
X2027252Y1599625D01*
Y1597750*
X2329326Y1423780D02*
X2458326D01*
X2329326Y1411780D02*
X2458326D01*
X2329326Y1399780D02*
X2458326D01*
X2329326Y1387780D02*
X2458326D01*
X2329326Y1375780D02*
X2458326D01*
X2329326Y1363780D02*
X2458326D01*
X2329326Y1423780D02*
Y1363780D01*
X2371326Y1423780D02*
Y1363780D01*
X2389326Y1423780D02*
Y1363780D01*
X2407326Y1423780D02*
Y1363780D01*
X2434326Y1423780D02*
Y1363780D01*
X2458326Y1423780D02*
Y1363780D01*
X2347076Y1418155D02*
X2346803Y1418530D01*
X2346394Y1418717*
X2345849*
X2345439Y1418530*
X2345167Y1418155*
Y1417780*
X2345303Y1417405*
X2345439Y1417217*
X2345712Y1417030*
X2346530Y1416655*
X2346803Y1416467*
X2346939Y1416280*
X2347076Y1415905*
Y1415342*
X2346803Y1414967*
X2346394Y1414780*
X2345849*
X2345439Y1414967*
X2345167Y1415342*
X2348303Y1418717D02*
Y1414780D01*
X2351439Y1418717D02*
X2349530Y1414780D01*
Y1418717D02*
X2351439D01*
X2349530Y1414780D02*
X2351439D01*
X2352667Y1418717D02*
Y1414780D01*
Y1418717D02*
X2354439D01*
X2352667Y1416842D02*
X2353758D01*
X2352667Y1414780D02*
X2354439D01*
X2376258Y1418717D02*
X2375985Y1418530D01*
X2375712Y1418155*
X2375576Y1417780*
X2375439Y1417217*
Y1416280*
X2375576Y1415717*
X2375712Y1415342*
X2375985Y1414967*
X2376258Y1414780*
X2376803*
X2377076Y1414967*
X2377349Y1415342*
X2377485Y1415717*
X2377621Y1416280*
Y1417217*
X2377485Y1417780*
X2377349Y1418155*
X2377076Y1418530*
X2376803Y1418717*
X2376258*
X2376667Y1415530D02*
X2377485Y1414405D01*
X2379803Y1418717D02*
Y1414780D01*
X2378849Y1418717D02*
X2380758D01*
X2381985D02*
X2383076Y1416842D01*
Y1414780*
X2384167Y1418717D02*
X2383076Y1416842D01*
X2395349Y1418155D02*
X2395076Y1418530D01*
X2394667Y1418717*
X2394121*
X2393712Y1418530*
X2393439Y1418155*
Y1417780*
X2393576Y1417405*
X2393712Y1417217*
X2393985Y1417030*
X2394803Y1416655*
X2395076Y1416467*
X2395212Y1416280*
X2395349Y1415905*
Y1415342*
X2395076Y1414967*
X2394667Y1414780*
X2394121*
X2393712Y1414967*
X2393439Y1415342*
X2396576Y1418717D02*
X2397667Y1416842D01*
Y1414780*
X2398758Y1418717D02*
X2397667Y1416842D01*
X2399985Y1418717D02*
Y1414780D01*
Y1418717D02*
X2401076Y1414780D01*
X2402167Y1418717D02*
X2401076Y1414780D01*
X2402167Y1418717D02*
Y1414780D01*
X2413076Y1418717D02*
Y1414780D01*
Y1418717D02*
X2414303D01*
X2414712Y1418530*
X2414849Y1418342*
X2414985Y1417967*
Y1417405*
X2414849Y1417030*
X2414712Y1416842*
X2414303Y1416655*
X2413076*
X2416212Y1418717D02*
Y1414780D01*
X2417849*
X2420167Y1418717D02*
X2419076Y1414780D01*
X2420167Y1418717D02*
X2421258Y1414780D01*
X2419485Y1416092D02*
X2420849D01*
X2423439Y1418717D02*
Y1414780D01*
X2422485Y1418717D02*
X2424394D01*
X2425621D02*
Y1414780D01*
Y1418717D02*
X2427394D01*
X2425621Y1416842D02*
X2426712D01*
X2425621Y1414780D02*
X2427394D01*
X2428621Y1418717D02*
Y1414780D01*
Y1418717D02*
X2429576D01*
X2429985Y1418530*
X2430258Y1418155*
X2430394Y1417780*
X2430530Y1417217*
Y1416280*
X2430394Y1415717*
X2430258Y1415342*
X2429985Y1414967*
X2429576Y1414780*
X2428621*
X2442667Y1418717D02*
Y1414780D01*
X2441712Y1418717D02*
X2443621D01*
X2445667D02*
X2445394Y1418530D01*
X2445121Y1418155*
X2444985Y1417780*
X2444849Y1417217*
Y1416280*
X2444985Y1415717*
X2445121Y1415342*
X2445394Y1414967*
X2445667Y1414780*
X2446212*
X2446485Y1414967*
X2446758Y1415342*
X2446894Y1415717*
X2447030Y1416280*
Y1417217*
X2446894Y1417780*
X2446758Y1418155*
X2446485Y1418530*
X2446212Y1418717*
X2445667*
X2448258D02*
Y1414780D01*
X2449894*
X2332326Y1405967D02*
X2332599Y1406155D01*
X2333008Y1406717*
Y1402780*
X2334235Y1405967D02*
X2334508Y1406155D01*
X2334917Y1406717*
Y1402780*
X2336280Y1403155D02*
X2336144Y1402967D01*
X2336280Y1402780*
X2336417Y1402967*
X2336280Y1403155*
X2338326Y1406717D02*
X2337917Y1406530D01*
X2337780Y1406155*
Y1405780*
X2337917Y1405405*
X2338189Y1405217*
X2338735Y1405030*
X2339144Y1404842*
X2339417Y1404467*
X2339553Y1404092*
Y1403530*
X2339417Y1403155*
X2339280Y1402967*
X2338871Y1402780*
X2338326*
X2337917Y1402967*
X2337780Y1403155*
X2337644Y1403530*
Y1404092*
X2337780Y1404467*
X2338053Y1404842*
X2338462Y1405030*
X2339008Y1405217*
X2339280Y1405405*
X2339417Y1405780*
Y1406155*
X2339280Y1406530*
X2338871Y1406717*
X2338326*
X2375780Y1405780D02*
Y1405967D01*
X2375917Y1406342*
X2376053Y1406530*
X2376326Y1406717*
X2376871*
X2377144Y1406530*
X2377280Y1406342*
X2377417Y1405967*
Y1405592*
X2377280Y1405217*
X2377008Y1404655*
X2375644Y1402780*
X2377553*
X2379053Y1406717D02*
X2380553D01*
X2379735Y1405217*
X2380144*
X2380417Y1405030*
X2380553Y1404842*
X2380689Y1404280*
Y1403905*
X2380553Y1403342*
X2380280Y1402967*
X2379871Y1402780*
X2379462*
X2379053Y1402967*
X2378917Y1403155*
X2378780Y1403530*
X2383689Y1406717D02*
X2382326D01*
X2382189Y1405030*
X2382326Y1405217*
X2382735Y1405405*
X2383144*
X2383553Y1405217*
X2383826Y1404842*
X2383962Y1404280*
X2383826Y1403905*
X2383689Y1403342*
X2383417Y1402967*
X2383008Y1402780*
X2382599*
X2382189Y1402967*
X2382053Y1403155*
X2381917Y1403530*
X2395326Y1405780D02*
X2401326D01*
X2398326Y1402780D02*
Y1408780D01*
X2411644Y1406717D02*
X2412735Y1404842D01*
Y1402780*
X2413826Y1406717D02*
X2412735Y1404842D01*
X2415053Y1406717D02*
Y1402780D01*
Y1406717D02*
X2416826D01*
X2415053Y1404842D02*
X2416144D01*
X2415053Y1402780D02*
X2416826D01*
X2419962Y1406155D02*
X2419689Y1406530D01*
X2419280Y1406717*
X2418735*
X2418326Y1406530*
X2418053Y1406155*
Y1405780*
X2418189Y1405405*
X2418326Y1405217*
X2418599Y1405030*
X2419417Y1404655*
X2419689Y1404467*
X2419826Y1404280*
X2419962Y1403905*
Y1403342*
X2419689Y1402967*
X2419280Y1402780*
X2418735*
X2418326Y1402967*
X2418053Y1403342*
X2333689Y1394717D02*
X2332326Y1392092D01*
X2334371*
X2333689Y1394717D02*
Y1390780D01*
X2336417Y1394717D02*
X2336008Y1394530D01*
X2335735Y1393967*
X2335599Y1393030*
Y1392467*
X2335735Y1391530*
X2336008Y1390967*
X2336417Y1390780*
X2336689*
X2337099Y1390967*
X2337371Y1391530*
X2337508Y1392467*
Y1393030*
X2337371Y1393967*
X2337099Y1394530*
X2336689Y1394717*
X2336417*
X2380553Y1394155D02*
X2380417Y1394530D01*
X2380008Y1394717*
X2379735*
X2379326Y1394530*
X2379053Y1393967*
X2378917Y1393030*
Y1392092*
X2379053Y1391342*
X2379326Y1390967*
X2379735Y1390780*
X2379871*
X2380280Y1390967*
X2380553Y1391342*
X2380689Y1391905*
Y1392092*
X2380553Y1392655*
X2380280Y1393030*
X2379871Y1393217*
X2379735*
X2379326Y1393030*
X2379053Y1392655*
X2378917Y1392092*
X2398326Y1390780D02*
X2401326Y1393780D01*
X2398326Y1396780*
X2395326Y1393780*
X2398326Y1390780*
Y1393780D02*
Y1396780D01*
X2411644Y1394717D02*
X2412735Y1392842D01*
Y1390780*
X2413826Y1394717D02*
X2412735Y1392842D01*
X2415053Y1394717D02*
Y1390780D01*
Y1394717D02*
X2416826D01*
X2415053Y1392842D02*
X2416144D01*
X2415053Y1390780D02*
X2416826D01*
X2419962Y1394155D02*
X2419689Y1394530D01*
X2419280Y1394717*
X2418735*
X2418326Y1394530*
X2418053Y1394155*
Y1393780*
X2418189Y1393405*
X2418326Y1393217*
X2418599Y1393030*
X2419417Y1392655*
X2419689Y1392467*
X2419826Y1392280*
X2419962Y1391905*
Y1391342*
X2419689Y1390967*
X2419280Y1390780*
X2418735*
X2418326Y1390967*
X2418053Y1391342*
X2445667Y1394717D02*
X2445258Y1394530D01*
X2444985Y1393967*
X2444849Y1393030*
Y1392467*
X2444985Y1391530*
X2445258Y1390967*
X2445667Y1390780*
X2445939*
X2446349Y1390967*
X2446621Y1391530*
X2446758Y1392467*
Y1393030*
X2446621Y1393967*
X2446349Y1394530*
X2445939Y1394717*
X2445667*
X2332599Y1382717D02*
X2334099D01*
X2333280Y1381217*
X2333689*
X2333962Y1381030*
X2334099Y1380842*
X2334235Y1380280*
Y1379905*
X2334099Y1379342*
X2333826Y1378967*
X2333417Y1378780*
X2333008*
X2332599Y1378967*
X2332462Y1379155*
X2332326Y1379530*
X2337235Y1382717D02*
X2335871D01*
X2335735Y1381030*
X2335871Y1381217*
X2336280Y1381405*
X2336689*
X2337099Y1381217*
X2337371Y1380842*
X2337508Y1380280*
X2337371Y1379905*
X2337235Y1379342*
X2336962Y1378967*
X2336553Y1378780*
X2336144*
X2335735Y1378967*
X2335599Y1379155*
X2335462Y1379530*
X2376326Y1381967D02*
X2376599Y1382155D01*
X2377008Y1382717*
Y1378780*
X2378371Y1381780D02*
Y1381967D01*
X2378508Y1382342*
X2378644Y1382530*
X2378917Y1382717*
X2379462*
X2379735Y1382530*
X2379871Y1382342*
X2380008Y1381967*
Y1381592*
X2379871Y1381217*
X2379599Y1380655*
X2378235Y1378780*
X2380144*
X2382053Y1382717D02*
X2381644Y1382530D01*
X2381508Y1382155*
Y1381780*
X2381644Y1381405*
X2381917Y1381217*
X2382462Y1381030*
X2382871Y1380842*
X2383144Y1380467*
X2383280Y1380092*
Y1379530*
X2383144Y1379155*
X2383008Y1378967*
X2382599Y1378780*
X2382053*
X2381644Y1378967*
X2381508Y1379155*
X2381371Y1379530*
Y1380092*
X2381508Y1380467*
X2381780Y1380842*
X2382189Y1381030*
X2382735Y1381217*
X2383008Y1381405*
X2383144Y1381780*
Y1382155*
X2383008Y1382530*
X2382599Y1382717*
X2382053*
X2395326Y1381780D02*
X2401326D01*
X2398326Y1378780D02*
Y1384780D01*
X2399826Y1386430D02*
Y1383280D01*
Y1386430D02*
X2401244D01*
X2399826Y1384930D02*
X2400699D01*
X2399826Y1383280D02*
X2401244D01*
X2411644Y1382717D02*
X2412735Y1380842D01*
Y1378780*
X2413826Y1382717D02*
X2412735Y1380842D01*
X2415053Y1382717D02*
Y1378780D01*
Y1382717D02*
X2416826D01*
X2415053Y1380842D02*
X2416144D01*
X2415053Y1378780D02*
X2416826D01*
X2419962Y1382155D02*
X2419689Y1382530D01*
X2419280Y1382717*
X2418735*
X2418326Y1382530*
X2418053Y1382155*
Y1381780*
X2418189Y1381405*
X2418326Y1381217*
X2418599Y1381030*
X2419417Y1380655*
X2419689Y1380467*
X2419826Y1380280*
X2419962Y1379905*
Y1379342*
X2419689Y1378967*
X2419280Y1378780*
X2418735*
X2418326Y1378967*
X2418053Y1379342*
X2438235Y1382155D02*
Y1378780D01*
X2437008Y1380467D02*
X2439462D01*
X2443144Y1383467D02*
X2440689Y1377467D01*
X2444371Y1380467D02*
X2446826D01*
X2448871Y1382717D02*
X2448462Y1382530D01*
X2448189Y1381967*
X2448053Y1381030*
Y1380467*
X2448189Y1379530*
X2448462Y1378967*
X2448871Y1378780*
X2449144*
X2449553Y1378967*
X2449826Y1379530*
X2449962Y1380467*
Y1381030*
X2449826Y1381967*
X2449553Y1382530*
X2449144Y1382717*
X2448871*
X2451326Y1379155D02*
X2451189Y1378967D01*
X2451326Y1378780*
X2451462Y1378967*
X2451326Y1379155*
X2453508Y1382717D02*
X2453099Y1382530D01*
X2452826Y1381967*
X2452689Y1381030*
Y1380467*
X2452826Y1379530*
X2453099Y1378967*
X2453508Y1378780*
X2453780*
X2454189Y1378967*
X2454462Y1379530*
X2454599Y1380467*
Y1381030*
X2454462Y1381967*
X2454189Y1382530*
X2453780Y1382717*
X2453508*
X2332326Y1369967D02*
X2332599Y1370155D01*
X2333008Y1370717*
Y1366780*
X2336008Y1370717D02*
X2334644D01*
X2334508Y1369030*
X2334644Y1369217*
X2335053Y1369405*
X2335462*
X2335871Y1369217*
X2336144Y1368842*
X2336280Y1368280*
X2336144Y1367905*
X2336008Y1367342*
X2335735Y1366967*
X2335326Y1366780*
X2334917*
X2334508Y1366967*
X2334371Y1367155*
X2334235Y1367530*
X2339417Y1370717D02*
X2338053Y1366780D01*
X2337508Y1370717D02*
X2339417D01*
X2340780Y1367155D02*
X2340644Y1366967D01*
X2340780Y1366780*
X2340917Y1366967*
X2340780Y1367155*
X2343508Y1370717D02*
X2342144Y1368092D01*
X2344189*
X2343508Y1370717D02*
Y1366780D01*
X2346099Y1370717D02*
X2345689Y1370530D01*
X2345553Y1370155*
Y1369780*
X2345689Y1369405*
X2345962Y1369217*
X2346508Y1369030*
X2346917Y1368842*
X2347189Y1368467*
X2347326Y1368092*
Y1367530*
X2347189Y1367155*
X2347053Y1366967*
X2346644Y1366780*
X2346099*
X2345689Y1366967*
X2345553Y1367155*
X2345417Y1367530*
Y1368092*
X2345553Y1368467*
X2345826Y1368842*
X2346235Y1369030*
X2346780Y1369217*
X2347053Y1369405*
X2347189Y1369780*
Y1370155*
X2347053Y1370530*
X2346644Y1370717*
X2346099*
X2380144D02*
X2378780Y1368092D01*
X2380826*
X2380144Y1370717D02*
Y1366780D01*
X2395326Y1369780D02*
X2401326D01*
X2398326Y1366780D02*
Y1372780D01*
X2399826Y1374430D02*
Y1371280D01*
Y1374430D02*
X2401244D01*
X2399826Y1372930D02*
X2400699D01*
X2413144Y1370717D02*
Y1366780D01*
Y1370717D02*
X2415053Y1366780D01*
Y1370717D02*
Y1366780D01*
X2417099Y1370717D02*
X2416826Y1370530D01*
X2416553Y1370155*
X2416417Y1369780*
X2416280Y1369217*
Y1368280*
X2416417Y1367717*
X2416553Y1367342*
X2416826Y1366967*
X2417099Y1366780*
X2417644*
X2417917Y1366967*
X2418189Y1367342*
X2418326Y1367717*
X2418462Y1368280*
Y1369217*
X2418326Y1369780*
X2418189Y1370155*
X2417917Y1370530*
X2417644Y1370717*
X2417099*
X2438235Y1370155D02*
Y1366780D01*
X2437008Y1368467D02*
X2439462D01*
X2443144Y1371467D02*
X2440689Y1365467D01*
X2444371Y1368467D02*
X2446826D01*
X2448871Y1370717D02*
X2448462Y1370530D01*
X2448189Y1369967*
X2448053Y1369030*
Y1368467*
X2448189Y1367530*
X2448462Y1366967*
X2448871Y1366780*
X2449144*
X2449553Y1366967*
X2449826Y1367530*
X2449962Y1368467*
Y1369030*
X2449826Y1369967*
X2449553Y1370530*
X2449144Y1370717*
X2448871*
X2451326Y1367155D02*
X2451189Y1366967D01*
X2451326Y1366780*
X2451462Y1366967*
X2451326Y1367155*
X2453508Y1370717D02*
X2453099Y1370530D01*
X2452826Y1369967*
X2452689Y1369030*
Y1368467*
X2452826Y1367530*
X2453099Y1366967*
X2453508Y1366780*
X2453780*
X2454189Y1366967*
X2454462Y1367530*
X2454599Y1368467*
Y1369030*
X2454462Y1369967*
X2454189Y1370530*
X2453780Y1370717*
X2453508*
G54D38*
X1856885Y1363780D02*
X1856887D01*
X1856885Y1836220D02*
X1856887D01*
X0Y0D02*
M02*
