%
T1C.0118F095S3
X01275Y015375
X01275Y017375
X01275Y019375
X01275Y021375
X01275Y023375
X01275Y025375
X01275Y027375
X01275Y029375
X01275Y031375
X01275Y033375
X01275Y035375
X01275Y037375
X01275Y039375
X01275Y041375
X01275Y043375
X01275Y045375
X01275Y047375
X01275Y049375
X01275Y05175
X01475Y05175
X01675Y05175
X01475Y049375
X01675Y049375
X01475Y047375
X01675Y047375
X01475Y045375
X01675Y045375
X01475Y043375
X01675Y043375
X01475Y041375
X01675Y041375
X01475Y039375
X01675Y039375
X01475Y037375
X01675Y037375
X01475Y035375
X01675Y035375
X01475Y033375
X01675Y033375
X01475Y031375
X01675Y031375
X01475Y029375
X01675Y029375
X01475Y027375
X01675Y027375
X01475Y025375
X01675Y025375
X01475Y023375
X01675Y023375
X01475Y021375
X01675Y021375
X01475Y019375
X01675Y019375
X01475Y017375
X01675Y017375
X01675Y015375
X01475Y015375
X01475Y013375
X01675Y013375
X01475Y011375
X01675Y011375
X01875Y011375
X02075Y011375
X02075Y013375
X02075Y015375
X02075Y017375
X02075Y019375
X02075Y021375
X02075Y023375
X02075Y025375
X02075Y027375
X02075Y029375
X02075Y031375
X02075Y033375
X02075Y035375
X01875Y05175
X02075Y05175
X02275Y05175
X02475Y05175
X02675Y05175
X02675Y04775
X02675Y04375
X02675Y04175
X02675Y03975
X023425Y037126
X024134Y03622
X02675Y03575
X02675Y03175
X02675Y02975
X02675Y02775
X02675Y02575
X02675Y02375
X02675Y02175
X02275Y01975
X02475Y01975
X02675Y01975
X02475Y017375
X02675Y017375
X02275Y017375
X02675Y015375
X02475Y015375
X02275Y015375
X02475Y013375
X02275Y013375
X02675Y013375
X02275Y011375
X02675Y011375
X02475Y011375
X02875Y011375
X03075Y011375
X02875Y013375
X03075Y013375
X03075Y015375
X02875Y015375
X02875Y017375
X03075Y017375
X02875Y01975
X03075Y01975
X02875Y02175
X03075Y02175
X02875Y02375
X03075Y02375
X03075Y02575
X02875Y02575
X03075Y02775
X03075Y02975
X027638Y030906
X029488Y030906
X03075Y03175
X03075Y03375
X02875Y03375
X02875Y03575
X03075Y03575
X03075Y03775
X02875Y03975
X03075Y04175
X02875Y04375
X03075Y04575
X031693Y045945
X03075Y05175
X02875Y05375
X03075Y05375
X03275Y05375
X03275Y05175
X032835Y049882
X03275Y04775
X03275Y04575
X032283Y045157
X03275Y03775
X03275Y03575
X03275Y03375
X03275Y03175
X03275Y02575
X03275Y02375
X03275Y02175
X03275Y01975
X03275Y017375
X03275Y015375
X03275Y013375
X03275Y011375
X03675Y011375
X03475Y011375
X03475Y013375
X03675Y013375
X03675Y015375
X03475Y015375
X03475Y017375
X03675Y017375
X03475Y01975
X03475Y02175
X03475Y02375
X03475Y02575
X03475Y03175
X03475Y03975
X03475Y04175
X03475Y04375
X03475Y04575
X03475Y04775
X03475Y04975
X03675Y05175
X03475Y05175
X03475Y05375
X03675Y05375
X03875Y05375
X04075Y05375
X03875Y05175
X04075Y05175
X04075Y049375
X03875Y049375
X04075Y047375
X03875Y047375
X04075Y045375
X03875Y045375
X04075Y043375
X04075Y041375
X04075Y039375
X04075Y037375
X04075Y035375
X04075Y033375
X04075Y031375
X04075Y029375
X04075Y027375
X04075Y025375
X04075Y023375
X04075Y021375
X04075Y019375
X04075Y017375
X04075Y015375
X04075Y013375
X03875Y011375
X04075Y011375
X04275Y011375
X04275Y013375
X04275Y015375
X04275Y017375
X04275Y019375
X04275Y021375
X04275Y023375
X04275Y025375
X04275Y027375
X04275Y029375
X04275Y031375
X04275Y033375
X04275Y035375
X04275Y037375
X04275Y039375
X04275Y041375
X04275Y043375
X04275Y045375
X04275Y047375
X04275Y049375
X04275Y05175
X04275Y05375
X04475Y05375
X04475Y05175
T2C.035F197S55
X019185Y012654
X019185Y013654
X019185Y014654
X019185Y015654
X019185Y016654
X019185Y017654
X019185Y018654
X019185Y019654
X019185Y020654
X019185Y021654
X019185Y022654
X019185Y023654
X019185Y024654
X019185Y025654
X019185Y026654
X019185Y027654
X019185Y028654
X019185Y029654
X019185Y030654
X019185Y031654
X019185Y032654
X019185Y033654
X019185Y034654
X019185Y035654
X019185Y036654
X019185Y037654
X019185Y038654
X019185Y039654
X019185Y040654
X019185Y041654
X019185Y042654
X019185Y043654
X020185Y043654
X020185Y042654
X020185Y041654
X020185Y040654
X020185Y039654
X020185Y038654
X020185Y037654
X020185Y036654
X020185Y035654
X020185Y034654
X020185Y033654
X020185Y032654
X020185Y031654
X020185Y030654
X020185Y029654
X020185Y028654
X020185Y027654
X020185Y026654
X020185Y025654
X020185Y024654
X020185Y023654
X020185Y022654
X020185Y021654
X020185Y020654
X020185Y019654
X020185Y018654
X020185Y017654
X020185Y016654
X020185Y015654
X020185Y014654
X020185Y013654
X020185Y012654
X039185Y012654
X039185Y013654
X039185Y014654
X039185Y015654
X039185Y016654
X039185Y017654
X039185Y018654
X039185Y019654
X039185Y020654
X039185Y021654
X039185Y022654
X039185Y023654
X039185Y024654
X039185Y025654
X039185Y026654
X039185Y027654
X039185Y028654
X039185Y029654
X039185Y030654
X039185Y031654
X039185Y032654
X039185Y033654
X039185Y034654
X039185Y035654
X039185Y036654
X039185Y037654
X039185Y038654
X039185Y039654
X039185Y040654
X039185Y041654
X039185Y042654
X039185Y043654
X040185Y043654
X040185Y042654
X040185Y041654
X040185Y040654
X040185Y039654
X040185Y038654
X040185Y037654
X040185Y036654
X040185Y035654
X040185Y034654
X040185Y033654
X040185Y032654
X040185Y031654
X040185Y030654
X040185Y029654
X040185Y028654
X040185Y027654
X040185Y026654
X040185Y025654
X040185Y024654
X040185Y023654
X040185Y022654
X040185Y021654
X040185Y020654
X040185Y019654
X040185Y018654
X040185Y017654
X040185Y016654
X040185Y015654
X040185Y014654
X040185Y013654
X040185Y012654
T3C.04F139S55
X023268Y021382
X023268Y022362
X013937Y053307
X013937Y054287
X045433Y054291
X045433Y053311
T4C.15748F035S9
X011969Y011969
X011969Y055276
X047402Y055276
X047402Y011969
M30
